SplineFontDB: 3.0
FontName: OxygenSans-Regular
FullName: OxygenSans Regular
FamilyName: OxygenSans
Weight: Normal
ItalicAngle: 0
UnderlinePosition: 0
UnderlineWidth: 0
Ascent: 1638
Descent: 410
UFOAscent: 1838
UFODescent: -534
LayerCount: 2
Layer: 0 0 "Back"  1
Layer: 1 0 "Fore"  0
OS2Version: 0
OS2_WeightWidthSlopeOnly: 0
OS2_UseTypoMetrics: 0
CreationTime: 1365019410
ModificationTime: 1370219153
PfmFamily: 0
TTFWeight: 430
TTFWidth: 5
LineGap: 0
VLineGap: 0
OS2TypoAscent: 1623
OS2TypoAOffset: 0
OS2TypoDescent: 67
OS2TypoDOffset: 0
OS2TypoLinegap: 0
OS2WinAscent: 1600
OS2WinAOffset: 0
OS2WinDescent: 448
OS2WinDOffset: 0
HheadAscent: 0
HheadAOffset: 1
HheadDescent: 0
HheadDOffset: 1
OS2SubXSize: -1403
OS2SubYSize: -1295
OS2SubXOff: 0
OS2SubYOff: -161
OS2SupXSize: -1403
OS2SupYSize: -1295
OS2SupXOff: 0
OS2SupYOff: -755
OS2StrikeYSize: -53
OS2StrikeYPos: -643
OS2Vendor: 'PfEd'
DEI: 91125
Encoding: iso8859-5
Compacted: 1
UnicodeInterp: none
NameList: AGL For New Fonts
DisplaySize: -72
AntiAlias: 1
FitToEm: 1
WinInfo: 60 20 8
BeginPrivate: 7
BlueFuzz 1 0
BlueScale 7 0.01585
BlueShift 1 3
BlueValues 23 [-10 6 406 416 530 550]
OtherBlues 10 [-176 -66]
StemSnapH 27 [8 64 72 74 77 79 81 87 92]
StemSnapV 25 [76 92 98 98 101 102 115]
EndPrivate
Grid
-2048 147 m 4
 4096 147 l 4
-2048 1293 m 4
 4096 1293 l 4
-2048 1437 m 4
 4096 1437 l 4
  Named: "capHeight" 
-2048 948 m 4
 4096 948 l 4
-2048 1060 m 4
 4096 1060 l 4
  Named: "xheight" 
EndSplineSet
BeginChars: 675 611

StartChar: .notdef
Encoding: 256 -1 0
Width: 937
VWidth: 0
Flags: HW
HStem: 1 99<182.28 773.28> 955 99<182.28 773.28>
VStem: 84 98<100 955> 773 98<100 955>
LayerCount: 2
UndoRedoHistory
Layer: 0
Undoes
EndUndoes
Redoes
EndRedoes
EndUndoRedoHistory
UndoRedoHistory
Layer: 1
Undoes
EndUndoes
Redoes
EndRedoes
EndUndoRedoHistory
Fore
SplineSet
182 100 m 1
 773 100 l 1
 773 955 l 1
 182 955 l 1
 182 100 l 1
84 1 m 1
 84 1054 l 1
 871 1054 l 1
 871 1 l 1
 84 1 l 1
EndSplineSet
EndChar

StartChar: A
Encoding: 65 65 1
Width: 1357
VWidth: 0
Flags: HW
LayerCount: 2
UndoRedoHistory
Layer: 0
Undoes
EndUndoes
Redoes
EndRedoes
EndUndoRedoHistory
UndoRedoHistory
Layer: 1
Undoes
EndUndoes
Redoes
EndRedoes
EndUndoRedoHistory
Fore
SplineSet
42 0 m 1
 241 0 l 1
 426 502 l 1
 353 449 l 1
 1012 449 l 1
 936 499 l 1
 1122 0 l 1
 1315 0 l 1
 786 1437 l 1
 572 1437 l 1
 42 0 l 1
432 525 m 1
 704 1322 l 1
 657 1323 l 1
 930 526 l 1
 973 582 l 1
 393 582 l 1
 432 525 l 1
EndSplineSet
EndChar

StartChar: AE
Encoding: 257 198 2
Width: 1920
VWidth: 0
Flags: HW
LayerCount: 2
UndoRedoHistory
Layer: 0
Undoes
EndUndoes
Redoes
EndRedoes
EndUndoRedoHistory
UndoRedoHistory
Layer: 1
Undoes
EndUndoes
Redoes
EndRedoes
EndUndoRedoHistory
Fore
SplineSet
1165 0 m 1
 1843 0 l 1
 1826 148 l 1
 1231 148 l 1
 1300 90 l 1
 1172 724 l 1
 1125 669 l 1
 1741 669 l 1
 1722 815 l 1
 1097 815 l 1
 1166 759 l 1
 1049 1346 l 1
 1003 1291 l 1
 1754 1291 l 1
 1742 1437 l 1
 937 1437 l 1
 1165 0 l 1
EndSplineSet
Refer: 1 65 N 1.00005 4.15409e-06 0.165188 0.99995 -3 0 2
EndChar

StartChar: B
Encoding: 66 66 14
Width: 1330
VWidth: 0
Flags: HW
HStem: 0 147<690.72 922.487> 688 135<643.72 860.289> 1293 144<632.72 898.076>
VStem: 992 186<907.363 1207.1> 1041 194<254.082 575.516>
LayerCount: 2
UndoRedoHistory
Layer: 0
Undoes
EndUndoes
Redoes
EndRedoes
EndUndoRedoHistory
UndoRedoHistory
Layer: 1
Undoes
EndUndoes
Redoes
EndRedoes
EndUndoRedoHistory
Fore
SplineSet
174 0 m 1xf0
 723 0 l 2
 1065 0 1235 155 1235 408 c 0xe8
 1235 627 1089 743 866 782 c 1
 866 734 l 1
 1104 797 1178 913 1178 1083 c 0
 1178 1331 1002 1437 639 1437 c 2
 174 1437 l 1
 174 0 l 1xf0
316 147 m 1
 368 93 l 1
 368 741 l 1
 315 688 l 1
 644 688 l 2
 914 688 1041 619 1041 415 c 0
 1041 224 934 147 691 147 c 2
 316 147 l 1
314 823 m 1
 368 778 l 1
 368 1345 l 1
 316 1293 l 1
 633 1293 l 2
 877 1293 992 1247 992 1059 c 0xf0
 992 871 875 823 689 823 c 2
 314 823 l 1
EndSplineSet
EndChar

StartChar: C
Encoding: 67 67 15
Width: 1278
VWidth: 0
Flags: HW
HStem: -19 155<615.759 1082.5> 1303 153<607.181 1059.51>
VStem: 116 195<461.967 980.603>
LayerCount: 2
UndoRedoHistory
Layer: 0
Undoes
EndUndoes
Redoes
EndRedoes
EndUndoRedoHistory
UndoRedoHistory
Layer: 1
Undoes
EndUndoes
Redoes
EndRedoes
EndUndoRedoHistory
Fore
SplineSet
812 -19 m 0
 996 -19 1137 36 1200 67 c 1
 1157 211 l 1
 1103 186 982 136 832 136 c 0
 514 136 311 356 311 718 c 0
 311 1075 507 1303 820 1303 c 0
 937 1303 1059 1270 1147 1216 c 1
 1208 1344 l 1
 1113 1411 971 1456 804 1456 c 0
 396 1456 116 1171 116 723 c 0
 116 256 409 -19 812 -19 c 0
EndSplineSet
EndChar

StartChar: D
Encoding: 68 68 22
Width: 1492
VWidth: 0
Flags: HW
HStem: 0 147<613.72 875.63> 1293 144<586.72 867.22>
VStem: 1185 193<459.772 986.693>
LayerCount: 2
UndoRedoHistory
Layer: 0
Undoes
EndUndoes
Redoes
EndRedoes
EndUndoRedoHistory
UndoRedoHistory
Layer: 1
Undoes
EndUndoes
Redoes
EndRedoes
EndUndoRedoHistory
Fore
SplineSet
368 86 m 1
 368 1351 l 1
 309 1293 l 1
 587 1293 l 2
 966 1293 1185 1130 1185 718 c 0
 1185 342 992 147 614 147 c 2
 310 147 l 1
 368 86 l 1
174 0 m 1
 620 0 l 2
 1082 0 1378 250 1378 723 c 0
 1378 1220 1056 1437 592 1437 c 2
 174 1437 l 1
 174 0 l 1
EndSplineSet
EndChar

StartChar: Dcroat
Encoding: 276 272 24
Width: 1482
VWidth: 0
Flags: HW
HStem: 0 147<633.46 895.37> 1293 144<606.46 886.96>
VStem: 1204 193<459.772 986.693>
LayerCount: 2
UndoRedoHistory
Layer: 0
Undoes
EndUndoes
Redoes
EndRedoes
EndUndoRedoHistory
UndoRedoHistory
Layer: 1
Undoes
EndUndoes
Redoes
EndRedoes
EndUndoRedoHistory
Fore
SplineSet
52 693 m 5
 569 693 l 5
 569 783 l 5
 52 783 l 5
 52 693 l 5
EndSplineSet
Refer: 22 68 N 1 0 0 1 -9 0 2
EndChar

StartChar: Delta
Encoding: 277 916 25
Width: 1396
VWidth: 0
Flags: HW
HStem: 0 150<316.72 1105.72>
LayerCount: 2
UndoRedoHistory
Layer: 0
Undoes
EndUndoes
Redoes
EndRedoes
EndUndoRedoHistory
UndoRedoHistory
Layer: 1
Undoes
EndUndoes
Redoes
EndRedoes
EndUndoRedoHistory
Fore
SplineSet
88 0 m 1
 621 1446 l 1
 796 1446 l 1
 1330 0 l 1
 88 0 l 1
317 150 m 1
 1106 150 l 1
 708 1262 l 1
 317 150 l 1
EndSplineSet
EndChar

StartChar: E
Encoding: 69 69 26
Width: 1142
VWidth: 0
Flags: HW
LayerCount: 2
UndoRedoHistory
Layer: 0
Undoes
EndUndoes
Redoes
EndRedoes
EndUndoRedoHistory
UndoRedoHistory
Layer: 1
Undoes
EndUndoes
Redoes
EndRedoes
EndUndoRedoHistory
Fore
SplineSet
172 0 m 1
 1054 0 l 1
 1066 147 l 1
 308 147 l 1
 366 89 l 1
 366 728 l 1
 308 673 l 1
 998 673 l 1
 998 818 l 1
 308 818 l 1
 366 762 l 1
 366 1347 l 1
 309 1293 l 1
 1055 1293 l 1
 1062 1437 l 1
 172 1437 l 1
 172 0 l 1
EndSplineSet
EndChar

StartChar: Eng
Encoding: 286 330 35
Width: 1311
VWidth: 0
Flags: HW
LayerCount: 2
UndoRedoHistory
Layer: 0
Undoes
EndUndoes
Redoes
EndRedoes
EndUndoRedoHistory
UndoRedoHistory
Layer: 1
Undoes
EndUndoes
Redoes
EndRedoes
EndUndoRedoHistory
Fore
SplineSet
797 -316 m 0
 769 -316 721 -315 598 -303 c 1
 576 -161 l 1
 713 -169 730 -169 751 -169 c 0
 1025 -169 1047 -97 1047 166 c 2
 1047 969 l 2
 1047 1226 974 1313 762 1313 c 0
 546 1313 382 1190 290 1052 c 1
 290 0 l 1
 129 0 l 1
 126 1446 l 1
 274 1446 l 1
 291 1240 l 1
 471 1429 644 1469 813 1469 c 0
 1073 1469 1207 1295 1207 975 c 2
 1207 160 l 2
 1207 -138 1145 -316 797 -316 c 0
EndSplineSet
EndChar

StartChar: Eth
Encoding: 289 208 38
Width: 1485
VWidth: 0
Flags: HW
LayerCount: 2
UndoRedoHistory
Layer: 0
Undoes
EndUndoes
Redoes
EndRedoes
EndUndoRedoHistory
UndoRedoHistory
Layer: 1
Undoes
EndUndoes
Redoes
EndRedoes
EndUndoRedoHistory
Fore
SplineSet
651 797 m 1
 47 797 l 1
 47 673 l 1
 651 673 l 1
 651 797 l 1
EndSplineSet
Refer: 22 68 N 1 0 0 1 -8 0 2
EndChar

StartChar: Euro
Encoding: 290 8364 39
Width: 1270
VWidth: 0
Flags: HW
LayerCount: 2
UndoRedoHistory
Layer: 0
Undoes
EndUndoes
Redoes
EndRedoes
EndUndoRedoHistory
UndoRedoHistory
Layer: 1
Undoes
EndUndoes
Redoes
EndRedoes
EndUndoRedoHistory
Fore
SplineSet
1196 66 m 1
 1110 21 988 -19 823 -19 c 0
 483 -19 210 181 143 560 c 1
 204 519 l 1
 14 519 l 1
 20 633 l 1
 194 633 l 1
 140 591 l 1
 137 620 133 693 133 723 c 0
 133 749 136 818 138 843 c 1
 193 800 l 1
 19 800 l 1
 25 911 l 1
 198 911 l 1
 139 865 l 1
 200 1251 468 1456 814 1456 c 0
 981 1456 1123 1411 1218 1344 c 1
 1154 1214 l 1
 1066 1268 947 1301 830 1301 c 0
 580 1301 392 1155 337 865 c 1
 277 911 l 1
 907 911 l 1
 900 800 l 1
 267 800 l 1
 333 843 l 1
 330 817 328 746 328 718 c 0
 328 689 331 618 334 591 c 1
 269 633 l 1
 900 633 l 1
 894 519 l 1
 283 519 l 1
 341 560 l 1
 400 276 584 136 848 136 c 0
 968 136 1070 168 1154 209 c 1
 1196 66 l 1
EndSplineSet
EndChar

StartChar: F
Encoding: 70 70 40
Width: 1079
VWidth: 0
Flags: HW
LayerCount: 2
UndoRedoHistory
Layer: 0
Undoes
EndUndoes
Redoes
EndRedoes
EndUndoRedoHistory
UndoRedoHistory
Layer: 1
Undoes
EndUndoes
Redoes
EndRedoes
EndUndoRedoHistory
Fore
SplineSet
174 0 m 1
 371 0 l 1
 371 711 l 1
 300 651 l 1
 968 651 l 1
 968 792 l 1
 294 792 l 1
 371 736 l 1
 371 1357 l 1
 292 1289 l 1
 1019 1289 l 1
 1029 1437 l 1
 174 1437 l 1
 174 0 l 1
EndSplineSet
EndChar

StartChar: G
Encoding: 71 71 41
Width: 1431
VWidth: 0
Flags: HW
LayerCount: 2
UndoRedoHistory
Layer: 0
Undoes
EndUndoes
Redoes
EndRedoes
EndUndoRedoHistory
UndoRedoHistory
Layer: 1
Undoes
EndUndoes
Redoes
EndRedoes
EndUndoRedoHistory
Fore
SplineSet
801 -19 m 0
 997 -19 1152 15 1300 73 c 1
 1300 739 l 1
 808 739 l 1
 802 588 l 1
 1183 588 l 1
 1123 648 l 1
 1123 112 l 1
 1180 200 l 1
 1121 174 1005 136 829 136 c 0
 461 136 310 368 310 719 c 0
 310 1059 505 1304 835 1304 c 0
 1032 1304 1133 1243 1215 1199 c 1
 1262 1344 l 1
 1140 1425 999 1456 830 1456 c 0
 398 1456 115 1151 115 717 c 0
 115 291 356 -19 801 -19 c 0
EndSplineSet
EndChar

StartChar: Gamma
Encoding: 291 915 42
Width: 1136
VWidth: 0
Flags: HW
LayerCount: 2
UndoRedoHistory
Layer: 0
Undoes
EndUndoes
Redoes
EndRedoes
EndUndoRedoHistory
UndoRedoHistory
Layer: 1
Undoes
EndUndoes
Redoes
EndRedoes
EndUndoRedoHistory
Fore
SplineSet
172 0 m 5
 367 0 l 5
 367 1354 l 5
 310 1288 l 5
 1041 1288 l 5
 1051 1437 l 5
 172 1437 l 5
 172 0 l 5
EndSplineSet
EndChar

StartChar: H
Encoding: 72 72 48
Width: 1468
VWidth: 0
Flags: HW
LayerCount: 2
UndoRedoHistory
Layer: 0
Undoes
EndUndoes
Redoes
EndRedoes
EndUndoRedoHistory
UndoRedoHistory
Layer: 1
Undoes
EndUndoes
Redoes
EndRedoes
EndUndoRedoHistory
Fore
SplineSet
172 0 m 1
 366 0 l 1
 366 721 l 1
 299 667 l 1
 1172 667 l 1
 1102 721 l 1
 1102 0 l 1
 1296 0 l 1
 1296 1437 l 1
 1102 1437 l 1
 1102 756 l 1
 1168 810 l 1
 299 810 l 1
 366 756 l 1
 366 1437 l 1
 172 1437 l 1
 172 0 l 1
EndSplineSet
EndChar

StartChar: Hbar
Encoding: 297 294 49
Width: 1499
VWidth: 0
Flags: HW
LayerCount: 2
UndoRedoHistory
Layer: 0
Undoes
EndUndoes
Redoes
EndRedoes
EndUndoRedoHistory
UndoRedoHistory
Layer: 1
Undoes
EndUndoes
Redoes
EndRedoes
EndUndoRedoHistory
Fore
SplineSet
196 0 m 1
 196 1108 l 1
 108 1108 l 1
 108 1209 l 1
 196 1209 l 1
 196 1445 l 1
 360 1445 l 1
 360 1209 l 1
 1159 1209 l 1
 1159 1445 l 1
 1324 1445 l 1
 1324 1209 l 1
 1412 1209 l 1
 1412 1108 l 1
 1324 1108 l 1
 1324 0 l 1
 1159 0 l 1
 1159 672 l 1
 360 672 l 1
 360 0 l 1
 196 0 l 1
360 819 m 1
 1159 819 l 1
 1159 1108 l 1
 360 1108 l 1
 360 819 l 1
EndSplineSet
EndChar

StartChar: I
Encoding: 73 73 51
Width: 767
VWidth: 0
Flags: HW
VStem: 100 568
LayerCount: 2
UndoRedoHistory
Layer: 0
Undoes
EndUndoes
Redoes
EndRedoes
EndUndoRedoHistory
UndoRedoHistory
Layer: 1
Undoes
EndUndoes
Redoes
EndRedoes
EndUndoRedoHistory
Fore
SplineSet
100 1437 m 1
 100 1320 l 1
 343 1320 l 1
 288 1368 l 1
 288 63 l 1
 346 117 l 1
 100 117 l 1
 100 0 l 1
 668 0 l 1
 668 117 l 1
 421 117 l 1
 482 64 l 1
 482 1368 l 1
 424 1320 l 1
 668 1320 l 1
 668 1437 l 1
 100 1437 l 1
EndSplineSet
EndChar

StartChar: J
Encoding: 74 74 62
Width: 749
VWidth: 0
Flags: HW
HStem: -177 156<111.34 286.037>
VStem: 383 194<85.9457 294>
LayerCount: 2
UndoRedoHistory
Layer: 0
Undoes
EndUndoes
Redoes
EndRedoes
EndUndoRedoHistory
Back
SplineSet
28.33984375 -177 m 5
 142.33984375 -177 l 6
 452.33984375 -177 578.33984375 10 578.33984375 284 c 6
 578.33984375 1437 l 5
 383.33984375 1437 l 5
 383.33984375 294 l 6
 383.33984375 114 337.33984375 -21 111.33984375 -21 c 6
 16.33984375 -21 l 5
 28.33984375 -177 l 5
EndSplineSet
UndoRedoHistory
Layer: 1
Undoes
EndUndoes
Redoes
EndRedoes
EndUndoRedoHistory
Fore
SplineSet
28 -177 m 5
 142 -177 l 6
 452 -177 577 10 577 284 c 6
 577 1437 l 5
 383 1437 l 5
 383 294 l 6
 383 114 337 -21 111 -21 c 6
 16 -21 l 5
 28 -177 l 5
EndSplineSet
EndChar

StartChar: K
Encoding: 75 75 64
Width: 1298
VWidth: 0
Flags: HW
LayerCount: 2
UndoRedoHistory
Layer: 0
Undoes
EndUndoes
Redoes
EndRedoes
EndUndoRedoHistory
UndoRedoHistory
Layer: 1
Undoes
EndUndoes
Redoes
EndRedoes
EndUndoRedoHistory
Fore
SplineSet
174 0 m 1
 368 0 l 1
 368 647 l 1
 319 534 l 1
 548 742 l 1
 463 748 l 1
 1038 0 l 1
 1264 0 l 1
 603 853 l 1
 603 752 l 1
 1233 1437 l 1
 1007 1437 l 1
 316 701 l 1
 368 691 l 1
 368 1437 l 1
 174 1437 l 1
 174 0 l 1
EndSplineSet
EndChar

StartChar: L
Encoding: 76 76 66
Width: 1088
VWidth: 0
Flags: HW
LayerCount: 2
UndoRedoHistory
Layer: 0
Undoes
EndUndoes
Redoes
EndRedoes
EndUndoRedoHistory
UndoRedoHistory
Layer: 1
Undoes
EndUndoes
Redoes
EndRedoes
EndUndoRedoHistory
Fore
SplineSet
174 0 m 1
 1031 0 l 1
 1037 147 l 1
 295 147 l 1
 368 72 l 1
 368 1437 l 1
 174 1437 l 1
 174 0 l 1
EndSplineSet
EndChar

StartChar: Lambda
Encoding: 312 923 68
Width: 1396
VWidth: 0
Flags: HW
LayerCount: 2
UndoRedoHistory
Layer: 0
Undoes
EndUndoes
Redoes
EndRedoes
EndUndoRedoHistory
UndoRedoHistory
Layer: 1
Undoes
EndUndoes
Redoes
EndRedoes
EndUndoRedoHistory
Fore
SplineSet
89 0 m 1
 620 1445 l 1
 798 1445 l 1
 1330 0 l 1
 1156 0 l 1
 709 1262 l 1
 268 0 l 1
 89 0 l 1
EndSplineSet
EndChar

StartChar: M
Encoding: 77 77 73
Width: 1788
VWidth: 0
Flags: HW
VStem: 157 184<0 686.694> 187 167<750.306 1267> 318 36<1235.2 1267> 1437 164<772.457 1267> 1437 41<1235.77 1267> 1450 182<0 664.543>
LayerCount: 2
UndoRedoHistory
Layer: 0
Undoes
EndUndoes
Redoes
EndRedoes
EndUndoRedoHistory
UndoRedoHistory
Layer: 1
Undoes
EndUndoes
Redoes
EndRedoes
EndUndoRedoHistory
Fore
SplineSet
157 0 m 1x80
 341 0 l 1x80
 354 845 l 1
 354 1267 l 1x40
 318 1267 l 1
 813 169 l 1
 974 169 l 1
 1478 1267 l 1x28
 1437 1267 l 1
 1437 849 l 1x10
 1450 0 l 1
 1632 0 l 1x04
 1601 1437 l 1
 1380 1437 l 1
 858 291 l 1
 934 291 l 1
 415 1437 l 1
 187 1437 l 1x50
 157 0 l 1x80
EndSplineSet
EndChar

StartChar: N
Encoding: 78 78 75
Width: 1520
VWidth: 0
Flags: HW
VStem: 174 183<713 1157.42>
LayerCount: 2
UndoRedoHistory
Layer: 0
Undoes
EndUndoes
Redoes
EndRedoes
EndUndoRedoHistory
UndoRedoHistory
Layer: 1
Undoes
EndUndoes
Redoes
EndRedoes
EndUndoRedoHistory
Fore
SplineSet
174 0 m 1
 357 0 l 1
 357 713 l 1
 339 1271 l 1
 294 1258 l 1
 1144 0 l 1
 1347 0 l 1
 1347 1437 l 1
 1165 1437 l 1
 1165 660 l 1
 1178 166 l 1
 1223 169 l 1
 370 1437 l 1
 174 1437 l 1
 174 0 l 1
EndSplineSet
EndChar

StartChar: O
Encoding: 79 79 80
Width: 1613
VWidth: 0
Flags: HW
HStem: -19 153<593.981 1022.16> 1302 154<597.966 1019.41>
VStem: 116 195<441.927 987.562> 1303 194<442.891 986.482>
LayerCount: 2
UndoRedoHistory
Layer: 0
Undoes
EndUndoes
Redoes
EndRedoes
EndUndoRedoHistory
UndoRedoHistory
Layer: 1
Undoes
EndUndoes
Redoes
EndRedoes
EndUndoRedoHistory
Fore
SplineSet
808 134 m 0
 474 134 311 373 311 711 c 0
 311 1063 483 1302 809 1302 c 0
 1135 1302 1303 1061 1303 711 c 0
 1303 373 1142 134 808 134 c 0
809 -19 m 0
 1247 -19 1497 274 1497 710 c 0
 1497 1162 1237 1456 810 1456 c 0
 376 1456 116 1164 116 711 c 0
 116 268 367 -19 809 -19 c 0
EndSplineSet
EndChar

StartChar: OE
Encoding: 322 338 81
Width: 1944
VWidth: 0
Flags: HW
HStem: -19 153<598.425 972.886> 1302 154<602.176 973.143>
VStem: 116 195<441.927 987.562>
LayerCount: 2
UndoRedoHistory
Layer: 0
Undoes
EndUndoes
Redoes
EndRedoes
EndUndoRedoHistory
UndoRedoHistory
Layer: 1
Undoes
EndUndoes
Redoes
EndRedoes
EndUndoRedoHistory
Fore
SplineSet
974 0 m 1
 1856 0 l 1
 1868 147 l 1
 1110 147 l 1
 1168 89 l 1
 1168 728 l 1
 1110 673 l 1
 1800 673 l 1
 1800 818 l 1
 1110 818 l 1
 1168 762 l 1
 1168 1347 l 1
 1111 1293 l 1
 1857 1293 l 1
 1864 1437 l 1
 974 1437 l 1
 974 0 l 1
1046 1422 m 1
 975 1445 896 1456 810 1456 c 0
 376 1456 116 1164 116 711 c 0
 116 268 367 -19 809 -19 c 0
 904 -19 990 -5 1067 21 c 1
 1067 197 l 1
 997 156 911 134 808 134 c 0
 474 134 311 373 311 711 c 0
 311 1063 483 1302 809 1302 c 0
 901 1302 980 1283 1046 1248 c 1
 1046 1422 l 1
EndSplineSet
EndChar

StartChar: Omega
Encoding: 331 937 90
Width: 1563
VWidth: 0
Flags: HW
LayerCount: 2
UndoRedoHistory
Layer: 0
Undoes
EndUndoes
Redoes
EndRedoes
EndUndoRedoHistory
UndoRedoHistory
Layer: 1
Undoes
EndUndoes
Redoes
EndRedoes
EndUndoRedoHistory
Fore
SplineSet
795 164 m 0
 1095 164 1254 392 1254 711 c 0
 1254 1040 1090 1267 795 1267 c 0
 500 1267 334 1041 334 711 c 0
 334 392 495 164 795 164 c 0
795 -20 m 0
 363 -20 101 264 101 713 c 0
 101 1170 368 1452 795 1452 c 0
 1217 1452 1488 1168 1488 712 c 0
 1488 267 1224 -20 795 -20 c 0
EndSplineSet
EndChar

StartChar: Oslash
Encoding: 332 216 91
Width: 1583
VWidth: 0
Flags: HW
LayerCount: 2
UndoRedoHistory
Layer: 0
Undoes
EndUndoes
Redoes
EndRedoes
EndUndoRedoHistory
UndoRedoHistory
Layer: 1
Undoes
EndUndoes
Redoes
EndRedoes
EndUndoRedoHistory
Fore
SplineSet
503 -229 m 1
 1226 1619 l 1
 1119 1659 l 1
 402 -194 l 1
 503 -229 l 1
EndSplineSet
Refer: 80 79 N 1 0 0 1 -16 0 2
EndChar

StartChar: P
Encoding: 80 80 94
Width: 1232
VWidth: 0
Flags: HW
HStem: 676 149<667.72 873.457> 1293 144<676.72 880.547>
VStem: 965 194<906.333 1213.18>
LayerCount: 2
UndoRedoHistory
Layer: 0
Undoes
EndUndoes
Redoes
EndRedoes
EndUndoRedoHistory
UndoRedoHistory
Layer: 1
Undoes
EndUndoes
Redoes
EndRedoes
EndUndoRedoHistory
Fore
SplineSet
174 0 m 1
 368 0 l 1
 368 734 l 1
 307 676 l 1
 675 676 l 2
 1023 676 1159 823 1159 1077 c 0
 1159 1346 955 1437 678 1437 c 2
 174 1437 l 1
 174 0 l 1
668 825 m 2
 307 825 l 1
 368 772 l 1
 368 1351 l 1
 307 1293 l 1
 677 1293 l 2
 856 1293 965 1240 965 1074 c 0
 965 891 886 825 668 825 c 2
EndSplineSet
EndChar

StartChar: Phi
Encoding: 335 934 95
Width: 1589
VWidth: 0
Flags: HW
LayerCount: 2
UndoRedoHistory
Layer: 0
Undoes
EndUndoes
Redoes
EndRedoes
EndUndoRedoHistory
UndoRedoHistory
Layer: 1
Undoes
EndUndoes
Redoes
EndRedoes
EndUndoRedoHistory
Fore
SplineSet
719 0 m 1
 719 165 l 1
 312 195 100 435 100 746 c 0
 100 1063 326 1285 719 1313 c 1
 719 1445 l 1
 889 1445 l 1
 889 1313 l 1
 1287 1286 1512 1064 1512 746 c 0
 1512 433 1299 193 889 165 c 1
 889 0 l 1
 719 0 l 1
719 313 m 1
 719 1166 l 1
 429 1139 282 977 282 746 c 0
 282 523 416 342 719 313 c 1
889 313 m 1
 1195 341 1330 522 1330 746 c 0
 1330 977 1184 1140 889 1166 c 1
 889 313 l 1
EndSplineSet
EndChar

StartChar: Pi
Encoding: 336 928 96
Width: 1360
VWidth: 0
Flags: HW
LayerCount: 2
UndoRedoHistory
Layer: 0
Undoes
EndUndoes
Redoes
EndRedoes
EndUndoRedoHistory
UndoRedoHistory
Layer: 1
Undoes
EndUndoes
Redoes
EndRedoes
EndUndoRedoHistory
Fore
SplineSet
125 0 m 1
 125 1445 l 1
 1258 1445 l 1
 1258 0 l 1
 1088 0 l 1
 1088 1299 l 1
 296 1299 l 1
 296 0 l 1
 125 0 l 1
EndSplineSet
EndChar

StartChar: Q
Encoding: 81 81 97
Width: 1612
VWidth: 0
Flags: HW
LayerCount: 2
UndoRedoHistory
Layer: 0
Undoes
EndUndoes
Redoes
EndRedoes
EndUndoRedoHistory
UndoRedoHistory
Layer: 1
Undoes
EndUndoes
Redoes
EndRedoes
EndUndoRedoHistory
Fore
SplineSet
1232 -439 m 1
 1343 -337 l 1
 1248 -240 1126 -68 1076 31 c 1
 917 -1 l 1
 1004 -168 1155 -371 1232 -439 c 1
EndSplineSet
Refer: 80 79 N 1 0 0 1 -16 0 2
EndChar

StartChar: R
Encoding: 82 82 98
Width: 1370
VWidth: 0
Flags: HW
HStem: 722 96 1355 94
VStem: 1094 117
LayerCount: 2
UndoRedoHistory
Layer: 0
Undoes
EndUndoes
Redoes
EndRedoes
EndUndoRedoHistory
UndoRedoHistory
Layer: 1
Undoes
EndUndoes
Redoes
EndRedoes
EndUndoRedoHistory
Fore
SplineSet
174 0 m 1
 368 0 l 1
 368 718 l 1
 307 672 l 1
 862 672 l 1
 765 728 l 1
 888 442 l 1
 1076 0 l 1
 1278 0 l 1
 1055 498 l 1
 937 775 l 1
 925 687 l 1
 1107 729 1220 831 1220 1061 c 0
 1220 1327 1064 1437 758 1437 c 2
 174 1437 l 1
 174 0 l 1
368 755 m 1
 368 1349 l 1
 308 1293 l 1
 762 1293 l 2
 968 1293 1029 1209 1029 1058 c 0
 1029 880 978 809 735 809 c 2
 307 809 l 1
 368 755 l 1
EndSplineSet
EndChar

StartChar: S
Encoding: 83 83 102
Width: 1176
VWidth: 0
Flags: HW
HStem: -19 153<343.579 796.002> 1302 154<421.203 837.348>
VStem: 142 180<953.511 1214.9> 898 179<237.347 528.298>
LayerCount: 2
UndoRedoHistory
Layer: 0
Undoes
EndUndoes
Redoes
EndRedoes
EndUndoRedoHistory
UndoRedoHistory
Layer: 1
Undoes
EndUndoes
Redoes
EndRedoes
EndUndoRedoHistory
Fore
SplineSet
583 -19 m 0
 859 -19 1067 95 1077 380 c 0
 1085 625 938 713 723 792 c 1
 494 879 l 1
 366 928 322 971 322 1087 c 0
 322 1250 465 1302 620 1302 c 0
 777 1302 905 1229 961 1200 c 1
 1029 1336 l 1
 940 1398 788 1456 623 1456 c 0
 378 1456 142 1356 142 1078 c 0
 142 879 255 789 435 722 c 2
 674 634 l 1
 844 569 902 514 898 379 c 0
 892 203 785 134 590 134 c 0
 415 134 281 194 190 259 c 1
 126 117 l 1
 205 63 344 -19 583 -19 c 0
EndSplineSet
EndChar

StartChar: Sigma
Encoding: 345 931 108
Width: 1087
VWidth: 0
Flags: HW
LayerCount: 2
UndoRedoHistory
Layer: 0
Undoes
EndUndoes
Redoes
EndRedoes
EndUndoRedoHistory
UndoRedoHistory
Layer: 1
Undoes
EndUndoes
Redoes
EndRedoes
EndUndoRedoHistory
Fore
SplineSet
125 0 m 1
 125 1429 l 1
 990 1429 l 1
 983 1282 l 1
 304 1282 l 1
 304 813 l 1
 927 813 l 1
 927 668 l 1
 304 668 l 1
 304 148 l 1
 990 148 l 1
 982 0 l 1
 125 0 l 1
EndSplineSet
EndChar

StartChar: T
Encoding: 84 84 109
Width: 1148
VWidth: 0
Flags: HW
LayerCount: 2
UndoRedoHistory
Layer: 0
Undoes
EndUndoes
Redoes
EndRedoes
EndUndoRedoHistory
UndoRedoHistory
Layer: 1
Undoes
EndUndoes
Redoes
EndRedoes
EndUndoRedoHistory
Fore
SplineSet
475 0 m 5
 670 0 l 5
 670 1354 l 5
 613 1288 l 5
 1102 1288 l 5
 1102 1437 l 5
 46 1437 l 5
 46 1288 l 5
 532 1288 l 5
 475 1353 l 5
 475 0 l 5
EndSplineSet
EndChar

StartChar: U
Encoding: 85 85 114
Width: 1444
VWidth: 0
Flags: HW
LayerCount: 2
UndoRedoHistory
Layer: 0
Undoes
EndUndoes
Redoes
EndRedoes
EndUndoRedoHistory
UndoRedoHistory
Layer: 1
Undoes
EndUndoes
Redoes
EndRedoes
EndUndoRedoHistory
Fore
SplineSet
723 -19 m 0
 1104 -19 1302 207 1302 524 c 2
 1302 1437 l 1
 1108 1437 l 1
 1108 532 l 2
 1108 273 976 136 723 136 c 0
 463 136 337 273 337 532 c 2
 337 1437 l 1
 143 1437 l 1
 143 526 l 2
 143 201 338 -19 723 -19 c 0
EndSplineSet
EndChar

StartChar: V
Encoding: 86 86 127
Width: 1362
VWidth: 0
Flags: HW
LayerCount: 2
UndoRedoHistory
Layer: 0
Undoes
EndUndoes
Redoes
EndRedoes
EndUndoRedoHistory
UndoRedoHistory
Layer: 1
Undoes
EndUndoes
Redoes
EndRedoes
EndUndoRedoHistory
Fore
SplineSet
590 0 m 1
 772 0 l 1
 1302 1437 l 1
 1101 1437 l 1
 789 539 l 1
 651 138 l 1
 714 138 l 1
 576 535 l 1
 263 1437 l 1
 60 1437 l 1
 590 0 l 1
EndSplineSet
EndChar

StartChar: W
Encoding: 87 87 128
Width: 2040
VWidth: 0
Flags: HW
LayerCount: 2
UndoRedoHistory
Layer: 0
Undoes
EndUndoes
Redoes
EndRedoes
EndUndoRedoHistory
UndoRedoHistory
Layer: 1
Undoes
EndUndoes
Redoes
EndRedoes
EndUndoRedoHistory
Fore
SplineSet
478 0 m 1
 662 0 l 1
 1048 1253 l 1
 999 1253 l 1
 1373 0 l 1
 1560 0 l 1
 1994 1437 l 1
 1806 1437 l 1
 1445 178 l 1
 1485 178 l 1
 1113 1409 l 1
 929 1409 l 1
 554 177 l 1
 595 177 l 1
 233 1437 l 1
 47 1437 l 1
 478 0 l 1
EndSplineSet
EndChar

StartChar: X
Encoding: 88 88 133
Width: 1342
VWidth: 0
Flags: HW
LayerCount: 2
UndoRedoHistory
Layer: 0
Undoes
EndUndoes
Redoes
EndRedoes
EndUndoRedoHistory
UndoRedoHistory
Layer: 1
Undoes
EndUndoes
Redoes
EndRedoes
EndUndoRedoHistory
Fore
SplineSet
101 0 m 1
 293 0 l 1
 685 607 l 1
 771 698 l 1
 1242 1437 l 1
 1047 1437 l 1
 678 845 l 1
 582 746 l 1
 101 0 l 1
1056 0 m 1
 1251 0 l 1
 299 1437 l 1
 105 1437 l 1
 1056 0 l 1
EndSplineSet
EndChar

StartChar: Y
Encoding: 89 89 134
Width: 1245
VWidth: 0
Flags: HW
LayerCount: 2
UndoRedoHistory
Layer: 0
Undoes
EndUndoes
Redoes
EndRedoes
EndUndoRedoHistory
UndoRedoHistory
Layer: 1
Undoes
EndUndoes
Redoes
EndRedoes
EndUndoRedoHistory
Fore
SplineSet
541 0 m 1
 728 0 l 1
 728 661 l 1
 683 495 l 1
 1197 1437 l 1
 1004 1437 l 1
 602 680 l 1
 666 680 l 1
 245 1437 l 1
 50 1437 l 1
 592 485 l 1
 541 659 l 1
 541 0 l 1
EndSplineSet
EndChar

StartChar: Z
Encoding: 90 90 139
Width: 1190
VWidth: 0
Flags: HW
LayerCount: 2
UndoRedoHistory
Layer: 0
Undoes
EndUndoes
Redoes
EndRedoes
EndUndoRedoHistory
UndoRedoHistory
Layer: 1
Undoes
EndUndoes
Redoes
EndRedoes
EndUndoRedoHistory
Fore
SplineSet
128 0 m 1
 1082 0 l 1
 1088 147 l 1
 289 147 l 1
 316 84 l 1
 1081 1306 l 1
 1075 1437 l 1
 157 1437 l 1
 157 1293 l 1
 932 1293 l 1
 896 1348 l 1
 128 132 l 1
 128 0 l 1
EndSplineSet
EndChar

StartChar: a
Encoding: 97 97 143
Width: 1093
VWidth: 0
Flags: HW
HStem: -17 132<322.534 629.232> 515 117<377.344 626.76> 947 135<281.798 698.415>
VStem: 100 172<167.315 427.012> 776 178<698 868.035> 823 131<1 87.016>
LayerCount: 2
UndoRedoHistory
Layer: 0
Undoes
EndUndoes
Redoes
EndRedoes
EndUndoRedoHistory
UndoRedoHistory
Layer: 1
Undoes
EndUndoes
Redoes
EndRedoes
EndUndoRedoHistory
Fore
SplineSet
432 -17 m 0xf8
 569 -17 726 34 832 190 c 1
 789 205 l 1
 823 1 l 1
 954 1 l 1xf4
 954 698 l 2
 954 981 782 1082 540 1082 c 0
 417 1082 266 1047 157 995 c 1
 202 871 l 1
 303 918 435 947 538 947 c 0
 695 947 776 871 776 723 c 2
 776 602 l 1
 812 639 l 1
 578 632 l 1
 253 623 100 514 100 286 c 0
 100 87 242 -17 432 -17 c 0xf8
449 115 m 0
 356 115 272 170 272 287 c 0
 272 436 347 508 627 515 c 2
 806 520 l 1
 775 555 l 1
 775 236 l 1
 811 339 l 1
 738 198 598 115 449 115 c 0
EndSplineSet
EndChar

StartChar: acute
Encoding: 376 180 147
Width: 579
VWidth: 0
Flags: HW
HStem: 1178 375
LayerCount: 2
UndoRedoHistory
Layer: 0
Undoes
EndUndoes
Redoes
EndRedoes
EndUndoRedoHistory
UndoRedoHistory
Layer: 1
Undoes
EndUndoes
Redoes
EndRedoes
EndUndoRedoHistory
Fore
SplineSet
104 1178 m 1
 210 1178 l 1
 505 1553 l 1
 284 1553 l 1
 104 1178 l 1
EndSplineSet
EndChar

StartChar: ae
Encoding: 378 230 149
Width: 1685
VWidth: 0
Flags: HW
HStem: -14 98 518 82 983 92
VStem: 111 119 802 117 802 82 1541 98
LayerCount: 2
UndoRedoHistory
Layer: 0
Undoes
EndUndoes
Redoes
EndRedoes
EndUndoRedoHistory
UndoRedoHistory
Layer: 1
Undoes
EndUndoes
Redoes
EndRedoes
EndUndoRedoHistory
Fore
SplineSet
416 -16 m 0
 589 -16 778 61 865 157 c 1
 942 45 1058 -19 1228 -19 c 0
 1389 -19 1492 18 1587 80 c 1
 1535 195 l 1
 1437 142 1355 115 1245 115 c 0
 1053 116 930 222 920 488 c 1
 1463 488 1607 584 1607 778 c 0
 1607 930 1497 1085 1231 1085 c 0
 1074 1085 913 1000 864 855 c 1
 840 1018 709 1085 533 1085 c 0
 395 1085 231 1044 141 993 c 1
 194 871 l 1
 277 912 420 951 532 951 c 1
 694 949 752 868 752 722 c 2
 752 609 l 1
 597 609 l 2
 265 609 93 524 93 302 c 0
 93 92 233 -16 416 -16 c 0
440 115 m 0
 331 115 260 173 260 303 c 0
 260 427 335 490 603 490 c 2
 754 490 l 1
 756 414 773 322 797 265 c 1
 711 178 557 115 440 115 c 0
923 606 m 1
 945 839 1074 959 1243 959 c 0
 1390 959 1466 880 1466 779 c 0
 1466 649 1313 606 923 606 c 1
EndSplineSet
EndChar

StartChar: ampersand
Encoding: 38 38 153
Width: 1391
VWidth: 0
Flags: HW
HStem: -19 96 1372 96
VStem: 113 121 290 105 895 110
LayerCount: 2
UndoRedoHistory
Layer: 0
Undoes
EndUndoes
Redoes
EndRedoes
EndUndoRedoHistory
UndoRedoHistory
Layer: 1
Undoes
EndUndoes
Redoes
EndRedoes
EndUndoRedoHistory
Fore
SplineSet
630 -18 m 0
 826 -18 905 18 1030 111 c 1
 1158 -18 l 1
 1313 45 l 1
 1143 219 l 1
 1210 289 1288 410 1326 495 c 1
 1203 576 l 1
 1168 497 1100 383 1046 326 c 1
 650 766 l 1
 835 855 992 984 992 1154 c 0
 992 1354 839 1456 641 1456 c 0
 424 1456 260 1333 260 1140 c 0
 260 1014 321 903 423 794 c 1
 266 703 132 585 132 375 c 0
 132 127 317 -18 630 -18 c 0
640 121 m 0
 434 121 306 215 306 384 c 0
 306 520 389 621 511 692 c 1
 934 220 l 1
 849 151 775 121 640 121 c 0
565 865 m 1
 459 966 421 1057 421 1152 c 0
 421 1264 525 1327 644 1327 c 0
 766 1327 830 1268 830 1155 c 0
 830 1032 699 930 565 865 c 1
EndSplineSet
EndChar

StartChar: approxequal
Encoding: 383 8776 155
Width: 1196
VWidth: 0
Flags: HW
LayerCount: 2
UndoRedoHistory
Layer: 0
Undoes
EndUndoes
Redoes
EndRedoes
EndUndoRedoHistory
UndoRedoHistory
Layer: 1
Undoes
EndUndoes
Redoes
EndRedoes
EndUndoRedoHistory
Fore
SplineSet
107 457 m 1
 137 624 231 724 385 724 c 0
 475 724 559 682 637 637 c 0
 714 593 779 552 840 552 c 0
 925 552 979 614 1014 724 c 1
 1109 695 l 1
 1080 535 1005 428 837 428 c 0
 757 428 677 461 567 527 c 1
 501 569 443 599 385 599 c 0
 287 599 232 531 202 426 c 1
 107 457 l 1
104 534 m 1
 134 698 233 800 386 800 c 0
 472 800 547 764 637 710 c 0
 726 657 783 628 838 628 c 0
 923 628 977 689 1012 800 c 1
 1107 773 l 1
 1077 613 1000 507 836 507 c 0
 753 507 675 540 566 607 c 0
 500 649 441 677 383 677 c 0
 284 677 230 610 202 506 c 1
 104 534 l 1
EndSplineSet
EndChar

StartChar: asciicircum
Encoding: 94 94 158
Width: 1194
VWidth: 0
Flags: HW
LayerCount: 2
UndoRedoHistory
Layer: 0
Undoes
EndUndoes
Redoes
EndRedoes
EndUndoRedoHistory
UndoRedoHistory
Layer: 1
Undoes
EndUndoes
Redoes
EndRedoes
EndUndoRedoHistory
Fore
SplineSet
117 570 m 1
 546 1466 l 1
 643 1466 l 1
 1096 570 l 1
 955 570 l 1
 596 1290 l 1
 256 570 l 1
 117 570 l 1
EndSplineSet
EndChar

StartChar: asciitilde
Encoding: 126 126 159
Width: 1150
VWidth: 0
Flags: HW
LayerCount: 2
UndoRedoHistory
Layer: 0
Undoes
EndUndoes
Redoes
EndRedoes
EndUndoRedoHistory
UndoRedoHistory
Layer: 1
Undoes
EndUndoes
Redoes
EndRedoes
EndUndoRedoHistory
Fore
SplineSet
138 486 m 1
 90 587 l 1
 135 694 222 779 352 779 c 0
 432 779 492 756 589 713 c 1
 682 673 759 637 818 637 c 0
 898 637 975 704 1019 788 c 1
 1072 694 l 1
 1023 577 939 499 814 499 c 0
 742 499 670 527 588 564 c 0
 489 608 417 641 348 641 c 0
 261 641 183 570 138 486 c 1
EndSplineSet
EndChar

StartChar: asterisk
Encoding: 42 42 160
Width: 1121
VWidth: 0
Flags: HW
LayerCount: 2
UndoRedoHistory
Layer: 0
Undoes
EndUndoes
Redoes
EndRedoes
EndUndoRedoHistory
UndoRedoHistory
Layer: 1
Undoes
EndUndoes
Redoes
EndRedoes
EndUndoRedoHistory
Fore
SplineSet
373 551 m 1
 226 641 l 1
 466 963 l 1
 114 1044 l 1
 161 1209 l 1
 508 1063 l 1
 473 1460 l 1
 649 1460 l 1
 613 1063 l 1
 962 1209 l 1
 1009 1044 l 1
 652 963 l 1
 692 909 814 748 898 641 c 1
 846 609 804 583 752 551 c 1
 556 900 l 1
 373 551 l 1
EndSplineSet
EndChar

StartChar: at
Encoding: 64 64 161
Width: 1902
VWidth: 0
Flags: HW
LayerCount: 2
UndoRedoHistory
Layer: 0
Undoes
EndUndoes
Redoes
EndRedoes
EndUndoRedoHistory
UndoRedoHistory
Layer: 1
Undoes
EndUndoes
Redoes
EndRedoes
EndUndoRedoHistory
Fore
SplineSet
930 -183 m 0
 1124 -183 1310 -139 1441 -51 c 1
 1400 50 l 1
 1265 -27 1100 -69 933 -69 c 0
 526 -69 271 202 271 612 c 0
 271 1028 560 1358 993 1358 c 0
 1402 1358 1642 1094 1642 760 c 0
 1642 502 1528 335 1389 335 c 0
 1302 335 1254 405 1254 496 c 0
 1254 621 1292 808 1320 1011 c 1
 1233 1048 1107 1077 1009 1077 c 0
 725 1077 566 836 566 577 c 0
 566 369 672 226 865 226 c 0
 1043 226 1147 400 1188 552 c 1
 1140 552 l 1
 1152 345 1230 234 1391 234 c 0
 1564 234 1767 410 1767 752 c 0
 1767 1197 1431 1475 998 1475 c 0
 495 1475 133 1109 133 613 c 0
 133 116 453 -183 930 -183 c 0
881 333 m 0
 768 333 704 413 704 576 c 0
 704 779 822 975 1015 975 c 0
 1068 975 1189 952 1228 938 c 1
 1174 1018 l 1
 1170 980 1128 733 1123 696 c 0
 1094 496 1035 333 881 333 c 0
EndSplineSet
EndChar

StartChar: b
Encoding: 98 98 163
Width: 1205
VWidth: 0
Flags: HW
HStem: -19 138<478.56 787.475> 944 138<481.498 791.784>
VStem: 146 182<284.771 787.794> 146 149<0 162.059> 929 181<279.662 783.354>
LayerCount: 2
UndoRedoHistory
Layer: 0
Undoes
EndUndoes
Redoes
EndRedoes
EndUndoRedoHistory
UndoRedoHistory
Layer: 1
Undoes
EndUndoes
Redoes
EndRedoes
EndUndoRedoHistory
Fore
SplineSet
657 -19 m 0xd8
 948 -19 1110 201 1110 530 c 0
 1110 858 959 1082 664 1082 c 0
 494 1082 358 978 294 848 c 1
 326 841 l 1
 328 1086 l 1
 328 1468 l 1xe8
 146 1455 l 1
 146 0 l 1
 295 0 l 1
 318 260 l 1
 271 251 l 1
 320 134 452 -19 657 -19 c 0xd8
633 119 m 0
 444 119 324 259 324 546 c 0
 324 792 428 944 641 944 c 0
 844 944 929 781 929 530 c 0
 929 272 834 119 633 119 c 0
EndSplineSet
EndChar

StartChar: backslash
Encoding: 92 92 164
Width: 879
VWidth: 0
Flags: HW
LayerCount: 2
UndoRedoHistory
Layer: 0
Undoes
EndUndoes
Redoes
EndRedoes
EndUndoRedoHistory
UndoRedoHistory
Layer: 1
Undoes
EndUndoes
Redoes
EndRedoes
EndUndoRedoHistory
Fore
SplineSet
638 -36 m 1
 106 1431 l 1
 252 1431 l 1
 783 -36 l 1
 638 -36 l 1
EndSplineSet
EndChar

StartChar: bar
Encoding: 124 124 165
Width: 341
VWidth: 0
Flags: HW
LayerCount: 2
UndoRedoHistory
Layer: 0
Undoes
EndUndoes
Redoes
EndRedoes
EndUndoRedoHistory
UndoRedoHistory
Layer: 1
Undoes
EndUndoes
Redoes
EndRedoes
EndUndoRedoHistory
Fore
SplineSet
109 -352 m 1
 109 1547 l 1
 245 1547 l 1
 245 -352 l 1
 109 -352 l 1
EndSplineSet
EndChar

StartChar: braceleft
Encoding: 123 123 166
Width: 728
VWidth: 0
Flags: HW
LayerCount: 2
UndoRedoHistory
Layer: 0
Undoes
EndUndoes
Redoes
EndRedoes
EndUndoRedoHistory
UndoRedoHistory
Layer: 1
Undoes
EndUndoes
Redoes
EndRedoes
EndUndoRedoHistory
Fore
SplineSet
627 -271 m 1
 388 -271 291 -161 291 59 c 2
 291 256 l 2
 291 423 267 532 82 534 c 1
 82 674 l 1
 266 674 291 785 291 950 c 2
 291 1187 l 2
 291 1386 407 1486 627 1487 c 1
 627 1352 l 1
 487 1350 444 1296 444 1133 c 2
 444 876 l 2
 443 730 396 651 266 600 c 1
 394 563 444 488 444 337 c 2
 444 80 l 2
 444 -79 484 -138 627 -140 c 1
 627 -271 l 1
EndSplineSet
EndChar

StartChar: braceright
Encoding: 125 125 167
Width: 728
VWidth: 0
Flags: HW
LayerCount: 2
UndoRedoHistory
Layer: 0
Undoes
EndUndoes
Redoes
EndRedoes
EndUndoRedoHistory
UndoRedoHistory
Layer: 1
Undoes
EndUndoes
Redoes
EndRedoes
EndUndoRedoHistory
Fore
SplineSet
94 -271 m 1
 94 -138 l 1
 234 -136 275 -84 275 80 c 2
 275 338 l 2
 275 461 319 553 454 611 c 1
 324 652 276 762 275 877 c 2
 275 1133 l 2
 275 1292 237 1353 94 1355 c 1
 94 1487 l 1
 333 1487 429 1377 429 1154 c 2
 429 954 l 2
 429 787 450 679 638 677 c 1
 638 538 l 1
 456 538 429 426 429 260 c 2
 429 27 l 2
 429 -172 317 -270 94 -271 c 1
EndSplineSet
EndChar

StartChar: bracketleft
Encoding: 91 91 168
Width: 651
VWidth: 0
Flags: HW
LayerCount: 2
UndoRedoHistory
Layer: 0
Undoes
EndUndoes
Redoes
EndRedoes
EndUndoRedoHistory
UndoRedoHistory
Layer: 1
Undoes
EndUndoes
Redoes
EndRedoes
EndUndoRedoHistory
Fore
SplineSet
167 -229 m 1
 167 1472 l 1
 604 1472 l 1
 604 1343 l 1
 329 1343 l 1
 329 -102 l 1
 604 -102 l 1
 604 -229 l 1
 167 -229 l 1
EndSplineSet
EndChar

StartChar: bracketright
Encoding: 93 93 169
Width: 652
VWidth: 0
Flags: HW
LayerCount: 2
UndoRedoHistory
Layer: 0
Undoes
EndUndoes
Redoes
EndRedoes
EndUndoRedoHistory
UndoRedoHistory
Layer: 1
Undoes
EndUndoes
Redoes
EndRedoes
EndUndoRedoHistory
Fore
SplineSet
64 -229 m 1
 64 -102 l 1
 340 -102 l 1
 340 1343 l 1
 64 1343 l 1
 64 1472 l 1
 502 1472 l 1
 502 -229 l 1
 64 -229 l 1
EndSplineSet
EndChar

StartChar: breve
Encoding: 387 728 170
Width: 686
VWidth: 0
Flags: HW
HStem: 1258 108<238.178 444.76>
VStem: 102 113<1392.35 1494> 470 112<1392.35 1494>
LayerCount: 2
UndoRedoHistory
Layer: 0
Undoes
EndUndoes
Redoes
EndRedoes
EndUndoRedoHistory
UndoRedoHistory
Layer: 1
Undoes
EndUndoes
Redoes
EndRedoes
EndUndoRedoHistory
Fore
SplineSet
340 1258 m 0
 470 1258 582 1327 582 1494 c 1
 470 1494 l 1
 470 1402 410 1366 340 1366 c 0
 270 1366 215 1402 215 1494 c 1
 102 1494 l 1
 102 1327 211 1258 340 1258 c 0
EndSplineSet
EndChar

StartChar: brokenbar
Encoding: 388 166 171
Width: 353
VWidth: 0
Flags: HW
LayerCount: 2
UndoRedoHistory
Layer: 0
Undoes
EndUndoes
Redoes
EndRedoes
EndUndoRedoHistory
UndoRedoHistory
Layer: 1
Undoes
EndUndoes
Redoes
EndRedoes
EndUndoRedoHistory
Fore
SplineSet
115 -241 m 1
 115 445 l 1
 251 445 l 1
 251 -241 l 1
 115 -241 l 1
115 762 m 1
 115 1445 l 1
 251 1445 l 1
 251 762 l 1
 115 762 l 1
EndSplineSet
EndChar

StartChar: bullet
Encoding: 389 8226 172
Width: 808
VWidth: 0
Flags: HW
LayerCount: 2
UndoRedoHistory
Layer: 0
Undoes
EndUndoes
Redoes
EndRedoes
EndUndoRedoHistory
UndoRedoHistory
Layer: 1
Undoes
EndUndoes
Redoes
EndRedoes
EndUndoRedoHistory
Fore
SplineSet
412 402 m 0
 244 402 97 521 97 723 c 0
 97 927 248 1049 417 1049 c 0
 585 1049 734 931 734 728 c 0
 734 525 581 402 412 402 c 0
EndSplineSet
EndChar

StartChar: c
Encoding: 99 99 173
Width: 968
VWidth: 0
Flags: HW
HStem: -19 140<451.938 824.433> 942 140<455.989 816.098>
VStem: 97 179<314.839 744.138>
LayerCount: 2
UndoRedoHistory
Layer: 0
Undoes
EndUndoes
Redoes
EndRedoes
EndUndoRedoHistory
UndoRedoHistory
Layer: 1
Undoes
EndUndoes
Redoes
EndRedoes
EndUndoRedoHistory
Fore
SplineSet
599 -19 m 0
 748 -19 847 27 885 56 c 1
 853 180 l 1
 796 148 710 119 620 121 c 0
 397 124 276 293 276 526 c 0
 276 784 421 942 621 942 c 0
 747 942 827 892 840 884 c 1
 889 1008 l 1
 855 1032 756 1082 601 1082 c 0
 312 1082 97 863 97 527 c 0
 97 202 294 -19 599 -19 c 0
EndSplineSet
EndChar

StartChar: caron
Encoding: 391 711 175
Width: 733
VWidth: 0
Flags: HW
LayerCount: 2
UndoRedoHistory
Layer: 0
Undoes
EndUndoes
Redoes
EndRedoes
EndUndoRedoHistory
UndoRedoHistory
Layer: 1
Undoes
EndUndoes
Redoes
EndRedoes
EndUndoRedoHistory
Fore
SplineSet
259 1222 m 1
 446 1222 l 1
 641 1584 l 1
 509 1584 l 1
 349 1329 l 1
 205 1584 l 1
 74 1584 l 1
 259 1222 l 1
EndSplineSet
EndChar

StartChar: cedilla
Encoding: 396 184 180
Width: 512
VWidth: 0
Flags: HW
HStem: -385 387
LayerCount: 2
UndoRedoHistory
Layer: 0
Undoes
EndUndoes
Redoes
EndRedoes
EndUndoRedoHistory
UndoRedoHistory
Layer: 1
Undoes
EndUndoes
Redoes
EndRedoes
EndUndoRedoHistory
Fore
SplineSet
98 -385 m 1
 243 -385 l 1
 284 2 l 1
 191 2 l 1
 98 -385 l 1
EndSplineSet
EndChar

StartChar: cent
Encoding: 397 162 181
Width: 950
VWidth: 0
Flags: HW
LayerCount: 2
UndoRedoHistory
Layer: 0
Undoes
EndUndoes
Redoes
EndRedoes
EndUndoRedoHistory
UndoRedoHistory
Layer: 1
Undoes
EndUndoes
Redoes
EndRedoes
EndUndoRedoHistory
Fore
SplineSet
549 -155 m 1
 632 -155 l 1
 632 1228 l 1
 549 1228 l 1
 549 -155 l 1
EndSplineSet
Refer: 173 99 N 1 0 0 1 -14 0 2
EndChar

StartChar: circumflex
Encoding: 398 710 182
Width: 733
VWidth: 0
Flags: HW
LayerCount: 2
UndoRedoHistory
Layer: 0
Undoes
EndUndoes
Redoes
EndRedoes
EndUndoRedoHistory
UndoRedoHistory
Layer: 1
Undoes
EndUndoes
Redoes
EndRedoes
EndUndoRedoHistory
Fore
SplineSet
78 1209 m 5
 201 1209 l 5
 357 1473 l 5
 513 1209 l 5
 637 1209 l 5
 457 1584 l 5
 267 1584 l 5
 78 1209 l 5
EndSplineSet
EndChar

StartChar: colon
Encoding: 58 58 183
Width: 501
VWidth: 0
Flags: HW
LayerCount: 2
UndoRedoHistory
Layer: 0
Undoes
EndUndoes
Redoes
EndRedoes
EndUndoRedoHistory
UndoRedoHistory
Layer: 1
Undoes
EndUndoes
Redoes
EndRedoes
EndUndoRedoHistory
Fore
SplineSet
156 0 m 1
 350 0 l 1
 350 215 l 1
 156 215 l 1
 156 0 l 1
156 846 m 1
 350 846 l 1
 350 1060 l 1
 156 1060 l 1
 156 846 l 1
EndSplineSet
EndChar

StartChar: comma
Encoding: 44 44 184
Width: 450
VWidth: 0
Flags: HW
LayerCount: 2
UndoRedoHistory
Layer: 0
Undoes
EndUndoes
Redoes
EndRedoes
EndUndoRedoHistory
UndoRedoHistory
Layer: 1
Undoes
EndUndoes
Redoes
EndRedoes
EndUndoRedoHistory
Fore
SplineSet
115 -269 m 1
 224 -269 l 1
 224 -269 338 159 338 184 c 1
 340 226 l 1
 163 226 l 1
 163 164 115 -269 115 -269 c 1
EndSplineSet
EndChar

StartChar: copyright
Encoding: 399 169 185
Width: 1724
VWidth: 0
Flags: HW
LayerCount: 2
UndoRedoHistory
Layer: 0
Undoes
EndUndoes
Redoes
EndRedoes
EndUndoRedoHistory
UndoRedoHistory
Layer: 1
Undoes
EndUndoes
Redoes
EndRedoes
EndUndoRedoHistory
Fore
SplineSet
875 237 m 0
 978 237 1078 265 1165 321 c 1
 1127 411 l 1
 1043 360 959 341 880 341 c 0
 677 341 523 494 523 743 c 0
 523 974 677 1136 873 1136 c 0
 946 1136 1042 1111 1116 1057 c 1
 1162 1151 l 1
 1073 1212 972 1241 868 1241 c 0
 605 1241 394 1024 394 738 c 0
 394 445 612 237 875 237 c 0
860 67 m 0
 517 67 199 310 199 742 c 0
 199 1173 516 1416 859 1416 c 0
 1204 1416 1525 1173 1525 742 c 0
 1525 311 1205 67 860 67 c 0
860 -24 m 0
 1251 -24 1635 245 1635 742 c 0
 1635 1238 1249 1508 859 1508 c 0
 470 1508 89 1239 89 742 c 0
 89 245 471 -24 860 -24 c 0
EndSplineSet
EndChar

StartChar: currency
Encoding: 400 164 186
Width: 1209
VWidth: 0
Flags: HW
LayerCount: 2
UndoRedoHistory
Layer: 0
Undoes
EndUndoes
Redoes
EndRedoes
EndUndoRedoHistory
UndoRedoHistory
Layer: 1
Undoes
EndUndoes
Redoes
EndRedoes
EndUndoRedoHistory
Fore
SplineSet
1049 224 m 1
 1114 295 l 1
 937 467 l 1
 988 536 1015 616 1015 707 c 0
 1015 793 988 876 936 948 c 1
 1115 1119 l 1
 1049 1190 l 1
 868 1020 l 1
 797 1078 711 1111 614 1111 c 0
 518 1111 429 1080 358 1022 c 1
 180 1190 l 1
 110 1121 l 1
 291 948 l 1
 239 878 212 795 212 707 c 0
 212 618 239 537 291 467 c 1
 111 295 l 1
 180 226 l 1
 358 394 l 1
 429 336 516 305 614 305 c 0
 711 305 798 337 868 394 c 1
 1049 224 l 1
614 403 m 0
 434 403 317 541 317 707 c 0
 317 872 434 1013 614 1013 c 0
 795 1013 912 872 912 707 c 0
 912 542 796 403 614 403 c 0
EndSplineSet
EndChar

StartChar: d
Encoding: 100 100 187
Width: 1200
VWidth: 0
Flags: HW
LayerCount: 2
UndoRedoHistory
Layer: 0
Undoes
EndUndoes
Redoes
EndRedoes
EndUndoRedoHistory
UndoRedoHistory
Layer: 1
Undoes
EndUndoes
Redoes
EndRedoes
EndUndoRedoHistory
Fore
SplineSet
551 -19 m 0
 776 -19 874 122 923 255 c 1
 881 258 l 1
 904 0 l 1
 1056 0 l 1
 1056 1468 l 1
 875 1455 l 1
 875 1127 l 1
 886 821 l 1
 921 833 l 1
 858 965 765 1082 548 1082 c 0
 266 1082 97 859 97 538 c 0
 97 203 257 -19 551 -19 c 0
571 119 m 0
 365 119 277 283 277 534 c 0
 277 795 382 943 581 943 c 0
 770 943 881 802 881 518 c 0
 880 272 787 119 571 119 c 0
EndSplineSet
EndChar

StartChar: dagger
Encoding: 401 8224 188
Width: 875
VWidth: 0
Flags: HW
LayerCount: 2
UndoRedoHistory
Layer: 0
Undoes
EndUndoes
Redoes
EndRedoes
EndUndoRedoHistory
UndoRedoHistory
Layer: 1
Undoes
EndUndoes
Redoes
EndRedoes
EndUndoRedoHistory
Fore
SplineSet
378 117 m 1
 499 117 l 1
 499 963 l 1
 794 963 l 1
 794 1075 l 1
 499 1075 l 1
 499 1441 l 1
 378 1441 l 1
 378 1075 l 1
 90 1075 l 1
 90 963 l 1
 378 963 l 1
 378 117 l 1
EndSplineSet
EndChar

StartChar: daggerdbl
Encoding: 402 8225 189
Width: 921
VWidth: 0
Flags: HW
LayerCount: 2
UndoRedoHistory
Layer: 0
Undoes
EndUndoes
Redoes
EndRedoes
EndUndoRedoHistory
UndoRedoHistory
Layer: 1
Undoes
EndUndoes
Redoes
EndRedoes
EndUndoRedoHistory
Fore
SplineSet
775 430 m 1
 775 534 l 1
 507 534 l 1
 506 959 l 1
 777 959 l 1
 777 1069 l 1
 503 1069 l 1
 503 1438 l 1
 383 1438 l 1
 383 1069 l 1
 110 1069 l 1
 110 959 l 1
 383 959 l 1
 383 534 l 1
 109 534 l 1
 109 430 l 1
 383 430 l 1
 383 64 l 1
 507 64 l 1
 507 430 l 1
 775 430 l 1
EndSplineSet
EndChar

StartChar: dcroat
Encoding: 404 273 191
Width: 1231
VWidth: 0
Flags: HW
LayerCount: 2
UndoRedoHistory
Layer: 0
Undoes
EndUndoes
Redoes
EndRedoes
EndUndoRedoHistory
UndoRedoHistory
Layer: 1
Undoes
EndUndoes
Redoes
EndRedoes
EndUndoRedoHistory
Fore
SplineSet
123 1196 m 1
 123 1305 l 1
 618 1305 l 1
 618 1196 l 1
 123 1196 l 1
EndSplineSet
Refer: 187 100 N 1 0 0 1 -14 0 2
EndChar

StartChar: degree
Encoding: 405 176 192
Width: 772
VWidth: 0
Flags: HW
LayerCount: 2
UndoRedoHistory
Layer: 0
Undoes
EndUndoes
Redoes
EndRedoes
EndUndoRedoHistory
UndoRedoHistory
Layer: 1
Undoes
EndUndoes
Redoes
EndRedoes
EndUndoRedoHistory
Fore
SplineSet
386 995 m 0
 284 995 201 1070 201 1182 c 0
 201 1293 286 1367 387 1367 c 0
 488 1367 571 1293 571 1182 c 0
 571 1071 488 995 386 995 c 0
386 894 m 0
 554 894 687 1021 687 1183 c 0
 687 1350 550 1468 386 1468 c 0
 224 1468 86 1350 86 1183 c 0
 86 1015 224 894 386 894 c 0
EndSplineSet
EndChar

StartChar: dieresis
Encoding: 406 168 193
Width: 701
VWidth: 0
Flags: HW
HStem: 1225 187
LayerCount: 2
UndoRedoHistory
Layer: 0
Undoes
EndUndoes
Redoes
EndRedoes
EndUndoRedoHistory
UndoRedoHistory
Layer: 1
Undoes
EndUndoes
Redoes
EndRedoes
EndUndoRedoHistory
Fore
SplineSet
100 1225 m 1
 247 1225 l 1
 247 1412 l 1
 100 1412 l 1
 100 1225 l 1
476 1225 m 1
 623 1225 l 1
 623 1412 l 1
 476 1412 l 1
 476 1225 l 1
EndSplineSet
EndChar

StartChar: divide
Encoding: 407 247 194
Width: 1125
VWidth: 0
Flags: HW
LayerCount: 2
UndoRedoHistory
Layer: 0
Undoes
EndUndoes
Redoes
EndRedoes
EndUndoRedoHistory
UndoRedoHistory
Layer: 1
Undoes
EndUndoes
Redoes
EndRedoes
EndUndoRedoHistory
Fore
SplineSet
457 30 m 1
 660 30 l 1
 660 241 l 1
 457 241 l 1
 457 30 l 1
76 491 m 1
 1039 491 l 1
 1039 635 l 1
 76 635 l 1
 76 491 l 1
457 866 m 1
 663 866 l 1
 663 1073 l 1
 457 1073 l 1
 457 866 l 1
EndSplineSet
EndChar

StartChar: dotaccent
Encoding: 408 729 196
Width: 350
VWidth: 0
Flags: HW
HStem: 1259 178
VStem: 97 160
LayerCount: 2
UndoRedoHistory
Layer: 0
Undoes
EndUndoes
Redoes
EndRedoes
EndUndoRedoHistory
UndoRedoHistory
Layer: 1
Undoes
EndUndoes
Redoes
EndRedoes
EndUndoRedoHistory
Fore
SplineSet
97 1259 m 1
 257 1259 l 1
 257 1437 l 1
 97 1437 l 1
 97 1259 l 1
EndSplineSet
EndChar

StartChar: dotlessi
Encoding: 409 305 197
Width: 401
VWidth: 0
Flags: HW
VStem: 130 162
LayerCount: 2
UndoRedoHistory
Layer: 0
Undoes
EndUndoes
Redoes
EndRedoes
EndUndoRedoHistory
UndoRedoHistory
Layer: 1
Undoes
EndUndoes
Redoes
EndRedoes
EndUndoRedoHistory
Fore
SplineSet
130 0 m 1
 292 0 l 1
 292 1060 l 1
 130 1060 l 1
 130 0 l 1
EndSplineSet
EndChar

StartChar: e
Encoding: 101 101 198
Width: 1127
VWidth: 0
Flags: HW
HStem: -19 137<457.435 884.973> 948 133<448.412 751.907>
LayerCount: 2
UndoRedoHistory
Layer: 0
Undoes
EndUndoes
Redoes
EndRedoes
EndUndoRedoHistory
UndoRedoHistory
Layer: 1
Undoes
EndUndoes
Redoes
EndRedoes
EndUndoRedoHistory
Fore
SplineSet
619 -19 m 0
 777 -19 902 15 1003 74 c 1
 966 196 l 1
 874 151 770 118 639 118 c 0
 436 118 275 240 275 535 c 1
 230 498 l 1
 1022 498 l 1
 1022 498 1029 562 1029 587 c 0
 1029 883 871 1081 600 1081 c 0
 323 1081 97 870 97 526 c 0
 97 186 314 -19 619 -19 c 0
279 577 m 1
 286 806 429 948 604 948 c 0
 778 948 865 820 867 573 c 1
 913 615 l 1
 231 615 l 1
 279 577 l 1
EndSplineSet
EndChar

StartChar: eight
Encoding: 56 56 206
Width: 1167
VWidth: 0
Flags: HW
LayerCount: 2
UndoRedoHistory
Layer: 0
Undoes
EndUndoes
Redoes
EndRedoes
EndUndoRedoHistory
UndoRedoHistory
Layer: 1
Undoes
EndUndoes
Redoes
EndRedoes
EndUndoRedoHistory
Fore
SplineSet
584 -19 m 0
 842 -19 1060 107 1060 361 c 0
 1060 545 943 695 768 755 c 1
 921 814 1028 924 1028 1098 c 0
 1028 1328 839 1456 584 1456 c 0
 329 1456 138 1328 138 1098 c 0
 138 924 255 805 404 753 c 1
 220 687 108 557 108 361 c 0
 108 107 327 -19 584 -19 c 0
584 119 m 0
 385 119 280 212 280 377 c 0
 280 547 410 647 584 686 c 1
 759 647 886 542 886 378 c 0
 886 206 788 119 584 119 c 0
584 810 m 1
 406 850 312 949 312 1101 c 0
 312 1238 422 1324 584 1324 c 0
 747 1324 854 1238 854 1101 c 0
 854 949 764 850 584 810 c 1
EndSplineSet
EndChar

StartChar: ellipsis
Encoding: 417 8230 207
Width: 1416
VWidth: 0
Flags: HW
LayerCount: 2
UndoRedoHistory
Layer: 0
Undoes
EndUndoes
Redoes
EndRedoes
EndUndoRedoHistory
UndoRedoHistory
Layer: 1
Undoes
EndUndoes
Redoes
EndRedoes
EndUndoRedoHistory
Fore
SplineSet
228 -12 m 0
 142 -12 98 53 98 117 c 0
 98 181 141 245 228 245 c 0
 315 245 357 181 357 117 c 0
 357 53 315 -12 228 -12 c 0
709 -12 m 0
 623 -12 580 53 580 117 c 0
 580 181 622 245 709 245 c 0
 796 245 839 181 839 117 c 0
 839 53 796 -12 709 -12 c 0
1190 -12 m 0
 1104 -12 1060 53 1060 117 c 0
 1060 181 1103 245 1190 245 c 0
 1277 245 1320 181 1320 117 c 0
 1320 53 1277 -12 1190 -12 c 0
EndSplineSet
EndChar

StartChar: emdash
Encoding: 419 8212 209
Width: 2262
VWidth: 0
Flags: HW
LayerCount: 2
UndoRedoHistory
Layer: 0
Undoes
EndUndoes
Redoes
EndRedoes
EndUndoRedoHistory
UndoRedoHistory
Layer: 1
Undoes
EndUndoes
Redoes
EndRedoes
EndUndoRedoHistory
Fore
SplineSet
100 510 m 1
 2190 510 l 1
 2190 652 l 1
 100 652 l 1
 100 510 l 1
EndSplineSet
EndChar

StartChar: endash
Encoding: 420 8211 210
Width: 1189
VWidth: 0
Flags: HW
LayerCount: 2
UndoRedoHistory
Layer: 0
Undoes
EndUndoes
Redoes
EndRedoes
EndUndoRedoHistory
UndoRedoHistory
Layer: 1
Undoes
EndUndoes
Redoes
EndRedoes
EndUndoRedoHistory
Fore
SplineSet
97 510 m 1
 1106 510 l 1
 1106 652 l 1
 97 652 l 1
 97 510 l 1
EndSplineSet
EndChar

StartChar: eng
Encoding: 421 331 211
Width: 1106
VWidth: 0
Flags: HW
LayerCount: 2
UndoRedoHistory
Layer: 0
Undoes
EndUndoes
Redoes
EndRedoes
EndUndoRedoHistory
UndoRedoHistory
Layer: 1
Undoes
EndUndoes
Redoes
EndRedoes
EndUndoRedoHistory
Fore
SplineSet
604 -292 m 1
 672 -292 l 2
 956 -292 999 -142 999 153 c 2
 999 650 l 2
 999 935 894 1082 650 1082 c 0
 498 1082 388 1023 312 908 c 1
 292 1060 l 1
 138 1060 l 1
 138 0 l 1
 319 0 l 1
 319 580 l 2
 319 634 322 683 328 729 c 1
 360 852 440 944 616 944 c 0
 780 944 818 837 818 662 c 2
 818 101 l 2
 818 -106 801 -135 633 -135 c 2
 594 -135 l 1
 604 -292 l 1
EndSplineSet
EndChar

StartChar: equal
Encoding: 61 61 213
Width: 1133
VWidth: 0
Flags: HW
LayerCount: 2
UndoRedoHistory
Layer: 0
Undoes
EndUndoes
Redoes
EndRedoes
EndUndoRedoHistory
UndoRedoHistory
Layer: 1
Undoes
EndUndoes
Redoes
EndRedoes
EndUndoRedoHistory
Fore
SplineSet
79 516 m 1
 1043 516 l 1
 1043 659 l 1
 79 659 l 1
 79 516 l 1
79 803 m 1
 1043 803 l 1
 1043 946 l 1
 79 946 l 1
 79 803 l 1
EndSplineSet
EndChar

StartChar: eth
Encoding: 423 240 214
Width: 1188
VWidth: 0
Flags: HW
LayerCount: 2
UndoRedoHistory
Layer: 0
Undoes
EndUndoes
Redoes
EndRedoes
EndUndoRedoHistory
UndoRedoHistory
Layer: 1
Undoes
EndUndoes
Redoes
EndRedoes
EndUndoRedoHistory
Fore
SplineSet
596 -25 m 0
 925 -25 1092 186 1092 470 c 0
 1092 605 1058 741 1006 839 c 0
 938 965 838 1091 659 1282 c 1
 903 1373 l 1
 852 1491 l 1
 568 1381 l 1
 421 1524 l 1
 219 1524 l 1
 432 1325 l 1
 216 1242 l 1
 266 1125 l 1
 518 1222 l 1
 679 1066 779 938 830 847 c 1
 773 887 708 940 576 940 c 0
 296 940 98 751 98 469 c 0
 98 204 275 -25 596 -25 c 0
602 111 m 0
 379 111 270 284 270 469 c 0
 270 666 389 811 596 811 c 0
 813 811 932 652 932 476 c 0
 932 256 819 111 602 111 c 0
EndSplineSet
EndChar

StartChar: exclam
Encoding: 33 33 215
Width: 526
VWidth: 0
Flags: HW
LayerCount: 2
UndoRedoHistory
Layer: 0
Undoes
EndUndoes
Redoes
EndRedoes
EndUndoRedoHistory
UndoRedoHistory
Layer: 1
Undoes
EndUndoes
Redoes
EndRedoes
EndUndoRedoHistory
Fore
SplineSet
264 -12 m 0
 345 -12 385 47 385 108 c 0
 385 168 345 228 264 228 c 0
 183 228 144 168 144 108 c 0
 144 48 183 -12 264 -12 c 0
228 421 m 1
 302 421 l 1
 355 1324 l 1
 355 1461 l 1
 168 1461 l 1
 168 1324 l 1
 228 421 l 1
EndSplineSet
EndChar

StartChar: f
Encoding: 102 102 217
Width: 748
VWidth: 0
Flags: HW
LayerCount: 2
UndoRedoHistory
Layer: 0
Undoes
EndUndoes
Redoes
EndRedoes
EndUndoRedoHistory
UndoRedoHistory
Layer: 1
Undoes
EndUndoes
Redoes
EndRedoes
EndUndoRedoHistory
Fore
SplineSet
253 0 m 1
 433 0 l 1
 433 985 l 1
 391 942 l 1
 684 942 l 1
 684 1060 l 1
 388 1060 l 1
 433 1023 l 1
 433 1132 l 2
 433 1323 494 1346 593 1346 c 0
 638 1346 698 1337 711 1335 c 1
 725 1462 l 1
 697 1468 632 1479 560 1479 c 0
 372 1479 253 1393 253 1120 c 2
 253 1022 l 1
 297 1063 l 1
 71 1042 l 1
 66 942 l 1
 289 942 l 1
 253 988 l 1
 253 0 l 1
EndSplineSet
EndChar

StartChar: five
Encoding: 53 53 218
Width: 1163
VWidth: 0
Flags: HW
LayerCount: 2
UndoRedoHistory
Layer: 0
Undoes
EndUndoes
Redoes
EndRedoes
EndUndoRedoHistory
UndoRedoHistory
Layer: 1
Undoes
EndUndoes
Redoes
EndRedoes
EndUndoRedoHistory
Fore
SplineSet
546 -20 m 0
 840 -20 1059 152 1059 457 c 0
 1059 702 901 899 625 899 c 0
 512 899 431 868 365 823 c 1
 398 1293 l 1
 985 1293 l 1
 999 1437 l 1
 241 1437 l 1
 196 669 l 1
 339 651 l 1
 401 717 497 756 591 756 c 0
 789 756 875 623 875 456 c 0
 875 246 732 125 528 125 c 0
 398 125 268 185 196 231 c 1
 134 102 l 1
 217 49 380 -20 546 -20 c 0
EndSplineSet
EndChar

StartChar: four
Encoding: 52 52 219
Width: 1174
VWidth: 0
Flags: HW
LayerCount: 2
UndoRedoHistory
Layer: 0
Undoes
EndUndoes
Redoes
EndRedoes
EndUndoRedoHistory
UndoRedoHistory
Layer: 1
Undoes
EndUndoes
Redoes
EndRedoes
EndUndoRedoHistory
Fore
SplineSet
753 0 m 1
 926 0 l 1
 926 360 l 1
 1092 360 l 1
 1104 500 l 1
 926 500 l 1
 926 1437 l 1
 734 1437 l 1
 96 512 l 1
 96 360 l 1
 753 360 l 1
 753 0 l 1
277 499 m 1
 753 1219 l 1
 753 499 l 1
 277 499 l 1
EndSplineSet
EndChar

StartChar: fraction
Encoding: 425 8260 220
Width: 1096
VWidth: 0
Flags: HW
LayerCount: 2
UndoRedoHistory
Layer: 0
Undoes
EndUndoes
Redoes
EndRedoes
EndUndoRedoHistory
UndoRedoHistory
Layer: 1
Undoes
EndUndoes
Redoes
EndRedoes
EndUndoRedoHistory
Fore
SplineSet
96 0 m 1
 244 0 l 1
 1025 1495 l 1
 885 1495 l 1
 96 0 l 1
EndSplineSet
EndChar

StartChar: g
Encoding: 103 103 221
Width: 1215
VWidth: 0
Flags: HW
HStem: -426 101 0 93 982 92
VStem: 113 122 962 125 962 36
LayerCount: 2
UndoRedoHistory
Layer: 0
Undoes
EndUndoes
Redoes
EndRedoes
EndUndoRedoHistory
UndoRedoHistory
Layer: 1
Undoes
EndUndoes
Redoes
EndRedoes
EndUndoRedoHistory
Fore
SplineSet
585 146 m 0
 352 146 270 349 270 535 c 0
 270 735 357 943 590 943 c 0
 819 943 902 788 902 577 c 2
 902 496 l 2
 901 307 815 146 585 146 c 0
505 -461 m 0
 919 -461 1078 -221 1078 113 c 2
 1078 1060 l 1
 914 1060 l 1
 898 844 l 1
 933 848 l 1
 879 995 756 1082 575 1082 c 0
 253 1082 90 829 90 527 c 0
 90 265 245 8 562 8 c 0
 763 8 900 116 942 282 c 1
 901 284 l 1
 901 69 l 2
 901 -180 793 -320 497 -320 c 0
 447 -320 325 -313 258 -310 c 1
 258 -451 l 1
 352 -453 436 -461 505 -461 c 0
EndSplineSet
EndChar

StartChar: germandbls
Encoding: 430 223 226
Width: 1143
VWidth: 0
Flags: HW
LayerCount: 2
UndoRedoHistory
Layer: 0
Undoes
EndUndoes
Redoes
EndRedoes
EndUndoRedoHistory
UndoRedoHistory
Layer: 1
Undoes
EndUndoes
Redoes
EndRedoes
EndUndoRedoHistory
Fore
SplineSet
325 0 m 1
 147 0 l 1
 147 1007 l 2
 147 1293 274 1466 570 1466 c 0
 794 1466 946 1346 946 1155 c 0
 946 941 742 842 742 754 c 0
 742 641 1115 581 1115 289 c 0
 1115 99 991 -20 788 -20 c 0
 666 -20 544 15 460 55 c 1
 507 186 l 1
 561 158 658 121 764 121 c 0
 885 121 940 196 940 287 c 0
 940 492 575 546 575 737 c 0
 575 900 777 957 778 1153 c 0
 779 1257 709 1332 576 1332 c 0
 393 1332 325 1237 325 1010 c 2
 325 0 l 1
EndSplineSet
EndChar

StartChar: grave
Encoding: 96 96 227
Width: 587
VWidth: 0
Flags: HW
HStem: 1209 375
LayerCount: 2
UndoRedoHistory
Layer: 0
Undoes
EndUndoes
Redoes
EndRedoes
EndUndoRedoHistory
UndoRedoHistory
Layer: 1
Undoes
EndUndoes
Redoes
EndRedoes
EndUndoRedoHistory
Fore
SplineSet
382 1209 m 1
 487 1209 l 1
 309 1584 l 1
 104 1584 l 1
 382 1209 l 1
EndSplineSet
EndChar

StartChar: greater
Encoding: 62 62 228
Width: 1139
VWidth: 0
Flags: HW
LayerCount: 2
UndoRedoHistory
Layer: 0
Undoes
EndUndoes
Redoes
EndRedoes
EndUndoRedoHistory
UndoRedoHistory
Layer: 1
Undoes
EndUndoes
Redoes
EndRedoes
EndUndoRedoHistory
Fore
SplineSet
125 146 m 1
 1053 584 l 1
 1053 677 l 1
 127 1160 l 1
 127 1009 l 1
 865 636 l 1
 125 300 l 1
 125 146 l 1
EndSplineSet
EndChar

StartChar: greaterequal
Encoding: 431 8805 229
Width: 1128
VWidth: 0
Flags: HW
LayerCount: 2
UndoRedoHistory
Layer: 0
Undoes
EndUndoes
Redoes
EndRedoes
EndUndoRedoHistory
UndoRedoHistory
Layer: 1
Undoes
EndUndoes
Redoes
EndRedoes
EndUndoRedoHistory
Fore
SplineSet
137 227 m 1
 1022 695 l 1
 1022 779 l 1
 140 1271 l 1
 140 1125 l 1
 878 736 l 1
 137 371 l 1
 137 227 l 1
110 7 m 1
 1039 7 l 1
 1039 136 l 1
 110 136 l 1
 110 7 l 1
EndSplineSet
EndChar

StartChar: guillemotleft
Encoding: 432 171 230
Width: 951
VWidth: 0
Flags: HW
LayerCount: 2
UndoRedoHistory
Layer: 0
Undoes
EndUndoes
Redoes
EndRedoes
EndUndoRedoHistory
UndoRedoHistory
Layer: 1
Undoes
EndUndoes
Redoes
EndRedoes
EndUndoRedoHistory
Fore
SplineSet
728 145 m 1
 858 179 l 1
 601 543 l 1
 864 904 l 1
 730 938 l 1
 441 540 l 1
 728 145 l 1
367 145 m 1
 497 179 l 1
 241 543 l 1
 504 904 l 1
 370 938 l 1
 80 540 l 1
 367 145 l 1
EndSplineSet
EndChar

StartChar: guillemotright
Encoding: 433 187 231
Width: 964
VWidth: 0
Flags: HW
LayerCount: 2
UndoRedoHistory
Layer: 0
Undoes
EndUndoes
Redoes
EndRedoes
EndUndoRedoHistory
UndoRedoHistory
Layer: 1
Undoes
EndUndoes
Redoes
EndRedoes
EndUndoRedoHistory
Fore
SplineSet
599 938 m 1
 470 904 l 1
 726 540 l 1
 464 180 l 1
 596 145 l 1
 887 543 l 1
 599 938 l 1
243 938 m 1
 112 904 l 1
 370 540 l 1
 107 180 l 1
 241 145 l 1
 530 543 l 1
 243 938 l 1
EndSplineSet
EndChar

StartChar: guilsinglleft
Encoding: 434 8249 232
Width: 566
VWidth: 0
Flags: HW
LayerCount: 2
UndoRedoHistory
Layer: 0
Undoes
EndUndoes
Redoes
EndRedoes
EndUndoRedoHistory
UndoRedoHistory
Layer: 1
Undoes
EndUndoes
Redoes
EndRedoes
EndUndoRedoHistory
Fore
SplineSet
512 975 m 1
 368 975 l 1
 75 558 l 1
 363 150 l 1
 506 150 l 1
 227 558 l 1
 512 975 l 1
EndSplineSet
EndChar

StartChar: guilsinglright
Encoding: 435 8250 233
Width: 571
VWidth: 0
Flags: HW
LayerCount: 2
UndoRedoHistory
Layer: 0
Undoes
EndUndoes
Redoes
EndRedoes
EndUndoRedoHistory
UndoRedoHistory
Layer: 1
Undoes
EndUndoes
Redoes
EndRedoes
EndUndoRedoHistory
Fore
SplineSet
87 150 m 1
 231 150 l 1
 525 565 l 1
 236 975 l 1
 93 975 l 1
 371 566 l 1
 87 150 l 1
EndSplineSet
EndChar

StartChar: h
Encoding: 104 104 234
Width: 1160
VWidth: 0
Flags: HW
HStem: 943 138<460.433 769.383>
VStem: 146 179<570 793.093> 845 180<648 858.183>
LayerCount: 2
UndoRedoHistory
Layer: 0
Undoes
EndUndoes
Redoes
EndRedoes
EndUndoRedoHistory
UndoRedoHistory
Layer: 1
Undoes
EndUndoes
Redoes
EndRedoes
EndUndoRedoHistory
Fore
SplineSet
146 0 m 1
 325 0 l 1
 325 570 l 2
 325 759 387 943 633 943 c 0
 789 943 845 846 845 648 c 2
 845 0 l 1
 1025 0 l 1
 1025 657 l 2
 1025 931 896 1081 665 1081 c 0
 487 1081 343 996 276 844 c 1
 318 829 l 1
 326 1123 l 1
 326 1467 l 1
 146 1455 l 1
 146 0 l 1
EndSplineSet
EndChar

StartChar: hbar
Encoding: 436 295 235
Width: 1150
VWidth: 0
Flags: HW
LayerCount: 2
UndoRedoHistory
Layer: 0
Undoes
EndUndoes
Redoes
EndRedoes
EndUndoRedoHistory
UndoRedoHistory
Layer: 1
Undoes
EndUndoes
Redoes
EndRedoes
EndUndoRedoHistory
Fore
SplineSet
197 0 m 1
 354 0 l 1
 354 723 l 1
 379 823 513 948 681 948 c 0
 864 948 897 835 897 595 c 2
 897 0 l 1
 1054 0 l 1
 1054 642 l 2
 1054 920 957 1087 735 1087 c 0
 572 1087 444 1025 354 917 c 1
 354 1228 l 1
 619 1228 l 1
 619 1339 l 1
 354 1339 l 1
 354 1459 l 1
 197 1439 l 1
 197 1339 l 1
 107 1339 l 1
 107 1228 l 1
 197 1228 l 1
 197 0 l 1
EndSplineSet
EndChar

StartChar: hungarumlaut
Encoding: 438 733 237
Width: 741
VWidth: 0
Flags: HW
LayerCount: 2
UndoRedoHistory
Layer: 0
Undoes
EndUndoes
Redoes
EndRedoes
EndUndoRedoHistory
UndoRedoHistory
Layer: 1
Undoes
EndUndoes
Redoes
EndRedoes
EndUndoRedoHistory
Fore
SplineSet
100 1217 m 1
 194 1217 l 1
 431 1541 l 1
 263 1541 l 1
 100 1217 l 1
343 1217 m 1
 438 1217 l 1
 710 1541 l 1
 534 1541 l 1
 343 1217 l 1
EndSplineSet
EndChar

StartChar: hyphen
Encoding: 45 45 238
Width: 670
VWidth: 0
Flags: HW
LayerCount: 2
UndoRedoHistory
Layer: 0
Undoes
EndUndoes
Redoes
EndRedoes
EndUndoRedoHistory
UndoRedoHistory
Layer: 1
Undoes
EndUndoes
Redoes
EndRedoes
EndUndoRedoHistory
Fore
SplineSet
89 480 m 1
 569 480 l 1
 569 615 l 1
 89 615 l 1
 89 480 l 1
EndSplineSet
EndChar

StartChar: i
Encoding: 105 105 239
Width: 471
VWidth: 0
Flags: HW
VStem: 149 181
LayerCount: 2
UndoRedoHistory
Layer: 0
Undoes
EndUndoes
Redoes
EndRedoes
EndUndoRedoHistory
UndoRedoHistory
Layer: 1
Undoes
EndUndoes
Redoes
EndRedoes
EndUndoRedoHistory
Fore
SplineSet
149 0 m 1
 330 0 l 1
 330 1060 l 1
 149 1060 l 1
 149 0 l 1
149 1262 m 1
 330 1262 l 1
 330 1437 l 1
 149 1437 l 1
 149 1262 l 1
EndSplineSet
EndChar

StartChar: infinity
Encoding: 446 8734 247
Width: 1702
VWidth: 0
Flags: HW
LayerCount: 2
UndoRedoHistory
Layer: 0
Undoes
EndUndoes
Redoes
EndRedoes
EndUndoRedoHistory
UndoRedoHistory
Layer: 1
Undoes
EndUndoes
Redoes
EndRedoes
EndUndoRedoHistory
Fore
SplineSet
446 247 m 0
 225 247 97 429 97 642 c 0
 97 836 250 990 442 990 c 0
 609 990 732 884 852 725 c 1
 964 879 1087 990 1257 990 c 0
 1478 990 1601 837 1601 625 c 0
 1601 402 1449 247 1255 247 c 0
 1107 247 985 334 852 511 c 1
 735 357 609 247 446 247 c 0
448 371 m 0
 577 371 690 485 782 620 c 1
 691 763 581 870 441 870 c 0
 297 870 208 756 208 622 c 0
 208 496 304 371 448 371 c 0
1257 371 m 0
 1409 371 1481 493 1481 647 c 0
 1481 768 1386 870 1253 870 c 0
 1118 870 1009 750 922 622 c 1
 1042 458 1133 371 1257 371 c 0
EndSplineSet
EndChar

StartChar: integral
Encoding: 447 8747 248
Width: 702
VWidth: 0
Flags: HW
LayerCount: 2
UndoRedoHistory
Layer: 0
Undoes
EndUndoes
Redoes
EndRedoes
EndUndoRedoHistory
UndoRedoHistory
Layer: 1
Undoes
EndUndoes
Redoes
EndRedoes
EndUndoRedoHistory
Fore
SplineSet
155 -411 m 0
 122 -411 85 -407 44 -398 c 1
 44 -306 l 1
 80 -315 113 -319 140 -319 c 0
 277 -319 296 -209 296 -49 c 2
 296 1115 l 2
 296 1350 358 1470 529 1470 c 0
 563 1470 602 1465 646 1455 c 1
 646 1363 l 1
 610 1373 580 1378 553 1378 c 0
 436 1378 412 1280 412 1124 c 2
 412 -41 l 2
 412 -281 336 -411 155 -411 c 0
EndSplineSet
EndChar

StartChar: j
Encoding: 106 106 251
Width: 532
VWidth: 0
Flags: HW
HStem: -353 144<56.88 185.763>
VStem: 214 181<-180.236 31>
LayerCount: 2
UndoRedoHistory
Layer: 0
Undoes
EndUndoes
Redoes
EndRedoes
EndUndoRedoHistory
UndoRedoHistory
Layer: 1
Undoes
EndUndoes
Redoes
EndRedoes
EndUndoRedoHistory
Fore
SplineSet
19 -353 m 5
 78 -353 l 6
 315 -353 395 -248 395 11 c 6
 395 1060 l 5
 214 1060 l 5
 214 31 l 6
 214 -149 208 -209 57 -209 c 6
 7 -209 l 5
 19 -353 l 5
214 1262 m 1
 395 1262 l 1
 395 1437 l 1
 214 1437 l 1
 214 1262 l 1
EndSplineSet
EndChar

StartChar: k
Encoding: 107 107 253
Width: 1087
VWidth: 0
Flags: HW
LayerCount: 2
UndoRedoHistory
Layer: 0
Undoes
EndUndoes
Redoes
EndRedoes
EndUndoRedoHistory
UndoRedoHistory
Layer: 1
Undoes
EndUndoes
Redoes
EndRedoes
EndUndoRedoHistory
Fore
SplineSet
146 0 m 5
 326 0 l 5
 326 429 l 5
 280 334 l 5
 479 517 l 5
 412 517 l 5
 851 0 l 5
 1064 0 l 5
 541 615 l 5
 541 533 l 5
 1050 1060 l 5
 829 1060 l 5
 282 501 l 5
 319 501 l 5
 326 751 l 5
 326 1468 l 5
 146 1455 l 5
 146 0 l 5
EndSplineSet
EndChar

StartChar: l
Encoding: 108 108 255
Width: 646
VWidth: 0
Flags: HW
HStem: -12 133<364.617 628.716>
VStem: 146 181<157.594 316>
LayerCount: 2
UndoRedoHistory
Layer: 0
Undoes
EndUndoes
Redoes
EndRedoes
EndUndoRedoHistory
UndoRedoHistory
Layer: 1
Undoes
EndUndoes
Redoes
EndRedoes
EndUndoRedoHistory
Fore
SplineSet
469 -12 m 4
 549 -12 616 5 629 7 c 5
 629 130 l 5
 623 129 563 121 501 121 c 4
 383 121 327 157 327 300 c 6
 327 1468 l 5
 146 1455 l 5
 146 316 l 6
 146 62 274 -12 469 -12 c 4
EndSplineSet
EndChar

StartChar: less
Encoding: 60 60 260
Width: 1132
VWidth: 0
Flags: HW
LayerCount: 2
UndoRedoHistory
Layer: 0
Undoes
EndUndoes
Redoes
EndRedoes
EndUndoRedoHistory
UndoRedoHistory
Layer: 1
Undoes
EndUndoes
Redoes
EndRedoes
EndUndoRedoHistory
Fore
SplineSet
1019 141 m 1
 1020 294 l 2
 275 636 l 1
 1022 1003 l 1
 1022 1154 l 1
 94 678 l 1
 94 585 l 1
 1019 141 l 1
EndSplineSet
EndChar

StartChar: lessequal
Encoding: 456 8804 261
Width: 1131
VWidth: 0
Flags: HW
LayerCount: 2
UndoRedoHistory
Layer: 0
Undoes
EndUndoes
Redoes
EndRedoes
EndUndoRedoHistory
UndoRedoHistory
Layer: 1
Undoes
EndUndoes
Redoes
EndRedoes
EndUndoRedoHistory
Fore
SplineSet
1015 256 m 1
 1015 402 l 1
 326 753 l 1
 1015 1122 l 1
 1015 1268 l 1
 137 795 l 1
 137 708 l 1
 1015 256 l 1
106 1 m 1
 1041 1 l 1
 1041 125 l 1
 106 125 l 1
 106 1 l 1
EndSplineSet
EndChar

StartChar: logicalnot
Encoding: 457 172 262
Width: 1143
VWidth: 0
Flags: HW
LayerCount: 2
UndoRedoHistory
Layer: 0
Undoes
EndUndoes
Redoes
EndRedoes
EndUndoRedoHistory
UndoRedoHistory
Layer: 1
Undoes
EndUndoes
Redoes
EndRedoes
EndUndoRedoHistory
Fore
SplineSet
910 251 m 1
 1042 251 l 1
 1042 794 l 1
 85 794 l 1
 85 658 l 1
 910 658 l 1
 910 251 l 1
EndSplineSet
EndChar

StartChar: lozenge
Encoding: 458 9674 263
Width: 1105
VWidth: 0
Flags: HW
LayerCount: 2
UndoRedoHistory
Layer: 0
Undoes
EndUndoes
Redoes
EndRedoes
EndUndoRedoHistory
UndoRedoHistory
Layer: 1
Undoes
EndUndoes
Redoes
EndRedoes
EndUndoRedoHistory
Fore
SplineSet
503 -47 m 1
 607 -47 l 1
 1026 742 l 1
 616 1531 l 1
 510 1531 l 1
 93 740 l 1
 503 -47 l 1
554 102 m 1
 438 311 330 529 216 742 c 1
 332 954 448 1167 565 1377 c 1
 676 1164 791 951 904 740 c 1
 788 527 670 314 554 102 c 1
EndSplineSet
EndChar

StartChar: m
Encoding: 109 109 264
Width: 1738
VWidth: 0
Flags: HW
HStem: 944 138<456.596 721.158 1098.92 1360.63>
VStem: 146 180<627 786.533> 146 146<949.761 1060> 789 181<555 798.247> 1422 180<603 872.453>
LayerCount: 2
UndoRedoHistory
Layer: 0
Undoes
EndUndoes
Redoes
EndRedoes
EndUndoRedoHistory
UndoRedoHistory
Layer: 1
Undoes
EndUndoes
Redoes
EndRedoes
EndUndoRedoHistory
Fore
SplineSet
146 0 m 1xb8
 326 0 l 1
 326 627 l 1xd8
 348 806 430 944 603 944 c 0
 751 944 789 836 789 598 c 2
 789 0 l 1
 970 0 l 1
 970 555 l 1
 972 633 974 686 983 716 c 1
 1020 868 1123 944 1242 944 c 0
 1422 944 1422 765 1422 603 c 2
 1422 0 l 1
 1602 0 l 1
 1602 682 l 2
 1602 942 1498 1082 1274 1082 c 0
 1098 1082 975 982 903 827 c 1
 947 827 l 1
 902 967 829 1082 637 1082 c 0
 462 1082 343 981 274 847 c 1
 321 837 l 1
 292 1060 l 1
 146 1060 l 1
 146 0 l 1xb8
EndSplineSet
EndChar

StartChar: macron
Encoding: 459 175 265
Width: 961
VWidth: 0
Flags: HW
HStem: 1269 126
VStem: 172 600
LayerCount: 2
UndoRedoHistory
Layer: 0
Undoes
EndUndoes
Redoes
EndRedoes
EndUndoRedoHistory
UndoRedoHistory
Layer: 1
Undoes
EndUndoes
Redoes
EndRedoes
EndUndoRedoHistory
Fore
SplineSet
172 1269 m 1
 772 1269 l 1
 772 1395 l 1
 172 1395 l 1
 172 1269 l 1
EndSplineSet
EndChar

StartChar: middot
Encoding: 460 -1 266
Width: 365
VWidth: 0
Flags: HW
LayerCount: 2
UndoRedoHistory
Layer: 0
Undoes
EndUndoes
Redoes
EndRedoes
EndUndoRedoHistory
UndoRedoHistory
Layer: 1
Undoes
EndUndoes
Redoes
EndRedoes
EndUndoRedoHistory
Fore
SplineSet
98 547 m 1
 98 739 l 1
 262 739 l 1
 262 547 l 1
 98 547 l 1
EndSplineSet
EndChar

StartChar: minus
Encoding: 461 8722 267
Width: 1133
VWidth: 0
Flags: HW
LayerCount: 2
UndoRedoHistory
Layer: 0
Undoes
EndUndoes
Redoes
EndRedoes
EndUndoRedoHistory
UndoRedoHistory
Layer: 1
Undoes
EndUndoes
Redoes
EndRedoes
EndUndoRedoHistory
Fore
SplineSet
79 516 m 1
 1043 516 l 1
 1043 659 l 1
 79 659 l 1
 79 516 l 1
EndSplineSet
EndChar

StartChar: multiply
Encoding: 462 215 268
Width: 904
VWidth: 0
Flags: HW
LayerCount: 2
UndoRedoHistory
Layer: 0
Undoes
EndUndoes
Redoes
EndRedoes
EndUndoRedoHistory
UndoRedoHistory
Layer: 1
Undoes
EndUndoes
Redoes
EndRedoes
EndUndoRedoHistory
Fore
SplineSet
724 193 m 1
 813 288 l 1
 813 288 573 545 546 572 c 1
 811 849 l 1
 716 944 l 1
 454 668 l 1
 190 947 l 1
 99 852 l 1
 362 572 l 1
 91 286 l 1
 182 192 l 1
 454 476 l 1
 724 193 l 1
EndSplineSet
EndChar

StartChar: n
Encoding: 110 110 269
Width: 1171
VWidth: 0
Flags: W
HStem: 944 138<466.373 783.649>
VStem: 146 180<580 795.625> 146 154<956.576 1060> 855 180<650 867.105>
LayerCount: 2
UndoRedoHistory
Layer: 0
Undoes
EndUndoes
Redoes
EndRedoes
EndUndoRedoHistory
UndoRedoHistory
Layer: 1
Undoes
EndUndoes
Redoes
EndRedoes
EndUndoRedoHistory
Fore
SplineSet
146 0 m 1xb0
 326 0 l 1
 326 580 l 2xd0
 326 776 396 944 645 944 c 0
 809 944 855 837 855 662 c 2
 855 0 l 1
 1035 0 l 1
 1035 650 l 2
 1035 935 923 1082 679 1082 c 0
 479 1082 356 991 284 858 c 1
 328 858 l 1
 300 1060 l 1
 146 1060 l 1
 146 0 l 1xb0
EndSplineSet
EndChar

StartChar: nine
Encoding: 57 57 274
Width: 1167
VWidth: 0
Flags: HW
LayerCount: 2
UndoRedoHistory
Layer: 0
Undoes
EndUndoes
Redoes
EndRedoes
EndUndoRedoHistory
UndoRedoHistory
Layer: 1
Undoes
EndUndoes
Redoes
EndRedoes
EndUndoRedoHistory
Fore
SplineSet
272 0 m 1
 487 0 l 1
 487 0 842 474 851 486 c 0
 979 661 1075 796 1075 1003 c 0
 1075 1247 901 1456 599 1456 c 0
 311 1456 123 1262 123 1006 c 0
 123 745 329 573 566 573 c 0
 774 573 902 744 915 764 c 1
 884 791 l 1
 884 791 728 598 649 493 c 1
 272 0 l 1
598 713 m 0
 406 713 301 834 301 1008 c 0
 301 1175 408 1314 605 1314 c 0
 801 1314 900 1179 900 1014 c 0
 900 788 734 713 598 713 c 0
EndSplineSet
EndChar

StartChar: notequal
Encoding: 467 8800 275
Width: 1127
VWidth: 0
Flags: HW
LayerCount: 2
UndoRedoHistory
Layer: 0
Undoes
EndUndoes
Redoes
EndRedoes
EndUndoRedoHistory
UndoRedoHistory
Layer: 1
Undoes
EndUndoes
Redoes
EndRedoes
EndUndoRedoHistory
Fore
SplineSet
356 47 m 1
 497 340 l 1
 1040 340 l 1
 1033 463 l 1
 552 463 l 1
 706 758 l 1
 1040 758 l 1
 1030 884 l 1
 762 884 l 1
 875 1151 l 1
 768 1166 l 1
 631 884 l 1
 105 884 l 1
 113 758 l 1
 575 758 l 1
 426 463 l 1
 106 463 l 1
 113 340 l 1
 365 340 l 1
 250 65 l 1
 356 47 l 1
EndSplineSet
EndChar

StartChar: numbersign
Encoding: 35 35 277
Width: 1155
VWidth: 0
Flags: HW
LayerCount: 2
UndoRedoHistory
Layer: 0
Undoes
EndUndoes
Redoes
EndRedoes
EndUndoRedoHistory
UndoRedoHistory
Layer: 1
Undoes
EndUndoes
Redoes
EndRedoes
EndUndoRedoHistory
Fore
SplineSet
679 517 m 1
 438 517 l 1
 520 936 l 1
 761 936 l 1
 679 517 l 1
576 -17 m 1
 696 -17 l 1
 782 422 l 1
 959 422 l 1
 974 517 l 1
 801 517 l 1
 883 936 l 1
 1045 936 l 1
 1060 1030 l 1
 901 1030 l 1
 977 1419 l 1
 856 1419 l 1
 780 1030 l 1
 539 1030 l 1
 615 1419 l 1
 493 1419 l 1
 417 1030 l 1
 243 1030 l 1
 230 936 l 1
 399 936 l 1
 317 517 l 1
 156 517 l 1
 143 422 l 1
 299 422 l 1
 213 -17 l 1
 334 -17 l 1
 419 422 l 1
 661 422 l 1
 576 -17 l 1
EndSplineSet
EndChar

StartChar: o
Encoding: 111 111 278
Width: 1196
VWidth: 0
Flags: W
HStem: -19 138<437.443 758.544> 944 138<436.735 760.551>
VStem: 96 184<294.77 761.169> 916 184<294.77 767.202>
LayerCount: 2
UndoRedoHistory
Layer: 0
Undoes
EndUndoes
Redoes
EndRedoes
EndUndoRedoHistory
UndoRedoHistory
Layer: 1
Undoes
EndUndoes
Redoes
EndRedoes
EndUndoRedoHistory
Fore
SplineSet
598 119 m 0
 386 119 280 288 280 528 c 0
 280 773 387 944 598 944 c 0
 814 944 916 773 916 528 c 0
 916 288 815 119 598 119 c 0
598 -19 m 0
 899 -19 1100 209 1100 530 c 0
 1100 858 911 1082 598 1082 c 0
 286 1082 96 859 96 530 c 0
 96 209 291 -19 598 -19 c 0
EndSplineSet
EndChar

StartChar: ogonek
Encoding: 473 731 283
Width: 530
VWidth: 0
Flags: HW
HStem: -416 113<249.73 435.393>
VStem: 97 146<-295.624 -133.317>
LayerCount: 2
UndoRedoHistory
Layer: 0
Undoes
EndUndoes
Redoes
EndRedoes
EndUndoRedoHistory
UndoRedoHistory
Layer: 1
Undoes
EndUndoes
Redoes
EndRedoes
EndUndoRedoHistory
Fore
SplineSet
438 -386 m 1
 435 -278 l 1
 417 -286 368 -303 324 -303 c 0
 280 -303 243 -278 243 -225 c 0
 243 -152 322 -45 384 0 c 1
 300 0 l 1
 200 -41 97 -152 97 -266 c 0
 97 -358 165 -416 288 -416 c 0
 339 -416 402 -402 438 -386 c 1
EndSplineSet
EndChar

StartChar: one
Encoding: 49 49 289
Width: 1150
VWidth: 0
Flags: HW
LayerCount: 2
UndoRedoHistory
Layer: 0
Undoes
EndUndoes
Redoes
EndRedoes
EndUndoRedoHistory
UndoRedoHistory
Layer: 1
Undoes
EndUndoes
Redoes
EndRedoes
EndUndoRedoHistory
Fore
SplineSet
204 0 m 1
 1040 0 l 1
 1040 140 l 1
 664 140 l 1
 731 73 l 1
 731 1437 l 1
 566 1437 l 1
 489 1383 321 1331 232 1311 c 1
 232 1167 l 1
 337 1182 519 1239 592 1299 c 1
 550 1323 l 1
 550 74 l 1
 617 140 l 1
 204 140 l 1
 204 0 l 1
EndSplineSet
EndChar

StartChar: onehalf
Encoding: 479 189 290
Width: 1612
VWidth: 0
Flags: HW
LayerCount: 2
UndoRedoHistory
Layer: 0
Undoes
EndUndoes
Redoes
EndRedoes
EndUndoRedoHistory
UndoRedoHistory
Layer: 1
Undoes
EndUndoes
Redoes
EndRedoes
EndUndoRedoHistory
Fore
SplineSet
107 612 m 1
 500 612 l 1
 500 727 l 1
 375 727 l 1
 375 1469 l 1
 250 1470 l 1
 227 1447 128 1385 92 1367 c 1
 92 1243 l 1
 118 1256 193 1298 229 1321 c 1
 229 727 l 1
 107 727 l 1
 107 612 l 1
1009 -11 m 1
 1533 -11 l 1
 1540 105 l 1
 1199 105 l 1
 1394 278 1547 398 1547 584 c 0
 1547 748 1412 837 1273 837 c 0
 1157 837 1043 781 989 689 c 1
 1062 605 l 1
 1118 680 1196 713 1272 713 c 0
 1342 713 1408 668 1408 576 c 0
 1408 452 1154 246 1010 101 c 1
 1009 -11 l 1
281 8 m 1
 426 8 l 1
 1341 1470 l 1
 1197 1470 l 1
 281 8 l 1
EndSplineSet
EndChar

StartChar: onequarter
Encoding: 480 188 291
Width: 1563
VWidth: 0
Flags: HW
LayerCount: 2
UndoRedoHistory
Layer: 0
Undoes
EndUndoes
Redoes
EndRedoes
EndUndoRedoHistory
UndoRedoHistory
Layer: 1
Undoes
EndUndoes
Redoes
EndRedoes
EndUndoRedoHistory
Fore
SplineSet
73 608 m 1
 509 608 l 1
 509 724 l 1
 371 724 l 1
 371 1469 l 1
 255 1470 l 1
 232 1447 94 1378 63 1367 c 1
 63 1249 l 1
 92 1259 188 1299 225 1321 c 1
 225 724 l 1
 73 724 l 1
 73 608 l 1
1300 4 m 1
 1429 4 l 1
 1430 185 l 1
 1551 185 l 1
 1543 295 l 1
 1431 295 l 1
 1431 838 l 1
 1290 838 l 1
 922 285 l 1
 922 185 l 1
 1300 185 l 1
 1300 4 l 1
309 0 m 1
 453 0 l 1
 1366 1470 l 1
 1225 1470 l 1
 309 0 l 1
1080 295 m 1
 1299 644 l 1
 1299 295 l 1
 1080 295 l 1
EndSplineSet
EndChar

StartChar: ordmasculine
Encoding: 481 186 292
Width: 818
VWidth: 0
Flags: HW
LayerCount: 2
UndoRedoHistory
Layer: 0
Undoes
EndUndoes
Redoes
EndRedoes
EndUndoRedoHistory
UndoRedoHistory
Layer: 1
Undoes
EndUndoes
Redoes
EndRedoes
EndUndoRedoHistory
Fore
SplineSet
176 1175 m 0
 176 1338 255 1478 409 1478 c 0
 568 1478 650 1336 650 1172 c 0
 650 1013 572 874 409 874 c 0
 254 874 176 1015 176 1175 c 0
741 1174 m 0
 741 1393 623 1549 409 1549 c 0
 201 1549 77 1390 77 1174 c 0
 77 962 201 804 409 804 c 0
 605 804 741 965 741 1174 c 0
EndSplineSet
EndChar

StartChar: oslash
Encoding: 482 248 293
Width: 1170
VWidth: 0
Flags: HW
LayerCount: 2
UndoRedoHistory
Layer: 0
Undoes
EndUndoes
Redoes
EndRedoes
EndUndoRedoHistory
UndoRedoHistory
Layer: 1
Undoes
EndUndoes
Redoes
EndRedoes
EndUndoRedoHistory
Fore
SplineSet
279 -150 m 1
 1003 1177 l 1
 931 1215 l 1
 214 -111 l 1
 279 -150 l 1
EndSplineSet
Refer: 278 111 N 1 0 0 1 -13 0 2
EndChar

StartChar: p
Encoding: 112 112 296
Width: 1201
VWidth: 0
Flags: HW
HStem: -19 138<479.573 784.869> 944 138<476.646 787.265>
VStem: 146 181<290.045 786.489> 146 151<921.228 1060> 924 181<281.904 781.463>
LayerCount: 2
UndoRedoHistory
Layer: 0
Undoes
EndUndoes
Redoes
EndRedoes
EndUndoRedoHistory
UndoRedoHistory
Layer: 1
Undoes
EndUndoes
Redoes
EndRedoes
EndUndoRedoHistory
Fore
SplineSet
146 -459 m 5xd8
 327 -449 l 5
 327 -59 l 5xe8
 317 285 l 5
 275 256 l 5
 323 130 448 -19 660 -19 c 4
 941 -19 1105 208 1105 528 c 4
 1105 853 951 1082 663 1082 c 4
 489 1082 351 981 282 821 c 5
 322 818 l 5
 297 1060 l 5
 146 1060 l 5
 146 -459 l 5xd8
630 119 m 4
 436 119 324 271 324 546 c 4
 325 789 421 944 636 944 c 4
 838 944 924 779 924 530 c 4
 924 277 829 119 630 119 c 4
EndSplineSet
EndChar

StartChar: paragraph
Encoding: 485 182 297
Width: 1056
VWidth: 0
Flags: HW
LayerCount: 2
UndoRedoHistory
Layer: 0
Undoes
EndUndoes
Redoes
EndRedoes
EndUndoRedoHistory
UndoRedoHistory
Layer: 1
Undoes
EndUndoes
Redoes
EndRedoes
EndUndoRedoHistory
Fore
SplineSet
458 -97 m 1
 581 -97 l 1
 581 1385 l 1
 769 1385 l 1
 769 -97 l 1
 892 -97 l 1
 892 1385 l 1
 966 1385 l 1
 966 1506 l 1
 507 1506 l 2
 193 1506 84 1345 84 1176 c 0
 84 1003 190 845 458 845 c 1
 458 -97 l 1
EndSplineSet
EndChar

StartChar: parenleft
Encoding: 40 40 298
Width: 666
VWidth: 0
Flags: HW
LayerCount: 2
UndoRedoHistory
Layer: 0
Undoes
EndUndoes
Redoes
EndRedoes
EndUndoRedoHistory
UndoRedoHistory
Layer: 1
Undoes
EndUndoes
Redoes
EndRedoes
EndUndoRedoHistory
Fore
SplineSet
426 -217 m 1
 593 -217 l 1
 415 66 339 372 339 688 c 0
 339 994 426 1282 594 1539 c 1
 424 1539 l 1
 262 1306 164 1008 164 684 c 0
 164 335 263 11 426 -217 c 1
EndSplineSet
EndChar

StartChar: parenright
Encoding: 41 41 299
Width: 669
VWidth: 0
Flags: HW
LayerCount: 2
UndoRedoHistory
Layer: 0
Undoes
EndUndoes
Redoes
EndRedoes
EndUndoRedoHistory
UndoRedoHistory
Layer: 1
Undoes
EndUndoes
Redoes
EndRedoes
EndUndoRedoHistory
Fore
SplineSet
96 -217 m 1
 264 -217 l 1
 422 0 524 341 524 692 c 0
 524 1014 431 1295 264 1539 c 1
 95 1539 l 1
 277 1247 349 991 349 693 c 0
 349 368 260 31 96 -217 c 1
EndSplineSet
EndChar

StartChar: partialdiff
Encoding: 486 8706 300
Width: 1146
VWidth: 0
Flags: HW
LayerCount: 2
UndoRedoHistory
Layer: 0
Undoes
EndUndoes
Redoes
EndRedoes
EndUndoRedoHistory
UndoRedoHistory
Layer: 1
Undoes
EndUndoes
Redoes
EndRedoes
EndUndoRedoHistory
Fore
SplineSet
492 -27 m 0
 223 -27 106 177 106 440 c 0
 106 785 304 1049 585 1049 c 0
 719 1049 822 987 888 877 c 1
 888 895 889 927 889 954 c 0
 889 1271 776 1467 565 1467 c 0
 465 1467 367 1424 289 1369 c 1
 276 1512 l 1
 357 1568 469 1608 589 1608 c 0
 879 1608 1037 1383 1037 892 c 0
 1037 440 876 -27 492 -27 c 0
493 116 m 0
 704 116 844 373 875 687 c 1
 841 805 750 911 610 911 c 0
 408 911 249 694 249 439 c 0
 249 244 344 116 493 116 c 0
EndSplineSet
EndChar

StartChar: percent
Encoding: 37 37 301
Width: 1765
VWidth: 0
Flags: HW
LayerCount: 2
UndoRedoHistory
Layer: 0
Undoes
EndUndoes
Redoes
EndRedoes
EndUndoRedoHistory
UndoRedoHistory
Layer: 1
Undoes
EndUndoes
Redoes
EndRedoes
EndUndoRedoHistory
Fore
SplineSet
1392 -13 m 0
 1165 -13 1052 150 1052 359 c 0
 1052 569 1169 730 1392 730 c 0
 1620 730 1734 572 1734 359 c 0
 1734 150 1617 -13 1392 -13 c 0
1393 86 m 0
 1545 86 1611 206 1611 360 c 0
 1611 519 1544 631 1393 631 c 0
 1240 631 1174 513 1174 360 c 0
 1174 202 1241 86 1393 86 c 0
404 804 m 0
 556 804 622 924 622 1078 c 0
 622 1237 555 1349 404 1349 c 0
 251 1349 184 1231 184 1078 c 0
 184 920 252 804 404 804 c 0
403 705 m 0
 176 705 63 868 63 1077 c 0
 63 1287 180 1448 403 1448 c 0
 631 1448 745 1290 745 1077 c 0
 745 868 628 705 403 705 c 0
416 0 m 1
 1245 1437 l 1
 1375 1437 l 1
 555 0 l 1
 416 0 l 1
EndSplineSet
EndChar

StartChar: period
Encoding: 46 46 302
Width: 459
VWidth: 0
Flags: HW
LayerCount: 2
UndoRedoHistory
Layer: 0
Undoes
EndUndoes
Redoes
EndRedoes
EndUndoRedoHistory
UndoRedoHistory
Layer: 1
Undoes
EndUndoes
Redoes
EndRedoes
EndUndoRedoHistory
Fore
SplineSet
241 -9 m 0
 317 -9 355 48 355 106 c 0
 355 164 317 222 241 222 c 0
 164 222 126 164 126 106 c 0
 126 48 165 -9 241 -9 c 0
EndSplineSet
EndChar

StartChar: periodcentered
Encoding: 487 183 303
Width: 365
VWidth: 0
Flags: HW
LayerCount: 2
UndoRedoHistory
Layer: 0
Undoes
EndUndoes
Redoes
EndRedoes
EndUndoRedoHistory
UndoRedoHistory
Layer: 1
Undoes
EndUndoes
Redoes
EndRedoes
EndUndoRedoHistory
Fore
SplineSet
98 547 m 1
 98 707 l 1
 262 707 l 1
 262 547 l 1
 98 547 l 1
EndSplineSet
EndChar

StartChar: perthousand
Encoding: 488 8240 304
Width: 2245
VWidth: 0
Flags: HW
LayerCount: 2
UndoRedoHistory
Layer: 0
Undoes
EndUndoes
Redoes
EndRedoes
EndUndoRedoHistory
UndoRedoHistory
Layer: 1
Undoes
EndUndoes
Redoes
EndRedoes
EndUndoRedoHistory
Fore
SplineSet
392 895 m 0
 500 895 553 1012 553 1147 c 0
 553 1290 500 1401 388 1401 c 0
 278 1401 226 1284 226 1149 c 0
 226 1006 279 895 392 895 c 0
388 775 m 0
 203 775 100 925 100 1149 c 0
 100 1362 203 1518 390 1518 c 0
 579 1518 678 1373 678 1145 c 0
 678 934 572 775 388 775 c 0
247 -21 m 1
 1081 1507 l 1
 1234 1507 l 1
 379 -21 l 1
 247 -21 l 1
1072 91 m 0
 1201 91 1266 211 1266 345 c 0
 1266 487 1205 594 1071 594 c 0
 942 594 879 480 879 345 c 0
 879 202 943 91 1072 91 c 0
1070 -29 m 0
 856 -29 751 121 751 345 c 0
 751 557 854 716 1072 716 c 0
 1290 716 1391 568 1391 342 c 0
 1391 131 1285 -29 1070 -29 c 0
1827 91 m 0
 1956 91 2021 209 2021 345 c 0
 2021 484 1952 594 1824 594 c 0
 1691 594 1628 480 1628 345 c 0
 1628 202 1693 91 1827 91 c 0
1821 -29 m 0
 1609 -29 1504 121 1504 345 c 0
 1504 557 1610 716 1827 716 c 0
 2041 716 2143 572 2143 342 c 0
 2143 131 2036 -29 1821 -29 c 0
EndSplineSet
EndChar

StartChar: plus
Encoding: 43 43 305
Width: 1064
VWidth: 0
Flags: HW
LayerCount: 2
UndoRedoHistory
Layer: 0
Undoes
EndUndoes
Redoes
EndRedoes
EndUndoRedoHistory
UndoRedoHistory
Layer: 1
Undoes
EndUndoes
Redoes
EndRedoes
EndUndoRedoHistory
Fore
SplineSet
479 167 m 1
 615 167 l 1
 615 565 l 1
 990 565 l 1
 990 691 l 1
 616 691 l 1
 616 1084 l 1
 480 1084 l 1
 480 691 l 1
 100 691 l 1
 100 565 l 1
 479 565 l 1
 479 167 l 1
EndSplineSet
EndChar

StartChar: plusminus
Encoding: 489 177 306
Width: 1119
VWidth: 0
Flags: HW
LayerCount: 2
UndoRedoHistory
Layer: 0
Undoes
EndUndoes
Redoes
EndRedoes
EndUndoRedoHistory
UndoRedoHistory
Layer: 1
Undoes
EndUndoes
Redoes
EndRedoes
EndUndoRedoHistory
Fore
SplineSet
97 0 m 1
 97 125 l 1
 1023 125 l 1
 1023 0 l 1
 97 0 l 1
484 213 m 1
 621 213 l 1
 621 596 l 1
 984 596 l 1
 984 726 l 1
 620 726 l 1
 620 1099 l 1
 484 1099 l 1
 484 726 l 1
 115 726 l 1
 115 596 l 1
 484 596 l 1
 484 213 l 1
EndSplineSet
EndChar

StartChar: product
Encoding: 490 8719 307
Width: 1387
VWidth: 0
Flags: HW
LayerCount: 2
UndoRedoHistory
Layer: 0
Undoes
EndUndoes
Redoes
EndRedoes
EndUndoRedoHistory
UndoRedoHistory
Layer: 1
Undoes
EndUndoes
Redoes
EndRedoes
EndUndoRedoHistory
Fore
SplineSet
126 0 m 1
 126 1456 l 1
 1264 1456 l 1
 1264 0 l 1
 1092 0 l 1
 1092 1306 l 1
 299 1306 l 1
 299 0 l 1
 126 0 l 1
EndSplineSet
EndChar

StartChar: q
Encoding: 113 113 308
Width: 1226
VWidth: 0
Flags: HW
LayerCount: 2
UndoRedoHistory
Layer: 0
Undoes
EndUndoes
Redoes
EndRedoes
EndUndoRedoHistory
UndoRedoHistory
Layer: 1
Undoes
EndUndoes
Redoes
EndRedoes
EndUndoRedoHistory
Fore
SplineSet
903 -459 m 1
 1083 -450 l 1
 1083 1060 l 1
 920 1060 l 1
 896 831 l 1
 933 840 l 1
 874 973 762 1082 561 1082 c 0
 264 1082 97 851 97 525 c 0
 97 209 283 -19 559 -19 c 0
 783 -19 895 111 953 259 c 1
 910 278 l 1
 903 -59 l 1
 903 -459 l 1
588 118 m 0
 381 118 276 279 276 532 c 0
 276 780 378 943 588 943 c 0
 811 943 902 792 902 548 c 0
 903 273 821 118 588 118 c 0
EndSplineSet
EndChar

StartChar: question
Encoding: 63 63 309
Width: 897
VWidth: 0
Flags: HW
LayerCount: 2
UndoRedoHistory
Layer: 0
Undoes
EndUndoes
Redoes
EndRedoes
EndUndoRedoHistory
UndoRedoHistory
Layer: 1
Undoes
EndUndoes
Redoes
EndRedoes
EndUndoRedoHistory
Fore
SplineSet
435 418 m 1
 555 749 784 897 784 1161 c 0
 784 1362 619 1473 440 1473 c 0
 304 1473 199 1434 118 1379 c 1
 160 1249 l 1
 207 1278 305 1333 420 1333 c 0
 549 1333 628 1269 628 1141 c 0
 628 922 367 668 353 418 c 1
 435 418 l 1
397 -12 m 0
 477 -12 516 47 516 108 c 0
 516 168 477 228 397 228 c 0
 317 228 277 168 277 108 c 0
 277 48 317 -12 397 -12 c 0
EndSplineSet
EndChar

StartChar: quotedbl
Encoding: 34 34 311
Width: 627
VWidth: 0
Flags: HW
LayerCount: 2
UndoRedoHistory
Layer: 0
Undoes
EndUndoes
Redoes
EndRedoes
EndUndoRedoHistory
UndoRedoHistory
Layer: 1
Undoes
EndUndoes
Redoes
EndRedoes
EndUndoRedoHistory
Fore
SplineSet
417 985 m 1
 515 985 l 1
 544 1461 l 1
 384 1461 l 1
 417 985 l 1
135 985 m 1
 232 985 l 1
 260 1461 l 1
 101 1461 l 1
 135 985 l 1
EndSplineSet
EndChar

StartChar: quotedblbase
Encoding: 492 8222 312
Width: 701
VWidth: 0
Flags: HW
LayerCount: 2
UndoRedoHistory
Layer: 0
Undoes
EndUndoes
Redoes
EndRedoes
EndUndoRedoHistory
UndoRedoHistory
Layer: 1
Undoes
EndUndoes
Redoes
EndRedoes
EndUndoRedoHistory
Fore
SplineSet
110 -247 m 1
 219 -247 l 1
 345 209 l 1
 195 209 l 1
 110 -247 l 1
380 -247 m 1
 489 -247 l 1
 619 209 l 1
 466 209 l 1
 380 -247 l 1
EndSplineSet
EndChar

StartChar: quotedblleft
Encoding: 493 8220 313
Width: 716
VWidth: 0
Flags: HW
LayerCount: 2
UndoRedoHistory
Layer: 0
Undoes
EndUndoes
Redoes
EndRedoes
EndUndoRedoHistory
UndoRedoHistory
Layer: 1
Undoes
EndUndoes
Redoes
EndRedoes
EndUndoRedoHistory
Fore
SplineSet
252 1066 m 1
 340 1522 l 1
 224 1521 l 1
 100 1064 l 1
 252 1066 l 1
555 1066 m 1
 637 1522 l 1
 524 1521 l 1
 399 1064 l 1
 555 1066 l 1
EndSplineSet
EndChar

StartChar: quotedblright
Encoding: 494 8221 314
Width: 681
VWidth: 0
Flags: HW
LayerCount: 2
UndoRedoHistory
Layer: 0
Undoes
EndUndoes
Redoes
EndRedoes
EndUndoRedoHistory
UndoRedoHistory
Layer: 1
Undoes
EndUndoes
Redoes
EndRedoes
EndUndoRedoHistory
Fore
SplineSet
74 1096 m 1
 183 1096 l 1
 313 1511 l 1
 163 1511 l 1
 74 1096 l 1
372 1099 m 1
 481 1099 l 1
 613 1511 l 1
 459 1511 l 1
 372 1099 l 1
EndSplineSet
EndChar

StartChar: quoteleft
Encoding: 495 8216 315
Width: 410
VWidth: 0
Flags: HW
LayerCount: 2
UndoRedoHistory
Layer: 0
Undoes
EndUndoes
Redoes
EndRedoes
EndUndoRedoHistory
UndoRedoHistory
Layer: 1
Undoes
EndUndoes
Redoes
EndRedoes
EndUndoRedoHistory
Fore
SplineSet
179 1017 m 1
 311 1017 l 1
 282 1437 l 1
 155 1437 l 1
 179 1017 l 1
EndSplineSet
EndChar

StartChar: quoteright
Encoding: 496 8217 316
Width: 416
VWidth: 0
Flags: HW
LayerCount: 2
UndoRedoHistory
Layer: 0
Undoes
EndUndoes
Redoes
EndRedoes
EndUndoRedoHistory
UndoRedoHistory
Layer: 1
Undoes
EndUndoes
Redoes
EndRedoes
EndUndoRedoHistory
Fore
SplineSet
101 1017 m 1
 209 1017 l 1
 337 1437 l 1
 190 1437 l 1
 101 1017 l 1
EndSplineSet
EndChar

StartChar: quotesinglbase
Encoding: 497 8218 317
Width: 415
VWidth: 0
Flags: HW
LayerCount: 2
UndoRedoHistory
Layer: 0
Undoes
EndUndoes
Redoes
EndRedoes
EndUndoRedoHistory
UndoRedoHistory
Layer: 1
Undoes
EndUndoes
Redoes
EndRedoes
EndUndoRedoHistory
Fore
SplineSet
83 -247 m 1
 194 -247 l 1
 323 209 l 1
 172 209 l 1
 83 -247 l 1
EndSplineSet
EndChar

StartChar: quotesingle
Encoding: 39 39 318
Width: 335
VWidth: 0
Flags: HW
LayerCount: 2
UndoRedoHistory
Layer: 0
Undoes
EndUndoes
Redoes
EndRedoes
EndUndoRedoHistory
UndoRedoHistory
Layer: 1
Undoes
EndUndoes
Redoes
EndRedoes
EndUndoRedoHistory
Fore
SplineSet
118 939 m 1
 226 939 l 1
 245 1433 l 1
 98 1433 l 1
 118 939 l 1
EndSplineSet
EndChar

StartChar: r
Encoding: 114 114 319
Width: 780
VWidth: 0
Flags: HW
HStem: 974 94
VStem: 169 122 169 92
LayerCount: 2
UndoRedoHistory
Layer: 0
Undoes
EndUndoes
Redoes
EndRedoes
EndUndoRedoHistory
UndoRedoHistory
Layer: 1
Undoes
EndUndoes
Redoes
EndRedoes
EndUndoRedoHistory
Fore
SplineSet
146 0 m 1
 327 0 l 1
 327 596 l 2
 327 777 457 923 642 923 c 0
 665 923 691 920 718 915 c 1
 724 1064 l 1
 700 1068 674 1070 645 1070 c 0
 513 1070 362 994 278 788 c 1
 319 781 l 1
 292 1060 l 1
 146 1060 l 1
 146 0 l 1
EndSplineSet
EndChar

StartChar: radical
Encoding: 499 8730 321
Width: 1214
VWidth: 0
Flags: HW
LayerCount: 2
UndoRedoHistory
Layer: 0
Undoes
EndUndoes
Redoes
EndRedoes
EndUndoRedoHistory
UndoRedoHistory
Layer: 1
Undoes
EndUndoes
Redoes
EndRedoes
EndUndoRedoHistory
Fore
SplineSet
582 -162 m 1
 258 723 l 1
 109 693 l 1
 94 811 l 1
 348 866 l 1
 582 224 l 1
 640 43 l 1
 772 587 903 1128 1036 1672 c 1
 1146 1672 l 1
 717 -162 l 1
 582 -162 l 1
EndSplineSet
EndChar

StartChar: registered
Encoding: 502 174 324
Width: 1721
VWidth: 0
Flags: HW
LayerCount: 2
UndoRedoHistory
Layer: 0
Undoes
EndUndoes
Redoes
EndRedoes
EndUndoRedoHistory
UndoRedoHistory
Layer: 1
Undoes
EndUndoes
Redoes
EndRedoes
EndUndoRedoHistory
Fore
SplineSet
557 288 m 1
 679 288 l 1
 679 723 l 1
 888 723 l 1
 901 710 1106 288 1106 288 c 1
 1240 288 l 1
 1240 288 1031 710 1008 740 c 1
 1144 757 1205 846 1205 984 c 0
 1205 1155 1114 1231 881 1231 c 2
 557 1231 l 1
 557 288 l 1
679 829 m 1
 679 1125 l 1
 861 1125 l 2
 1025 1125 1087 1108 1087 980 c 0
 1087 870 1038 829 894 829 c 2
 679 829 l 1
860 64 m 0
 517 64 200 308 200 740 c 0
 200 1171 516 1416 859 1416 c 0
 1203 1416 1523 1170 1523 739 c 0
 1523 308 1204 64 860 64 c 0
860 -27 m 0
 1250 -27 1633 243 1633 740 c 0
 1633 1236 1249 1508 859 1508 c 0
 470 1508 89 1237 89 740 c 0
 89 243 471 -27 860 -27 c 0
EndSplineSet
EndChar

StartChar: rho
Encoding: 503 961 325
Width: 1195
VWidth: 0
Flags: HW
LayerCount: 2
UndoRedoHistory
Layer: 0
Undoes
EndUndoes
Redoes
EndRedoes
EndUndoRedoHistory
UndoRedoHistory
Layer: 1
Undoes
EndUndoes
Redoes
EndRedoes
EndUndoRedoHistory
Fore
SplineSet
119 -459 m 1
 300 -449 l 1
 300 -59 l 2
 300 7 299 74 295 144 c 1
 365 46 501 -23 642 -23 c 0
 918 -23 1109 209 1109 525 c 0
 1109 850 937 1082 639 1082 c 0
 493 1082 359 1012 301 886 c 1
 283 1060 l 1
 119 1060 l 1
 119 -459 l 1
613 114 m 0
 380 114 300 273 300 548 c 0
 300 792 391 945 614 945 c 0
 824 945 928 780 928 531 c 0
 928 277 820 114 613 114 c 0
EndSplineSet
EndChar

StartChar: ring
Encoding: 504 730 326
Width: 568
VWidth: 0
Flags: HW
HStem: 1208 80<208.361 360.433> 1487 82<207.783 361.535>
VStem: 96 93<1302.62 1471.74> 380 92<1302.62 1471.52>
LayerCount: 2
UndoRedoHistory
Layer: 0
Undoes
EndUndoes
Redoes
EndRedoes
EndUndoRedoHistory
UndoRedoHistory
Layer: 1
Undoes
EndUndoes
Redoes
EndRedoes
EndUndoRedoHistory
Fore
SplineSet
284 1288 m 0
 227 1288 189 1333 189 1388 c 0
 189 1441 229 1487 284 1487 c 0
 340 1487 380 1441 380 1388 c 0
 380 1333 340 1288 284 1288 c 0
284 1208 m 0
 394 1208 472 1289 472 1389 c 0
 472 1488 396 1569 284 1569 c 0
 173 1569 96 1489 96 1389 c 0
 96 1289 174 1208 284 1208 c 0
EndSplineSet
EndChar

StartChar: s
Encoding: 115 115 327
Width: 933
VWidth: 0
Flags: HW
HStem: -19 133<233.504 635.741> 948 134<331.747 721.938>
VStem: 120 159<692.421 894.16> 686 158<168.416 398.719>
LayerCount: 2
UndoRedoHistory
Layer: 0
Undoes
EndUndoes
Redoes
EndRedoes
EndUndoRedoHistory
UndoRedoHistory
Layer: 1
Undoes
EndUndoes
Redoes
EndRedoes
EndUndoRedoHistory
Fore
SplineSet
471 -19 m 0
 705 -19 844 87 844 285 c 0
 844 445 777 536 552 602 c 2
 455 631 l 2
 314 673 279 713 279 802 c 0
 279 885 354 948 504 948 c 0
 616 948 692 918 753 891 c 1
 797 1017 l 1
 702 1061 612 1082 485 1082 c 0
 259 1082 120 960 120 787 c 0
 120 652 185 557 379 501 c 2
 486 470 l 2
 654 421 688 375 686 273 c 0
 684 169 617 114 472 114 c 0
 340 114 224 160 174 182 c 1
 129 57 l 1
 163 38 303 -19 471 -19 c 0
EndSplineSet
EndChar

StartChar: section
Encoding: 253 167 333
Width: 951
VWidth: 0
Flags: HW
HStem: -18 85<230.342 636.546> 1458 87<326.486 746.852>
VStem: 132 104<694.124 930.689 1175.48 1375.28> 731 102<151.617 391.122 600.85 861.313>
LayerCount: 2
UndoRedoHistory
Layer: 0
Undoes
EndUndoes
Redoes
EndRedoes
EndUndoRedoHistory
UndoRedoHistory
Layer: 1
Undoes
EndUndoes
Redoes
EndRedoes
EndUndoRedoHistory
Fore
SplineSet
833 271 m 0
 833 69 651 -18 449 -18 c 0
 343 -18 231 5 138 48 c 1
 172 135 l 1
 251 93 357 67 454 67 c 0
 602 67 731 126 731 278 c 0
 731 389 659 435 461 503 c 0
 260 573 132 632 132 792 c 0
 132 908 202 986 297 1035 c 1
 194 1093 143 1158 143 1274 c 0
 143 1462 320 1545 517 1545 c 0
 613 1545 715 1524 802 1487 c 1
 771 1405 l 1
 701 1438 608 1458 519 1458 c 0
 378 1458 249 1408 249 1282 c 0
 249 1139 356 1109 543 1034 c 1
 753 951 841 904 841 746 c 0
 841 630 799 554 687 507 c 1
 778 456 833 380 833 271 c 0
607 547 m 1
 671 581 738 616 738 758 c 0
 738 859 641 898 505 952 c 1
 373 1003 l 1
 308 979 236 902 236 797 c 0
 236 683 329 658 489 594 c 2
 607 547 l 1
EndSplineSet
EndChar

StartChar: semicolon
Encoding: 59 59 334
Width: 497
VWidth: 0
Flags: HW
LayerCount: 2
UndoRedoHistory
Layer: 0
Undoes
EndUndoes
Redoes
EndRedoes
EndUndoRedoHistory
UndoRedoHistory
Layer: 1
Undoes
EndUndoes
Redoes
EndRedoes
EndUndoRedoHistory
Fore
SplineSet
166 846 m 1
 359 846 l 1
 359 1060 l 1
 166 1060 l 1
 166 846 l 1
137 -300 m 1
 242 -300 l 1
 363 190 l 1
 191 190 l 1
 137 -300 l 1
EndSplineSet
EndChar

StartChar: seven
Encoding: 55 55 335
Width: 1153
VWidth: 0
Flags: HW
LayerCount: 2
UndoRedoHistory
Layer: 0
Undoes
EndUndoes
Redoes
EndRedoes
EndUndoRedoHistory
UndoRedoHistory
Layer: 1
Undoes
EndUndoes
Redoes
EndRedoes
EndUndoRedoHistory
Fore
SplineSet
328 1 m 1
 512 1 l 1
 1014 1309 l 1
 1014 1437 l 1
 160 1437 l 1
 177 1290 l 1
 821 1290 l 1
 328 1 l 1
EndSplineSet
EndChar

StartChar: six
Encoding: 54 54 336
Width: 1166
VWidth: 0
Flags: HW
LayerCount: 2
UndoRedoHistory
Layer: 0
Undoes
EndUndoes
Redoes
EndRedoes
EndUndoRedoHistory
UndoRedoHistory
Layer: 1
Undoes
EndUndoes
Redoes
EndRedoes
EndUndoRedoHistory
Fore
SplineSet
604 -19 m 0
 892 -19 1080 176 1080 430 c 0
 1080 690 874 862 637 862 c 0
 422 862 304 688 289 671 c 1
 320 641 l 1
 320 641 477 846 551 955 c 1
 888 1437 l 1
 680 1437 l 1
 344 956 l 2
 217 774 129 643 129 434 c 0
 129 190 302 -19 604 -19 c 0
599 122 m 0
 403 122 304 258 304 423 c 0
 304 647 469 723 605 723 c 0
 797 723 902 602 902 429 c 0
 902 263 796 122 599 122 c 0
EndSplineSet
EndChar

StartChar: slash
Encoding: 47 47 337
Width: 928
VWidth: 0
Flags: HW
LayerCount: 2
UndoRedoHistory
Layer: 0
Undoes
EndUndoes
Redoes
EndRedoes
EndUndoRedoHistory
UndoRedoHistory
Layer: 1
Undoes
EndUndoes
Redoes
EndRedoes
EndUndoRedoHistory
Fore
SplineSet
81 -191 m 1
 214 -191 l 1
 873 1412 l 1
 737 1412 l 1
 81 -191 l 1
EndSplineSet
EndChar

StartChar: sterling
Encoding: 510 163 339
Width: 1097
VWidth: 0
Flags: HW
LayerCount: 2
UndoRedoHistory
Layer: 0
Undoes
EndUndoes
Redoes
EndRedoes
EndUndoRedoHistory
UndoRedoHistory
Layer: 1
Undoes
EndUndoes
Redoes
EndRedoes
EndUndoRedoHistory
Fore
SplineSet
103 0 m 1
 91 133 l 1
 270 151 l 1
 270 658 l 1
 90 658 l 1
 90 788 l 1
 270 788 l 1
 270 893 l 2
 270 1189 334 1457 681 1457 c 0
 825 1457 939 1403 1025 1330 c 1
 952 1215 l 1
 867 1280 782 1316 682 1316 c 0
 491 1316 431 1177 431 964 c 2
 431 788 l 1
 829 788 l 1
 829 658 l 1
 431 658 l 1
 431 153 l 1
 1040 153 l 1
 1028 0 l 1
 103 0 l 1
EndSplineSet
EndChar

StartChar: summation
Encoding: 511 8721 340
Width: 1216
VWidth: 0
Flags: HW
LayerCount: 2
UndoRedoHistory
Layer: 0
Undoes
EndUndoes
Redoes
EndRedoes
EndUndoRedoHistory
UndoRedoHistory
Layer: 1
Undoes
EndUndoes
Redoes
EndRedoes
EndUndoRedoHistory
Fore
SplineSet
77 -344 m 1
 1159 -344 l 1
 1159 -188 l 1
 274 -188 l 1
 878 584 l 1
 298 1333 l 1
 1121 1333 l 1
 1121 1481 l 1
 99 1481 l 1
 99 1382 l 1
 678 576 l 1
 77 -249 l 1
 77 -344 l 1
EndSplineSet
EndChar

StartChar: t
Encoding: 116 116 341
Width: 805
VWidth: 0
Flags: HW
HStem: -12 131<449.218 729.161>
VStem: 222 181<169.005 330> 279 124<1247.59 1325>
LayerCount: 2
UndoRedoHistory
Layer: 0
Undoes
EndUndoes
Redoes
EndRedoes
EndUndoRedoHistory
UndoRedoHistory
Layer: 1
Undoes
EndUndoes
Redoes
EndRedoes
EndUndoRedoHistory
Fore
SplineSet
541 -12 m 0xc0
 657 -12 729 11 729 11 c 1
 729 130 l 1
 729 130 639 119 576 119 c 0
 471 119 403 157 403 328 c 2xc0
 403 986 l 1
 367 948 l 1
 713 948 l 1
 713 1060 l 1
 367 1060 l 1
 403 1018 l 1
 403 1329 l 1
 279 1325 l 1xa0
 224 1028 l 1
 273 1063 l 1
 72 1049 l 1
 66 948 l 1
 258 948 l 1
 222 987 l 1
 222 330 l 2
 222 94 333 -12 541 -12 c 0xc0
EndSplineSet
EndChar

StartChar: tbar
Encoding: 512 359 342
Width: 837
VWidth: 0
Flags: HW
LayerCount: 2
UndoRedoHistory
Layer: 0
Undoes
EndUndoes
Redoes
EndRedoes
EndUndoRedoHistory
UndoRedoHistory
Layer: 1
Undoes
EndUndoes
Redoes
EndRedoes
EndUndoRedoHistory
Fore
SplineSet
548 -19 m 0
 288 -19 268 108 268 433 c 2
 268 622 l 1
 117 622 l 1
 117 744 l 1
 268 744 l 1
 268 954 l 1
 105 954 l 1
 118 1069 l 1
 268 1069 l 1
 310 1311 l 1
 431 1319 l 1
 431 1069 l 1
 714 1069 l 1
 714 954 l 1
 431 954 l 1
 431 744 l 1
 635 744 l 1
 635 622 l 1
 431 622 l 1
 431 357 l 2
 431 157 454 114 585 114 c 0
 603 114 643 120 718 125 c 1
 733 -6 l 1
 611 -17 581 -19 548 -19 c 0
EndSplineSet
EndChar

StartChar: three
Encoding: 51 51 345
Width: 1159
VWidth: 0
Flags: HW
LayerCount: 2
UndoRedoHistory
Layer: 0
Undoes
EndUndoes
Redoes
EndRedoes
EndUndoRedoHistory
UndoRedoHistory
Layer: 1
Undoes
EndUndoes
Redoes
EndRedoes
EndUndoRedoHistory
Fore
SplineSet
553 -22 m 0
 843 -22 1043 128 1043 389 c 0
 1043 592 923 723 745 761 c 1
 908 805 1006 906 1006 1092 c 0
 1006 1321 799 1456 548 1456 c 0
 393 1456 259 1418 144 1347 c 1
 200 1217 l 1
 293 1276 419 1313 540 1313 c 0
 707 1313 830 1230 830 1080 c 0
 830 869 632 835 429 829 c 1
 382 829 l 1
 382 685 l 1
 427 685 l 1
 672 680 863 637 863 391 c 0
 863 209 732 127 540 127 c 0
 410 127 288 169 208 218 c 1
 149 92 l 1
 234 37 377 -22 553 -22 c 0
EndSplineSet
EndChar

StartChar: threequarters
Encoding: 515 190 346
Width: 1576
VWidth: 0
Flags: HW
LayerCount: 2
UndoRedoHistory
Layer: 0
Undoes
EndUndoes
Redoes
EndRedoes
EndUndoRedoHistory
UndoRedoHistory
Layer: 1
Undoes
EndUndoes
Redoes
EndRedoes
EndUndoRedoHistory
Fore
SplineSet
332 612 m 0
 478 612 598 705 598 864 c 0
 598 959 541 1035 442 1067 c 1
 546 1095 579 1182 579 1238 c 0
 579 1391 455 1466 329 1466 c 0
 241 1466 128 1432 70 1372 c 1
 126 1281 l 1
 166 1319 256 1348 323 1348 c 0
 393 1348 441 1310 441 1235 c 0
 441 1158 370 1118 270 1118 c 2
 197 1118 l 1
 197 1000 l 1
 272 1000 l 2
 381 1000 460 957 460 868 c 0
 460 774 400 730 321 730 c 0
 260 730 172 755 124 798 c 1
 73 697 l 1
 135 637 249 612 332 612 c 0
1279 9 m 1
 1409 9 l 1
 1409 193 l 1
 1530 193 l 1
 1523 302 l 1
 1411 302 l 1
 1411 847 l 1
 1269 847 l 1
 902 290 l 1
 902 193 l 1
 1279 193 l 1
 1279 9 l 1
323 8 m 1
 468 8 l 1
 1380 1470 l 1
 1238 1470 l 1
 323 8 l 1
1059 302 m 1
 1278 650 l 1
 1278 302 l 1
 1059 302 l 1
EndSplineSet
EndChar

StartChar: tilde
Encoding: 516 732 347
Width: 813
VWidth: 0
Flags: HW
HStem: 1245 122<421.306 594.963> 1342 110<204.911 383.28>
VStem: 100 91<1245 1334.3> 605 93<1373.35 1452>
LayerCount: 2
UndoRedoHistory
Layer: 0
Undoes
EndUndoes
Redoes
EndRedoes
EndUndoRedoHistory
UndoRedoHistory
Layer: 1
Undoes
EndUndoes
Redoes
EndRedoes
EndUndoRedoHistory
Fore
SplineSet
191 1245 m 1xb0
 200 1314 224 1342 259 1342 c 0x70
 330 1342 446 1245 551 1245 c 0xb0
 641 1245 698 1319 698 1452 c 1
 605 1452 l 1x70
 596 1388 575 1367 545 1367 c 0xb0
 484 1367 383 1452 264 1452 c 0x70
 161 1452 100 1380 100 1245 c 1
 191 1245 l 1xb0
EndSplineSet
EndChar

StartChar: trademark
Encoding: 517 8482 348
Width: 1720
VWidth: 0
Flags: HW
LayerCount: 2
UndoRedoHistory
Layer: 0
Undoes
EndUndoes
Redoes
EndRedoes
EndUndoRedoHistory
UndoRedoHistory
Layer: 1
Undoes
EndUndoes
Redoes
EndRedoes
EndUndoRedoHistory
Fore
SplineSet
806 588 m 1
 910 588 l 1
 910 1305 l 1
 1169 657 l 1
 1251 657 l 1
 1527 1304 l 1
 1527 588 l 1
 1632 588 l 1
 1632 1445 l 1
 1493 1445 l 1
 1217 796 l 1
 954 1445 l 1
 806 1445 l 1
 806 588 l 1
321 588 m 1
 427 588 l 1
 427 1348 l 1
 683 1348 l 1
 683 1445 l 1
 71 1445 l 1
 71 1348 l 1
 321 1348 l 1
 321 588 l 1
EndSplineSet
EndChar

StartChar: two
Encoding: 50 50 349
Width: 1156
VWidth: 0
Flags: HW
LayerCount: 2
UndoRedoHistory
Layer: 0
Undoes
EndUndoes
Redoes
EndRedoes
EndUndoRedoHistory
UndoRedoHistory
Layer: 1
Undoes
EndUndoes
Redoes
EndRedoes
EndUndoRedoHistory
Fore
SplineSet
146 0 m 1
 992 0 l 1
 1002 140 l 1
 252 140 l 1
 277 79 l 1
 742 565 l 2
 926 758 998 863 998 1062 c 0
 998 1366 731 1456 552 1456 c 0
 396 1456 236 1402 144 1338 c 1
 198 1202 l 1
 288 1259 418 1302 538 1302 c 0
 657 1302 820 1255 820 1046 c 0
 820 893 745 805 628 682 c 1
 123 143 l 1
 146 0 l 1
EndSplineSet
EndChar

StartChar: u
Encoding: 117 117 350
Width: 1170
VWidth: 0
Flags: HW
LayerCount: 2
UndoRedoHistory
Layer: 0
Undoes
EndUndoes
Redoes
EndRedoes
EndUndoRedoHistory
UndoRedoHistory
Layer: 1
Undoes
EndUndoes
Redoes
EndRedoes
EndUndoRedoHistory
Fore
SplineSet
1026 1060 m 1
 846 1060 l 1
 846 469 l 2
 846 273 776 116 540 116 c 0
 370 116 317 223 318 398 c 2
 318 1060 l 1
 137 1060 l 1
 137 409 l 2
 137 120 253 -22 497 -22 c 0
 697 -22 822 47 896 221 c 1
 851 221 l 1
 879 0 l 1
 1026 0 l 1
 1026 1060 l 1
EndSplineSet
EndChar

StartChar: underscore
Encoding: 95 95 359
Width: 1030
VWidth: 0
Flags: HW
LayerCount: 2
UndoRedoHistory
Layer: 0
Undoes
EndUndoes
Redoes
EndRedoes
EndUndoRedoHistory
UndoRedoHistory
Layer: 1
Undoes
EndUndoes
Redoes
EndRedoes
EndUndoRedoHistory
Fore
SplineSet
68 -249 m 5
 973 -249 l 5
 973 -121 l 5
 68 -121 l 5
 68 -249 l 5
EndSplineSet
EndChar

StartChar: uni00AD
Encoding: 173 173 362
Width: 885
VWidth: 0
Flags: HW
HStem: 228 144
LayerCount: 2
UndoRedoHistory
Layer: 0
Undoes
EndUndoes
Redoes
EndRedoes
EndUndoRedoHistory
UndoRedoHistory
Layer: 1
Undoes
EndUndoes
Redoes
EndRedoes
EndUndoRedoHistory
Fore
SplineSet
92 228 m 1
 810 228 l 1
 810 372 l 1
 92 372 l 1
 92 228 l 1
EndSplineSet
EndChar

StartChar: uni00B2
Encoding: 526 178 363
Width: 705
VWidth: 0
Flags: HW
LayerCount: 2
UndoRedoHistory
Layer: 0
Undoes
EndUndoes
Redoes
EndRedoes
EndUndoRedoHistory
UndoRedoHistory
Layer: 1
Undoes
EndUndoes
Redoes
EndRedoes
EndUndoRedoHistory
Fore
SplineSet
611 649 m 1
 96 649 l 1
 96 739 l 1
 336 980 510 1132 510 1254 c 0
 510 1360 442 1406 365 1406 c 0
 283 1406 203 1370 139 1284 c 1
 68 1343 l 1
 119 1439 240 1504 353 1504 c 0
 508 1504 622 1422 622 1263 c 0
 622 1074 451 940 239 746 c 1
 611 746 l 1
 611 649 l 1
EndSplineSet
EndChar

StartChar: uni00B3
Encoding: 527 179 364
Width: 749
VWidth: 0
Flags: HW
LayerCount: 2
UndoRedoHistory
Layer: 0
Undoes
EndUndoes
Redoes
EndRedoes
EndUndoRedoHistory
UndoRedoHistory
Layer: 1
Undoes
EndUndoes
Redoes
EndRedoes
EndUndoRedoHistory
Fore
SplineSet
389 601 m 0
 536 601 655 696 655 856 c 0
 655 952 596 1029 496 1061 c 1
 593 1085 635 1159 636 1234 c 0
 636 1391 515 1466 387 1466 c 0
 299 1466 192 1432 134 1373 c 1
 185 1281 l 1
 225 1319 314 1349 381 1349 c 0
 451 1349 499 1309 499 1233 c 0
 499 1155 428 1114 328 1114 c 2
 255 1114 l 1
 255 996 l 1
 330 997 l 2
 440 997 521 950 521 859 c 0
 521 763 460 718 381 718 c 0
 320 718 229 745 181 789 c 1
 132 686 l 1
 194 626 306 601 389 601 c 0
EndSplineSet
EndChar

StartChar: uni00B9
Encoding: 529 185 366
Width: 741
VWidth: 0
Flags: HW
LayerCount: 2
UndoRedoHistory
Layer: 0
Undoes
EndUndoes
Redoes
EndRedoes
EndUndoRedoHistory
UndoRedoHistory
Layer: 1
Undoes
EndUndoes
Redoes
EndRedoes
EndUndoRedoHistory
Fore
SplineSet
163 645 m 1
 655 645 l 1
 655 773 l 1
 494 773 l 1
 494 1463 l 1
 362 1463 l 1
 339 1440 185 1368 156 1361 c 1
 156 1223 l 1
 189 1230 295 1273 332 1295 c 1
 332 773 l 1
 163 773 l 1
 163 645 l 1
EndSplineSet
EndChar

StartChar: uni0237
Encoding: 615 567 452
Width: 461
VWidth: 0
Flags: HW
HStem: -479 112
VStem: 122 142
LayerCount: 2
UndoRedoHistory
Layer: 0
Undoes
EndUndoes
Redoes
EndRedoes
EndUndoRedoHistory
UndoRedoHistory
Layer: 1
Undoes
EndUndoes
Redoes
EndRedoes
EndUndoRedoHistory
Fore
SplineSet
-32 -447 m 1
 26 -447 l 2
 292 -447 346 -355 346 -97 c 2
 346 1072 l 1
 154 1072 l 1
 154 -83 l 2
 154 -245 173 -299 -4 -299 c 2
 -64 -299 l 1
 -32 -447 l 1
EndSplineSet
EndChar

StartChar: uni02BC
Encoding: 616 700 453
Width: 452
VWidth: 0
Flags: HW
LayerCount: 2
UndoRedoHistory
Layer: 0
Undoes
EndUndoes
Redoes
EndRedoes
EndUndoRedoHistory
UndoRedoHistory
Layer: 1
Undoes
EndUndoes
Redoes
EndRedoes
EndUndoRedoHistory
Fore
SplineSet
113 1066 m 1
 222 1066 l 1
 357 1521 l 1
 208 1521 l 1
 113 1066 l 1
EndSplineSet
EndChar

StartChar: uni0307
Encoding: 617 775 454
Width: 327
VWidth: 0
Flags: HW
HStem: 1255 191
VStem: 87 159
LayerCount: 2
UndoRedoHistory
Layer: 0
Undoes
EndUndoes
Redoes
EndRedoes
EndUndoRedoHistory
UndoRedoHistory
Layer: 1
Undoes
EndUndoes
Redoes
EndRedoes
EndUndoRedoHistory
Fore
SplineSet
87 1255 m 1
 246 1255 l 1
 246 1446 l 1
 87 1446 l 1
 87 1255 l 1
EndSplineSet
EndChar

StartChar: uni030F
Encoding: 618 783 455
Width: 664
VWidth: 0
Flags: HW
LayerCount: 2
UndoRedoHistory
Layer: 0
Undoes
EndUndoes
Redoes
EndRedoes
EndUndoRedoHistory
UndoRedoHistory
Layer: 1
Undoes
EndUndoes
Redoes
EndRedoes
EndUndoRedoHistory
Fore
SplineSet
567 1297 m 1
 511 1297 l 1
 336 1599 l 1
 458 1599 l 1
 567 1297 l 1
378 1297 m 1
 319 1297 l 1
 93 1599 l 1
 226 1599 l 1
 378 1297 l 1
EndSplineSet
EndChar

StartChar: uni0311
Encoding: 619 785 456
Width: 648
VWidth: 0
Flags: HW
LayerCount: 2
UndoRedoHistory
Layer: 0
Undoes
EndUndoes
Redoes
EndRedoes
EndUndoRedoHistory
UndoRedoHistory
Layer: 1
Undoes
EndUndoes
Redoes
EndRedoes
EndUndoRedoHistory
Fore
SplineSet
89 1256 m 1
 200 1256 l 1
 200 1348 256 1391 327 1391 c 0
 398 1391 455 1348 455 1256 c 1
 568 1256 l 1
 568 1422 445 1492 326 1492 c 0
 208 1492 89 1422 89 1256 c 1
EndSplineSet
EndChar

StartChar: uni031B
Encoding: 620 795 457
Width: 454
VWidth: 0
Flags: HW
LayerCount: 2
UndoRedoHistory
Layer: 0
Undoes
EndUndoes
Redoes
EndRedoes
EndUndoRedoHistory
UndoRedoHistory
Layer: 1
Undoes
EndUndoes
Redoes
EndRedoes
EndUndoRedoHistory
Fore
SplineSet
205 496 m 1
 215 471 222 438 222 404 c 0
 222 335 196 250 91 250 c 0
 86 250 77 250 71 251 c 1
 71 166 l 1
 92 163 111 162 130 162 c 0
 286 162 332 262 332 358 c 0
 332 408 318 459 302 496 c 1
 205 496 l 1
EndSplineSet
EndChar

StartChar: uni0326
Encoding: 621 806 458
Width: 281
VWidth: 0
Flags: HW
LayerCount: 2
UndoRedoHistory
Layer: 0
Undoes
EndUndoes
Redoes
EndRedoes
EndUndoRedoHistory
UndoRedoHistory
Layer: 1
Undoes
EndUndoes
Redoes
EndRedoes
EndUndoRedoHistory
Fore
SplineSet
44 -664 m 1
 125 -196 l 1
 228 -196 l 1
 110 -664 l 1
 44 -664 l 1
EndSplineSet
EndChar

StartChar: uni0402
Encoding: 162 1026 460
Width: 1461
VWidth: 0
Flags: HW
HStem: 709 160<883.44 1068.33>
VStem: 1133 194<440 643.031>
LayerCount: 2
UndoRedoHistory
Layer: 0
Undoes
EndUndoes
Redoes
EndRedoes
EndUndoRedoHistory
UndoRedoHistory
Layer: 1
Undoes
EndUndoes
Redoes
EndRedoes
EndUndoRedoHistory
Fore
SplineSet
602 1293 m 1
 1033 1293 l 1
 1033 1437 l 1
 46 1437 l 1
 46 1293 l 1
 408 1293 l 1
 408 0 l 1
 602 0 l 1
 602 709 l 1
 883 710 l 2
 1059 710 1133 670 1133 440 c 2
 1133 234 l 6
 1133 54 1127 -81 901 -81 c 6
 787 -81 l 5
 799 -237 l 5
 923 -237 l 6
 1233 -237 1327 -50 1327 224 c 6
 1327 474 l 2
 1327 728 1187 870 922 870 c 2
 602 869 l 1
 602 1293 l 1
EndSplineSet
EndChar

StartChar: uni040A
Encoding: 170 1034 466
Width: 2077
VWidth: 0
Flags: HW
HStem: 0 148<1506 1719.98> 667 141<1508 1733.68>
VStem: 1827 189<244.176 577.609>
LayerCount: 2
UndoRedoHistory
Layer: 0
Undoes
EndUndoes
Redoes
EndRedoes
EndUndoRedoHistory
UndoRedoHistory
Layer: 1
Undoes
EndUndoes
Redoes
EndRedoes
EndUndoRedoHistory
Fore
SplineSet
1038 0 m 1
 1517 0 l 2
 1871 0 2016 155 2016 408 c 0
 2016 657 1878 808 1516 808 c 2
 1172 808 l 1
 1231 753 l 1
 1233 1436 l 1
 1038 1436 l 1
 1038 756 l 1
 1104 808 l 1
 299 808 l 1
 366 756 l 1
 366 1436 l 1
 172 1436 l 1
 172 0 l 1
 366 0 l 1
 366 721 l 1
 299 667 l 1
 1108 667 l 1
 1038 721 l 1
 1038 0 l 1
1232 68 m 1
 1232 728 l 1
 1172 667 l 1
 1508 667 l 2
 1739 667 1827 601 1827 408 c 0
 1827 216 1726 148 1506 148 c 2
 1163 148 l 1
 1232 68 l 1
EndSplineSet
EndChar

StartChar: uni040B
Encoding: 171 1035 467
Width: 1461
VWidth: 0
Flags: HW
HStem: 709 160<883.44 1068.33>
VStem: 1133 194<440 643.031>
LayerCount: 2
UndoRedoHistory
Layer: 0
Undoes
EndUndoes
Redoes
EndRedoes
EndUndoRedoHistory
UndoRedoHistory
Layer: 1
Undoes
EndUndoes
Redoes
EndRedoes
EndUndoRedoHistory
Fore
SplineSet
602 1293 m 1
 1033 1293 l 1
 1033 1437 l 1
 46 1437 l 1
 46 1293 l 1
 408 1293 l 1
 408 0 l 1
 602 0 l 1
 602 709 l 1
 883 710 l 2
 1059 710 1133 670 1133 440 c 2
 1133 0 l 1
 1327 0 l 1
 1327 474 l 2
 1327 728 1187 870 922 870 c 2
 602 869 l 1
 602 1293 l 1
EndSplineSet
EndChar

StartChar: uni040F
Encoding: 175 1039 469
Width: 1462
VWidth: 0
Flags: HW
HStem: 0 91<638 832>
VStem: 172 194<146 1437> 638 194<-294 91> 1096 194<146 1437>
LayerCount: 2
UndoRedoHistory
Layer: 0
Undoes
EndUndoes
Redoes
EndRedoes
EndUndoRedoHistory
UndoRedoHistory
Layer: 1
Undoes
EndUndoes
Redoes
EndRedoes
EndUndoRedoHistory
Fore
SplineSet
1290 1437 m 1
 1290 0 l 1
 172 0 l 1
 172 1437 l 1
 366 1437 l 1
 366 110 l 1
 306 146 l 1
 1151 146 l 1
 1096 110 l 1
 1096 1437 l 1
 1290 1437 l 1
638 -294 m 1
 638 91 l 1
 832 91 l 1
 832 -294 l 1
 638 -294 l 1
EndSplineSet
EndChar

StartChar: uni0411
Encoding: 177 1041 471
Width: 1224
VWidth: 0
Flags: HW
HStem: 0 147<671 872.636> 677 147<673 886.571>
VStem: 981 194<244.363 588.015>
LayerCount: 2
UndoRedoHistory
Layer: 0
Undoes
EndUndoes
Redoes
EndRedoes
EndUndoRedoHistory
UndoRedoHistory
Layer: 1
Undoes
EndUndoes
Redoes
EndRedoes
EndUndoRedoHistory
Fore
SplineSet
172 0 m 5
 683 0 l 6
 1037 0 1175 163 1175 416 c 4
 1175 665 1043 824 681 824 c 6
 297 824 l 5
 366 765 l 5
 366 1358 l 5
 300 1291 l 5
 1030 1291 l 5
 1030 1437 l 5
 172 1437 l 5
 172 0 l 5
366 68 m 5
 366 735 l 5
 296 677 l 5
 673 677 l 6
 899 677 981 606 981 413 c 4
 981 221 884 147 671 147 c 6
 299 147 l 5
 366 68 l 5
EndSplineSet
EndChar

StartChar: uni0414
Encoding: 180 1044 472
Width: 1448
VWidth: 0
Flags: HW
HStem: -294 441<29.24 197.72 1235.24 1368.24>
VStem: 29 171<-294 0> 1041 194<147 1293> 1199 169<-294 0>
LayerCount: 2
UndoRedoHistory
Layer: 0
Undoes
EndUndoes
Redoes
EndRedoes
EndUndoRedoHistory
UndoRedoHistory
Layer: 1
Undoes
EndUndoes
Redoes
EndRedoes
EndUndoRedoHistory
Fore
SplineSet
29 -294 m 1xd0
 29 147 l 1
 189 147 l 1
 281 212 323 365 379 1079 c 2
 406 1437 l 1
 1235 1437 l 1
 1235 147 l 1xe0
 1368 147 l 1
 1368 -294 l 1
 1199 -294 l 1
 1199 0 l 1
 200 0 l 1
 200 -294 l 1
 29 -294 l 1xd0
370 92 m 1
 335 147 l 1
 1103 147 l 1
 1041 91 l 1
 1040 1368 l 1
 1124 1293 l 1
 458 1292 l 1
 585 1353 l 1
 565 1068 l 2
 530 567 496 217 370 92 c 1
EndSplineSet
EndChar

StartChar: uni041B
Encoding: 187 1051 476
Width: 1609
VWidth: 0
Flags: HW
HStem: -35 156<75.64 241.969>
VStem: 348 194<227.369 438>
LayerCount: 2
UndoRedoHistory
Layer: 0
Undoes
EndUndoes
Redoes
EndRedoes
EndUndoRedoHistory
Back
SplineSet
-7.3603515625 -35 m 5
 106.639648438 -35 l 6
 416.639648438 -35 541.639648438 152 541.639648438 426 c 6
 541.639648438 720 l 5
 347.639648438 720 l 5
 347.639648438 436 l 6
 347.639648438 256 301.639648438 121 75.6396484375 121 c 6
 -19.3603515625 121 l 5
 -7.3603515625 -35 l 5
EndSplineSet
UndoRedoHistory
Layer: 1
Undoes
EndUndoes
Redoes
EndRedoes
EndUndoRedoHistory
Fore
SplineSet
348 436 m 2
 348 256 302 121 76 121 c 2
 21 121 l 1
 33 -35 l 1
 107 -35 l 2
 427 -35 542 164 542 438 c 2
 542 1348 l 1
 477 1293 l 1
 1314 1293 l 1
 1244 1347 l 1
 1244 -1 l 1
 1438 -1 l 1
 1438 1437 l 1
 348 1437 l 1
 348 436 l 2
EndSplineSet
EndChar

StartChar: uni041F
Encoding: 191 1055 480
Width: 1468
VWidth: 0
Flags: HW
LayerCount: 2
UndoRedoHistory
Layer: 0
Undoes
EndUndoes
Redoes
EndRedoes
EndUndoRedoHistory
UndoRedoHistory
Layer: 1
Undoes
EndUndoes
Redoes
EndRedoes
EndUndoRedoHistory
Fore
SplineSet
172 0 m 1
 366 0 l 1
 366 1347 l 1
 299 1293 l 1
 1172 1293 l 1
 1102 1347 l 1
 1102 0 l 1
 1296 0 l 1
 1296 1436 l 1
 172 1436 l 1
 172 0 l 1
EndSplineSet
EndChar

StartChar: uni0423
Encoding: 195 1059 484
Width: 1297
VWidth: 0
Flags: HW
HStem: 0 21G<330.8 542.758>
LayerCount: 2
UndoRedoHistory
Layer: 0
Undoes
EndUndoes
Redoes
EndRedoes
EndUndoRedoHistory
UndoRedoHistory
Layer: 1
Undoes
EndUndoes
Redoes
EndRedoes
EndUndoRedoHistory
Fore
SplineSet
331 0 m 1
 644 635 l 1
 669 463 l 1
 112 1436 l 1
 314 1436 l 1
 780 618 l 1
 675 673 l 1
 1054 1436 l 1
 1248 1436 l 1
 533 0 l 1
 331 0 l 1
EndSplineSet
EndChar

StartChar: uni0424
Encoding: 196 1060 485
Width: 1629
VWidth: 0
Flags: HW
HStem: 123 152<531.944 730.84 882.84 1090.42> 1165 151<531.944 730.84 882.84 1081.85>
VStem: 81 177<514.018 925.699> 1371 178<515.682 924.445>
LayerCount: 2
UndoRedoHistory
Layer: 0
Undoes
EndUndoes
Redoes
EndRedoes
EndUndoRedoHistory
UndoRedoHistory
Layer: 1
Undoes
EndUndoes
Redoes
EndRedoes
EndUndoRedoHistory
Fore
SplineSet
732 0 m 1
 883 0 l 1
 883 122 l 1
 1297 150 1549 358 1549 720 c 0
 1549 1083 1298 1291 883 1318 c 1
 883 1445 l 1
 732 1445 l 1
 731 1316 l 1
 312 1280 81 1062 81 720 c 0
 81 378 311 159 731 123 c 1
 732 0 l 1
731 275 m 1
 408 309 258 473 258 720 c 0
 258 966 408 1131 731 1165 c 1
 731 275 l 1
883 273 m 1
 883 1166 l 1
 1222 1135 1371 968 1371 720 c 0
 1371 472 1222 304 883 273 c 1
EndSplineSet
EndChar

StartChar: uni0427
Encoding: 199 1063 487
Width: 1249
VWidth: 0
Flags: HW
VStem: 120 194<715.969 919>
LayerCount: 2
UndoRedoHistory
Layer: 0
Undoes
EndUndoes
Redoes
EndRedoes
EndUndoRedoHistory
UndoRedoHistory
Layer: 1
Undoes
EndUndoes
Redoes
EndRedoes
EndUndoRedoHistory
Fore
SplineSet
883 0 m 1
 1077 0 l 1
 1077 1436 l 1
 883 1436 l 1
 883 650 l 1
 885 650 562 649 564 649 c 1
 388 649 314 689 314 919 c 2
 314 1436 l 1
 120 1436 l 1
 120 885 l 2
 120 631 260 489 525 489 c 1
 523 489 887 490 883 490 c 1
 883 0 l 1
EndSplineSet
EndChar

StartChar: uni0428
Encoding: 200 1064 488
Width: 1714
VWidth: 0
Flags: HW
LayerCount: 2
UndoRedoHistory
Layer: 0
Undoes
EndUndoes
Redoes
EndRedoes
EndUndoRedoHistory
UndoRedoHistory
Layer: 1
Undoes
EndUndoes
Redoes
EndRedoes
EndUndoRedoHistory
Fore
SplineSet
172 0 m 5
 1542 0 l 5
 1542 1437 l 5
 1348 1437 l 5
 1348 147 l 5
 954 147 l 5
 954 1437 l 5
 760 1437 l 5
 760 147 l 5
 366 147 l 5
 366 1437 l 5
 172 1437 l 5
 172 0 l 5
EndSplineSet
EndChar

StartChar: uni0429
Encoding: 201 1065 489
Width: 1732
VWidth: 0
Flags: HW
LayerCount: 2
UndoRedoHistory
Layer: 0
Undoes
EndUndoes
Redoes
EndRedoes
EndUndoRedoHistory
UndoRedoHistory
Layer: 1
Undoes
EndUndoes
Redoes
EndRedoes
EndUndoRedoHistory
Fore
SplineSet
1468 -292 m 5
 1652 -292 l 1
 1652 147 l 1
 1468 147 l 5
 1468 -292 l 5
EndSplineSet
Refer: 488 1064 N 1 0 0 1 -24 0 2
EndChar

StartChar: uni042A
Encoding: 202 1066 490
Width: 1329
VWidth: 0
Flags: HW
HStem: 0 147<781.12 982.863> 678 146<783.12 996.81>
VStem: 1091 195<244.705 588.515>
LayerCount: 2
UndoRedoHistory
Layer: 0
Undoes
EndUndoes
Redoes
EndRedoes
EndUndoRedoHistory
UndoRedoHistory
Layer: 1
Undoes
EndUndoes
Redoes
EndRedoes
EndUndoRedoHistory
Fore
SplineSet
394 1436 m 1
 36 1436 l 5
 36 1292 l 5
 395 1292 l 1
 394 1436 l 1
EndSplineSet
Refer: 492 1068 N 1 0 0 1 90 0 2
EndChar

StartChar: uni042B
Encoding: 203 1067 491
Width: 1761
VWidth: 0
Flags: HW
HStem: 0 21G<1395 1589> 0 147<663 864.743> 678 146<665 878.693>
VStem: 973 195<244.705 588.515> 1395 194<0 1436>
LayerCount: 2
UndoRedoHistory
Layer: 0
Undoes
EndUndoes
Redoes
EndRedoes
EndUndoRedoHistory
UndoRedoHistory
Layer: 1
Undoes
EndUndoes
Redoes
EndRedoes
EndUndoRedoHistory
Fore
SplineSet
1395 0 m 1xb8
 1395 1436 l 1
 1589 1436 l 1
 1589 0 l 1
 1395 0 l 1xb8
EndSplineSet
Refer: 492 1068 N 1 0 0 1 -28 0 2
EndChar

StartChar: uni042C
Encoding: 204 1068 492
Width: 1241
VWidth: 0
Flags: HW
HStem: 0 147<663 864.743> 678 146<665 878.693>
VStem: 973 195<244.705 588.515>
LayerCount: 2
UndoRedoHistory
Layer: 0
Undoes
EndUndoes
Redoes
EndRedoes
EndUndoRedoHistory
UndoRedoHistory
Layer: 1
Undoes
EndUndoes
Redoes
EndRedoes
EndUndoRedoHistory
Fore
SplineSet
172 0 m 5
 675 0 l 6
 1029 0 1168 163 1168 416 c 4
 1168 665 1035 824 673 824 c 6
 297 824 l 5
 366 765 l 5
 366 1436 l 5
 172 1436 l 5
 172 0 l 5
366 68 m 5
 366 736 l 5
 296 678 l 5
 665 678 l 6
 891 678 973 607 973 414 c 4
 973 222 876 147 663 147 c 6
 299 147 l 5
 366 68 l 5
EndSplineSet
EndChar

StartChar: uni0431
Encoding: 209 1073 494
Width: 1080
VWidth: 0
Flags: HW
HStem: -21 119<407.938 710.632> 708 137<424.127 711.882> 1151 140<646.284 884.821>
VStem: 110 170<235.508 688.413> 814 184<210.449 602.701>
LayerCount: 2
UndoRedoHistory
Layer: 0
Undoes
EndUndoes
Redoes
EndRedoes
EndUndoRedoHistory
Back
SplineSet
575.080078125 -20 m 0
 161.080078125 -20 104.080078125 354 104.080078125 480 c 0
 104.080078125 907 272.080078125 1174 903.080078125 1210 c 1
 900.080078125 1093 l 1
 632.080078125 1077 360.080078125 1078 280.080078125 685 c 1
 426.080078125 755 429.080078125 819 617.080078125 819 c 0
 859.080078125 819 998.080078125 573 998.080078125 419 c 0
 998.080078125 193 824.080078125 -20 575.080078125 -20 c 0
571.080078125 72 m 0
 814.080078125 72 814.080078125 194 814.080078125 434 c 0
 814.080078125 598 776.080078125 746 617.080078125 746 c 0
 565.080078125 746 445.080078125 732 298.080078125 588 c 1
 293.080078125 547 289.080078125 508 289.080078125 473 c 0
 289.080078125 168 437.080078125 72 571.080078125 72 c 0
EndSplineSet
UndoRedoHistory
Layer: 1
Undoes
EndUndoes
Redoes
EndRedoes
EndUndoRedoHistory
Fore
SplineSet
554 98 m 0
 716 98 814 187 814 418 c 0
 814 615 707 708 582 708 c 0
 480 708 373 659 298 588 c 1
 286 529 280 475 280 427 c 0
 280 207 400 98 554 98 c 0
110 463 m 0
 110 905 252 1255 883 1291 c 1
 900 1151 l 1
 555 1118 373 1033 306 731 c 1
 365 776 486 845 604 845 c 0
 841 845 998 663 998 431 c 0
 998 103 776 -21 556 -21 c 0
 329 -21 110 109 110 463 c 0
EndSplineSet
EndChar

StartChar: uni0432
Encoding: 210 1074 495
Width: 1092
VWidth: 0
Flags: HW
HStem: 0 132<326.2 773.34> 494 116<326.2 748.543> 928 132<326.2 751.161>
VStem: 146 180<132 494 610 928> 788 184<649.153 895.85> 827 180<181.608 439.954>
LayerCount: 2
UndoRedoHistory
Layer: 0
Undoes
EndUndoes
Redoes
EndRedoes
EndUndoRedoHistory
UndoRedoHistory
Layer: 1
Undoes
EndUndoes
Redoes
EndRedoes
EndUndoRedoHistory
Fore
SplineSet
146 0 m 1xf4
 146 1060 l 1
 627 1060 l 2
 901 1060 972 917 972 794 c 0xf8
 972 671 923 598 818 566 c 1
 983 521 1007 391 1007 302 c 0
 1007 176 942 0 616 0 c 2
 146 0 l 1xf4
326 132 m 1
 617 132 l 2
 795 132 827 219 827 308 c 0xf4
 827 400 790 494 622 494 c 2
 326 494 l 1
 326 132 l 1
326 610 m 1
 622 610 l 2
 760 610 788 695 788 778 c 0xf8
 788 855 772 928 622 928 c 2
 326 928 l 1
 326 610 l 1
EndSplineSet
EndChar

StartChar: uni0433
Encoding: 211 1075 496
Width: 894
VWidth: 0
Flags: HW
HStem: 0 21G<146.2 326.2> 928 132<326.2 858.2>
VStem: 146 180<0 928>
LayerCount: 2
UndoRedoHistory
Layer: 0
Undoes
EndUndoes
Redoes
EndRedoes
EndUndoRedoHistory
UndoRedoHistory
Layer: 1
Undoes
EndUndoes
Redoes
EndRedoes
EndUndoRedoHistory
Fore
SplineSet
146 0 m 1
 146 1060 l 1
 867 1060 l 1
 858 928 l 1
 326 928 l 1
 326 0 l 1
 146 0 l 1
EndSplineSet
EndChar

StartChar: uni0434
Encoding: 212 1076 497
Width: 1236
VWidth: 0
Flags: HW
HStem: -275 409<44.72 206.566 1081.72 1162.72> 0 134<340.72 901.72> 937 122<561.72 901.72>
VStem: 45 163<-275 0> 902 180<134 937> 991 172<-275 0>
LayerCount: 2
UndoRedoHistory
Layer: 0
Undoes
EndUndoes
Redoes
EndRedoes
EndUndoRedoHistory
UndoRedoHistory
Layer: 1
Undoes
EndUndoes
Redoes
EndRedoes
EndUndoRedoHistory
Fore
SplineSet
45 -275 m 1xb4
 45 134 l 1
 88 134 l 2
 173 134 277 191 308 382 c 2
 418 1059 l 1
 1082 1059 l 1
 1082 134 l 1xb8
 1163 134 l 1
 1163 -275 l 1
 991 -275 l 1xb4
 991 0 l 1
 207 0 l 1x74
 208 -275 l 1
 45 -275 l 1xb4
341 132 m 1
 902 132 l 1
 902 937 l 1
 562 937 l 1
 479 373 l 2
 447 168 340 132 341 132 c 1
EndSplineSet
EndChar

StartChar: uni0436
Encoding: 214 1078 499
Width: 1693
VWidth: 0
Flags: HW
LayerCount: 2
UndoRedoHistory
Layer: 0
Undoes
EndUndoes
Redoes
EndRedoes
EndUndoRedoHistory
UndoRedoHistory
Layer: 1
Undoes
EndUndoes
Redoes
EndRedoes
EndUndoRedoHistory
Fore
SplineSet
757 751 m 1
 764 501 l 1
 801 501 l 1
 254 1060 l 1
 33 1060 l 1
 542 533 l 1
 542 615 l 1
 19 0 l 1
 232 0 l 1
 671 517 l 1
 604 517 l 1
 803 334 l 1
 757 429 l 1
 757 0 l 1
 937 0 l 1
 937 429 l 1
 891 334 l 1
 1090 517 l 1
 1023 517 l 1
 1462 0 l 1
 1675 0 l 1
 1152 615 l 1
 1152 533 l 1
 1661 1060 l 1
 1440 1060 l 1
 893 501 l 1
 930 501 l 1
 937 751 l 1
 937 1060 l 1
 757 1060 l 1
 757 751 l 1
EndSplineSet
EndChar

StartChar: uni0438
Encoding: 216 1080 500
Width: 1231
VWidth: 0
Flags: HW
HStem: 0 21G<146.2 324.117 905.2 1085.2>
VStem: 146 180<247 1060> 905 180<0 707 942 1060>
LayerCount: 2
UndoRedoHistory
Layer: 0
Undoes
EndUndoes
Redoes
EndRedoes
EndUndoRedoHistory
UndoRedoHistory
Layer: 1
Undoes
EndUndoes
Redoes
EndRedoes
EndUndoRedoHistory
Fore
SplineSet
146 0 m 1
 146 1060 l 1
 326 1060 l 1
 326 247 l 1
 905 942 l 1
 905 1060 l 1
 1085 1060 l 5
 1085 0 l 5
 905 0 l 1
 905 707 l 1
 307 0 l 1
 146 0 l 1
EndSplineSet
EndChar

StartChar: uni043A
Encoding: 218 1082 502
Width: 1087
VWidth: 0
Flags: HW
LayerCount: 2
UndoRedoHistory
Layer: 0
Undoes
EndUndoes
Redoes
EndRedoes
EndUndoRedoHistory
UndoRedoHistory
Layer: 1
Undoes
EndUndoes
Redoes
EndRedoes
EndUndoRedoHistory
Fore
SplineSet
146 0 m 1
 326 0 l 1
 326 429 l 1
 280 334 l 1
 479 517 l 1
 412 517 l 1
 851 0 l 1
 1064 0 l 1
 541 615 l 1
 541 533 l 1
 1050 1060 l 1
 829 1060 l 1
 282 501 l 1
 319 501 l 1
 326 751 l 1
 326 1060 l 1
 146 1060 l 1
 146 0 l 1
EndSplineSet
EndChar

StartChar: uni043B
Encoding: 219 1083 503
Width: 1244
VWidth: 0
Flags: HW
HStem: -7 154<30.04 184.325> 928 132<524.04 918.04>
VStem: 918 180<0 928>
LayerCount: 2
UndoRedoHistory
Layer: 0
Undoes
EndUndoes
Redoes
EndRedoes
EndUndoRedoHistory
UndoRedoHistory
Layer: 1
Undoes
EndUndoes
Redoes
EndRedoes
EndUndoRedoHistory
Fore
SplineSet
30 -7 m 1
 12 147 l 5
 188 147 238 172 280 462 c 2
 366 1060 l 1
 1098 1060 l 1
 1098 0 l 1
 918 0 l 1
 918 928 l 1
 524 928 l 1
 456 456 l 2
 399 43 278 -7 30 -7 c 1
EndSplineSet
EndChar

StartChar: uni043C
Encoding: 220 1084 504
Width: 1381
VWidth: 0
Flags: HW
HStem: 0 21G<146.2 321.2 1061.2 1235.2>
VStem: 146 175<0 743> 1061 174<0 743>
LayerCount: 2
UndoRedoHistory
Layer: 0
Undoes
EndUndoes
Redoes
EndRedoes
EndUndoRedoHistory
UndoRedoHistory
Layer: 1
Undoes
EndUndoes
Redoes
EndRedoes
EndUndoRedoHistory
Fore
SplineSet
146 0 m 1
 146 1060 l 1
 317 1060 l 5
 694 398 l 1
 1068 1060 l 1
 1235 1060 l 1
 1235 0 l 1
 1061 0 l 1
 1061 743 l 1
 738 182 l 1
 647 182 l 1
 321 743 l 5
 321 0 l 5
 146 0 l 1
EndSplineSet
EndChar

StartChar: uni043D
Encoding: 221 1085 505
Width: 1221
VWidth: 0
Flags: HW
HStem: 0 21G<146.2 326.2 895.2 1075.2> 493 115<326.2 895.2>
VStem: 146 180<0 493 608 1060> 895 180<0 493 608 1060>
LayerCount: 2
UndoRedoHistory
Layer: 0
Undoes
EndUndoes
Redoes
EndRedoes
EndUndoRedoHistory
Back
SplineSet
131.200195312 0 m 5
 131.200195312 1060 l 5
 1060.20019531 1060 l 5
 1060.20019531 0 l 5
 880.200195312 0 l 5
 880.200195312 948 l 5
 311.200195312 948 l 5
 311.200195312 0 l 5
 131.200195312 0 l 5
EndSplineSet
UndoRedoHistory
Layer: 1
Undoes
EndUndoes
Redoes
EndRedoes
EndUndoRedoHistory
Fore
SplineSet
146 0 m 1
 146 1060 l 1
 326 1060 l 1
 326 608 l 1
 895 608 l 1
 895 1060 l 1
 1075 1060 l 1
 1075 0 l 1
 895 0 l 1
 895 493 l 1
 326 493 l 1
 326 0 l 1
 146 0 l 1
EndSplineSet
EndChar

StartChar: uni043F
Encoding: 223 1087 507
Width: 1221
VWidth: 0
Flags: HW
HStem: 0 21G<146.2 326.2 895.2 1075.2> 928 132<326.2 895.2>
VStem: 146 180<0 928> 895 180<0 928>
LayerCount: 2
UndoRedoHistory
Layer: 0
Undoes
EndUndoes
Redoes
EndRedoes
EndUndoRedoHistory
UndoRedoHistory
Layer: 1
Undoes
EndUndoes
Redoes
EndRedoes
EndUndoRedoHistory
Fore
SplineSet
146 0 m 1
 146 1060 l 1
 1075 1060 l 1
 1075 0 l 1
 895 0 l 1
 895 928 l 1
 326 928 l 1
 326 0 l 1
 146 0 l 1
EndSplineSet
EndChar

StartChar: uni0441
Encoding: 225 1089 509
Width: 971
VWidth: 0
Flags: HW
HStem: -19 140<453.293 825.788> 942 140<457.344 817.453>
VStem: 99 179<314.839 744.138>
LayerCount: 2
UndoRedoHistory
Layer: 0
Undoes
EndUndoes
Redoes
EndRedoes
EndUndoRedoHistory
UndoRedoHistory
Layer: 1
Undoes
EndUndoes
Redoes
EndRedoes
EndUndoRedoHistory
Fore
SplineSet
734 484 m 1
 734 595 l 1
 216 595 l 1
 216 484 l 1
 734 484 l 1
EndSplineSet
Refer: 173 99 N 1 0 0 1 -14 0 2
EndChar

StartChar: uni0442
Encoding: 226 1090 510
Width: 970
VWidth: 0
Flags: HW
HStem: 0 21G<395.12 575.12> 928 132<79.12 395.12 575.12 891.12>
VStem: 395 180<0 928>
LayerCount: 2
UndoRedoHistory
Layer: 0
Undoes
EndUndoes
Redoes
EndRedoes
EndUndoRedoHistory
UndoRedoHistory
Layer: 1
Undoes
EndUndoes
Redoes
EndRedoes
EndUndoRedoHistory
Fore
SplineSet
395 0 m 1
 395 928 l 1
 79 928 l 1
 79 1060 l 1
 891 1060 l 5
 891 928 l 5
 575 928 l 1
 575 0 l 1
 395 0 l 1
EndSplineSet
EndChar

StartChar: uni0443
Encoding: 227 1091 511
Width: 1101
VWidth: 0
Flags: HW
HStem: -352 139<192.3 437.503>
VStem: 491 166<-164.847 91> 623 34<91 145.392>
LayerCount: 2
UndoRedoHistory
Layer: 0
Undoes
EndUndoes
Redoes
EndRedoes
EndUndoRedoHistory
Back
SplineSet
493.299804688 -398 m 5
 1047.29980469 1060 l 5
 863.299804688 1060 l 5
 553.299804688 173 l 5
 595.299804688 173 l 5
 253.299804688 1060 l 5
 68.2998046875 1060 l 5
 514.299804688 -38 l 5
 514.299804688 90 l 5
 335.299804688 -366 l 5
 493.299804688 -398 l 5
EndSplineSet
UndoRedoHistory
Layer: 1
Undoes
EndUndoes
Redoes
EndRedoes
EndUndoRedoHistory
Fore
SplineSet
192 -352 m 1xc0
 192 -213 l 1
 489 -213 493 -164 491 48 c 2
 491 213 l 1xc0
 536 83 l 1
 47 1060 l 1
 234 1060 l 1
 602 293 l 5
 552 293 l 5
 881 1060 l 1
 1067 1060 l 1
 623 91 l 1
 657 220 l 1xa0
 657 37 l 2
 657 -254 601 -352 192 -352 c 1xc0
EndSplineSet
EndChar

StartChar: uni0444
Encoding: 228 1092 512
Width: 1626
VWidth: 0
Flags: HW
VStem: 96 178<305.456 768.024> 728 170<-381 80 199.045 860.984 970 1304> 1353 177<311.283 769.234>
LayerCount: 2
UndoRedoHistory
Layer: 0
Undoes
EndUndoes
Redoes
EndRedoes
EndUndoRedoHistory
Back
SplineSet
728.3203125 -381 m 5
 728.3203125 80 l 5
 667.3203125 52 582.3203125 43 511.3203125 43 c 4
 309.3203125 43 96.3203125 249 96.3203125 541 c 4
 96.3203125 833 290.3203125 1019 501.3203125 1019 c 4
 567.3203125 1019 667.3203125 998 728.3203125 970 c 5
 728.3203125 1304 l 5
 898.3203125 1304 l 5
 898.3203125 970 l 5
 962.3203125 999 1052.3203125 1019 1123.3203125 1019 c 4
 1333.3203125 1019 1530.3203125 834 1530.3203125 542 c 4
 1530.3203125 252 1317.3203125 43 1113.3203125 43 c 4
 1042.3203125 43 957.3203125 52 898.3203125 80 c 5
 898.3203125 -381 l 5
 728.3203125 -381 l 5
517.3203125 134 m 4
 582.3203125 134 664.3203125 142 728.3203125 175 c 5
 728.3203125 885 l 5
 655.3203125 924 567.3203125 929 500.3203125 929 c 4
 341.3203125 929 274.3203125 754 274.3203125 542 c 4
 274.3203125 332 358.3203125 134 517.3203125 134 c 4
1109.3203125 134 m 4
 1265.3203125 134 1353.3203125 331 1353.3203125 541 c 4
 1353.3203125 754 1282.3203125 928 1125.3203125 928 c 4
 1054.3203125 928 969.3203125 917 898.3203125 878 c 5
 898.3203125 179 l 5
 965.3203125 140 1042.3203125 134 1109.3203125 134 c 4
EndSplineSet
UndoRedoHistory
Layer: 1
Undoes
EndUndoes
Redoes
EndRedoes
EndUndoRedoHistory
Fore
SplineSet
728 -381 m 1
 728 80 l 1
 363 -55 96 172 96 541 c 0
 96 929 393 1115 728 970 c 1
 728 1304 l 1
 898 1304 l 1
 898 970 l 1
 1231 1112 1530 931 1530 542 c 0
 1530 179 1263 -59 898 80 c 1
 898 -381 l 1
 728 -381 l 1
728 210 m 1
 728 851 l 1
 424 983 274 857 274 542 c 0
 274 234 426 85 728 210 c 1
1353 541 m 0
 1353 864 1195 976 898 844 c 1
 898 214 l 1
 1212 75 1353 237 1353 541 c 0
EndSplineSet
EndChar

StartChar: uni0446
Encoding: 230 1094 514
Width: 1190
VWidth: 0
Flags: HW
HStem: 0 132<326.2 842.2>
VStem: 146 180<132 1060> 842 180<132 1060> 974 160<-289 0>
LayerCount: 2
UndoRedoHistory
Layer: 0
Undoes
EndUndoes
Redoes
EndRedoes
EndUndoRedoHistory
UndoRedoHistory
Layer: 1
Undoes
EndUndoes
Redoes
EndRedoes
EndUndoRedoHistory
Fore
SplineSet
974 -289 m 5xd0
 974 0 l 5xd0
 146 0 l 1
 146 1060 l 1
 326 1060 l 1
 326 132 l 1
 842 132 l 5
 842 1060 l 5
 1022 1060 l 5
 1022 132 l 5xe0
 1134 132 l 5
 1134 -289 l 5
 974 -289 l 5xd0
EndSplineSet
EndChar

StartChar: uni0447
Encoding: 231 1095 515
Width: 1039
VWidth: 0
Flags: HW
HStem: 402 139<355.282 542.64>
VStem: 107 181<609.64 810>
LayerCount: 2
UndoRedoHistory
Layer: 0
Undoes
EndUndoes
Redoes
EndRedoes
EndUndoRedoHistory
Back
SplineSet
713.639648438 0 m 5
 893.639648438 0 l 5
 893.639648438 1060 l 5
 713.639648438 1060 l 5
 713.639648438 605 l 5
 711.639648438 583 572.639648438 547 511.639648438 547 c 4
 352.639648438 547 287.639648438 608 287.639648438 840 c 6
 287.639648438 1060 l 5
 106.639648438 1060 l 5
 106.639648438 824 l 6
 106.639648438 493 252.639648438 409 495.639648438 408 c 4
 547.639648438 408 691.639648438 423 713.639648438 445 c 5
 713.639648438 0 l 5
EndSplineSet
UndoRedoHistory
Layer: 1
Undoes
EndUndoes
Redoes
EndRedoes
EndUndoRedoHistory
Fore
SplineSet
714 0 m 1
 894 0 l 1
 894 1060 l 1
 714 1060 l 1
 714 541 l 1
 540 541 l 2
 353 541 288 591 288 810 c 2
 288 1060 l 1
 107 1060 l 1
 107 794 l 2
 107 520 234 402 543 402 c 2
 714 402 l 1
 714 0 l 1
EndSplineSet
EndChar

StartChar: uni0448
Encoding: 232 1096 516
Width: 1448
VWidth: 0
Flags: HW
HStem: 0 132<316.2 640.2 810.2 1132.2>
VStem: 146 170<132 1060> 640 170<132 1060> 1132 170<132 1060>
LayerCount: 2
UndoRedoHistory
Layer: 0
Undoes
EndUndoes
Redoes
EndRedoes
EndUndoRedoHistory
UndoRedoHistory
Layer: 1
Undoes
EndUndoes
Redoes
EndRedoes
EndUndoRedoHistory
Fore
SplineSet
146 0 m 5
 146 1060 l 5
 316 1060 l 5
 316 132 l 5
 640 132 l 5
 640 1060 l 5
 810 1060 l 5
 810 132 l 5
 1132 132 l 5
 1132 1060 l 5
 1302 1060 l 5
 1302 0 l 5
 146 0 l 5
EndSplineSet
EndChar

StartChar: uni0449
Encoding: 233 1097 517
Width: 1425
VWidth: 0
Flags: HW
HStem: 0 132<316.2 640.2 810.2 1132.2 1270.2 1302.2>
VStem: 146 170<132 1060> 640 170<132 1060> 1132 170<134 1060> 1219 180<-280 0>
LayerCount: 2
UndoRedoHistory
Layer: 0
Undoes
EndUndoes
Redoes
EndRedoes
EndUndoRedoHistory
UndoRedoHistory
Layer: 1
Undoes
EndUndoes
Redoes
EndRedoes
EndUndoRedoHistory
Fore
SplineSet
146 0 m 1xf0
 146 1060 l 1
 316 1060 l 1
 316 132 l 1
 640 132 l 1
 640 1060 l 1
 810 1060 l 1
 810 132 l 1
 1132 132 l 1
 1132 1060 l 1
 1302 1060 l 1
 1302 0 l 1
 146 0 l 1xf0
1219 -280 m 1xe8
 1219 0 l 1
 1270 134 l 1
 1399 134 l 1
 1399 -280 l 1
 1219 -280 l 1xe8
EndSplineSet
EndChar

StartChar: uni044A
Encoding: 234 1098 518
Width: 1048
VWidth: 0
Flags: HW
HStem: 0 132<382.68 733.825> 534 137<382.68 742.985> 928 132<32.68 202.68>
VStem: 203 180<132 534 671 928> 797 180<198.455 481.107>
LayerCount: 2
UndoRedoHistory
Layer: 0
Undoes
EndUndoes
Redoes
EndRedoes
EndUndoRedoHistory
UndoRedoHistory
Layer: 1
Undoes
EndUndoes
Redoes
EndRedoes
EndUndoRedoHistory
Fore
SplineSet
203 0 m 1
 203 928 l 1
 33 928 l 1
 33 1060 l 1
 383 1060 l 1
 383 671 l 1
 596 671 l 2
 898 671 977 512 977 347 c 0
 977 164 893 0 604 0 c 2
 203 0 l 1
383 132 m 1
 600 132 l 2
 755 132 797 242 797 349 c 0
 797 462 742 534 593 534 c 2
 383 534 l 1
 383 132 l 1
EndSplineSet
EndChar

StartChar: uni044B
Encoding: 235 1099 519
Width: 1494
VWidth: 0
Flags: HW
HStem: 0 132<326.2 677.345> 534 137<326.2 686.505>
VStem: 146 180<132 534 671 1060> 740 180<198.455 481.107> 1168 180<0 1060>
LayerCount: 2
UndoRedoHistory
Layer: 0
Undoes
EndUndoes
Redoes
EndRedoes
EndUndoRedoHistory
UndoRedoHistory
Layer: 1
Undoes
EndUndoes
Redoes
EndRedoes
EndUndoRedoHistory
Fore
SplineSet
146 0 m 1
 146 1060 l 1
 326 1060 l 1
 326 671 l 1
 539 671 l 2
 841 671 920 512 920 347 c 0
 920 164 836 0 547 0 c 2
 146 0 l 1
326 132 m 1
 543 132 l 2
 698 132 740 242 740 349 c 0
 740 462 685 534 536 534 c 2
 326 534 l 1
 326 132 l 1
1168 0 m 1
 1168 1060 l 1
 1348 1060 l 1
 1348 0 l 1
 1168 0 l 1
EndSplineSet
EndChar

StartChar: uni044C
Encoding: 236 1100 520
Width: 983
VWidth: 0
Flags: HW
HStem: 0 132<326.2 677.345> 534 137<326.2 686.505>
VStem: 146 180<132 534 671 1060> 740 180<198.455 481.107>
LayerCount: 2
UndoRedoHistory
Layer: 0
Undoes
EndUndoes
Redoes
EndRedoes
EndUndoRedoHistory
UndoRedoHistory
Layer: 1
Undoes
EndUndoes
Redoes
EndRedoes
EndUndoRedoHistory
Fore
SplineSet
146 0 m 5
 146 1060 l 5
 326 1060 l 5
 326 671 l 5
 539 671 l 6
 841 671 920 512 920 347 c 4
 920 164 836 0 547 0 c 6
 146 0 l 5
326 132 m 5
 543 132 l 6
 698 132 740 242 740 349 c 4
 740 462 685 534 536 534 c 6
 326 534 l 5
 326 132 l 5
EndSplineSet
EndChar

StartChar: uni044D
Encoding: 237 1101 521
Width: 1005
VWidth: 0
Flags: HW
HStem: -19 140<187.827 547.936> 942 140<179.492 551.987>
VStem: 728 179<318.862 748.161>
LayerCount: 2
UndoRedoHistory
Layer: 0
Undoes
EndUndoes
Redoes
EndRedoes
EndUndoRedoHistory
UndoRedoHistory
Layer: 1
Undoes
EndUndoes
Redoes
EndRedoes
EndUndoRedoHistory
Fore
SplineSet
800 484 m 1
 800 595 l 1
 282 595 l 1
 282 484 l 1
 800 484 l 1
EndSplineSet
Refer: 173 99 N -1 0 0 -1 1020 1063 2
EndChar

StartChar: uni044E
Encoding: 238 1102 522
Width: 1670
VWidth: 0
Flags: HW
HStem: -19 138<907.924 1233.17> 944 138<910.596 1235.18>
VStem: 570 178<301.308 493 608 757.946> 1394 180<294.77 767.202>
LayerCount: 2
UndoRedoHistory
Layer: 0
Undoes
EndUndoes
Redoes
EndRedoes
EndUndoRedoHistory
UndoRedoHistory
Layer: 1
Undoes
EndUndoes
Redoes
EndRedoes
EndUndoRedoHistory
Fore
SplineSet
146 0 m 1
 326 0 l 1
 326 493 l 1
 570 493 l 1
 584 192 777 -19 1072 -19 c 0
 1373 -19 1574 209 1574 530 c 0
 1574 858 1385 1082 1072 1082 c 0
 785 1082 602 894 574 608 c 1
 326 608 l 1
 326 1060 l 1
 146 1060 l 1
 146 0 l 1
1072 119 m 0
 860 119 748 288 748 528 c 0
 748 773 861 944 1072 944 c 0
 1288 944 1394 773 1394 528 c 0
 1394 288 1289 119 1072 119 c 0
EndSplineSet
EndChar

StartChar: uni044F
Encoding: 239 1103 523
Width: 1119
VWidth: 0
Flags: HW
HStem: 0 21G<165.04 368.507 793.04 973.04> 437 143<545.04 793.04> 928 132<339.492 793.04>
VStem: 98 199<638.883 888.283> 793 180<0 437 580 928>
LayerCount: 2
UndoRedoHistory
Layer: 0
Undoes
EndUndoes
Redoes
EndRedoes
EndUndoRedoHistory
UndoRedoHistory
Layer: 1
Undoes
EndUndoes
Redoes
EndRedoes
EndUndoRedoHistory
Fore
SplineSet
165 0 m 1
 365 444 l 1
 170 492 98 613 98 753 c 0
 98 924 193 1060 464 1060 c 2
 973 1060 l 1
 973 0 l 1
 793 0 l 1
 793 437 l 1
 545 437 l 1
 360 0 l 1
 165 0 l 1
524 580 m 2
 793 580 l 1
 793 928 l 1
 495 928 l 2
 319 928 297 856 297 750 c 0
 297 623 405 580 524 580 c 2
EndSplineSet
EndChar

StartChar: uni0452
Encoding: 242 1106 526
Width: 1218
VWidth: 0
Flags: HW
HStem: -280 128<678.28 862.899> 0 21G<185.28 365.28> 651 153<461.572 827.813> 1072 127<41.28 185.28 365.28 762.28>
VStem: 185 180<0 589.395 711 1072 1199 1455> 902 180<-119.941 568.124>
LayerCount: 2
UndoRedoHistory
Layer: 0
Undoes
EndUndoes
Redoes
EndRedoes
EndUndoRedoHistory
Back
SplineSet
185.280273438 0 m 5
 365.280273438 0 l 5
 365.280273438 429 l 5
 319.280273438 334 l 5
 518.280273438 517 l 5
 451.280273438 517 l 5
 890.280273438 0 l 5
 1103.28027344 0 l 5
 580.280273438 615 l 5
 580.280273438 533 l 5
 1089.28027344 1060 l 5
 868.280273438 1060 l 5
 321.280273438 501 l 5
 358.280273438 501 l 5
 365.280273438 751 l 5
 365.280273438 1468 l 5
 185.280273438 1455 l 5
 185.280273438 0 l 5
EndSplineSet
UndoRedoHistory
Layer: 1
Undoes
EndUndoes
Redoes
EndRedoes
EndUndoRedoHistory
Fore
SplineSet
678 -280 m 1
 667 -152 l 1
 703 -152 l 2
 880 -152 902 -117 902 95 c 2
 902 366 l 6
 902 585 815 651 699 651 c 4
 557 651 461 620 365 569 c 1
 365 0 l 1
 185 0 l 1
 185 1072 l 1
 41 1072 l 1
 41 1199 l 1
 185 1199 l 1
 185 1455 l 1
 365 1468 l 1
 365 1199 l 1
 762 1199 l 1
 762 1072 l 1
 365 1072 l 1
 365 711 l 1
 467 772 567 804 712 804 c 4
 928 804 1082 681 1082 376 c 6
 1082 147 l 2
 1082 -153 1033 -280 744 -280 c 2
 678 -280 l 1
EndSplineSet
EndChar

StartChar: uni045A
Encoding: 250 1114 532
Width: 1573
VWidth: 0
Flags: HW
HStem: 0 132<1191.2 1328.26> 493 137<1191.2 1340.09>
VStem: 1384 150<188.799 449.303>
LayerCount: 2
UndoRedoHistory
Layer: 0
Undoes
EndUndoes
Redoes
EndRedoes
EndUndoRedoHistory
UndoRedoHistory
Layer: 1
Undoes
EndUndoes
Redoes
EndRedoes
EndUndoRedoHistory
Fore
SplineSet
146 0 m 1
 323 0 l 1
 323 493 l 1
 795 493 l 1
 795 0 l 1
 1196 0 l 2
 1423 0 1534 147 1534 317 c 0
 1534 498 1430 631 1197 631 c 2
 970 631 l 1
 970 1061 l 1
 795 1061 l 1
 795 630 l 1
 323 630 l 1
 323 1061 l 1
 146 1061 l 1
 146 0 l 1
970 132 m 1
 970 504 l 1
 1191 504 l 2
 1334 504 1384 419 1384 320 c 0
 1384 221 1332 132 1191 132 c 2
 970 132 l 1
EndSplineSet
EndChar

StartChar: uni045F
Encoding: 255 1119 536
Width: 1121
VWidth: 0
Flags: HW
LayerCount: 2
UndoRedoHistory
Layer: 0
Undoes
EndUndoes
Redoes
EndRedoes
EndUndoRedoHistory
UndoRedoHistory
Layer: 1
Undoes
EndUndoes
Redoes
EndRedoes
EndUndoRedoHistory
Fore
SplineSet
493 -268 m 1
 640 -268 l 1
 645 0 l 1
 975 0 l 1
 975 1060 l 1
 795 1060 l 1
 795 147 l 1
 326 147 l 1
 326 1060 l 1
 146 1060 l 1
 146 0 l 1
 489 0 l 1
 493 -268 l 1
EndSplineSet
EndChar

StartChar: uni2074
Encoding: 642 8308 555
Width: 707
VWidth: 0
Flags: HW
LayerCount: 2
UndoRedoHistory
Layer: 0
Undoes
EndUndoes
Redoes
EndRedoes
EndUndoRedoHistory
UndoRedoHistory
Layer: 1
Undoes
EndUndoes
Redoes
EndRedoes
EndUndoRedoHistory
Fore
SplineSet
417 640 m 1
 516 640 l 1
 516 836 l 1
 618 836 l 1
 609 945 l 1
 518 945 l 1
 518 1468 l 1
 406 1468 l 1
 97 932 l 1
 97 836 l 1
 417 836 l 1
 417 640 l 1
209 945 m 1
 417 1294 l 1
 416 945 l 1
 209 945 l 1
EndSplineSet
EndChar

StartChar: uni2206
Encoding: 643 8710 556
Width: 1328
VWidth: 0
Flags: HW
LayerCount: 2
UndoRedoHistory
Layer: 0
Undoes
EndUndoes
Redoes
EndRedoes
EndUndoRedoHistory
UndoRedoHistory
Layer: 1
Undoes
EndUndoes
Redoes
EndRedoes
EndUndoRedoHistory
Fore
SplineSet
91 0 m 1
 91 83 l 1
 573 1500 l 1
 759 1500 l 1
 1240 83 l 1
 1240 0 l 1
 91 0 l 1
287 169 m 1
 1044 169 l 1
 695 1163 l 1
 661 1278 l 1
 629 1163 l 1
 287 169 l 1
EndSplineSet
EndChar

StartChar: v
Encoding: 118 118 565
Width: 1075
VWidth: 0
Flags: HW
LayerCount: 2
UndoRedoHistory
Layer: 0
Undoes
EndUndoes
Redoes
EndRedoes
EndUndoRedoHistory
UndoRedoHistory
Layer: 1
Undoes
EndUndoes
Redoes
EndRedoes
EndUndoRedoHistory
Fore
SplineSet
453 0 m 1
 633 0 l 1
 1033 1060 l 1
 848 1060 l 1
 638 461 l 1
 524 119 l 1
 566 119 l 1
 446 459 l 1
 230 1060 l 1
 43 1060 l 1
 453 0 l 1
EndSplineSet
EndChar

StartChar: w
Encoding: 119 119 566
Width: 1567
VWidth: 0
Flags: HW
LayerCount: 2
UndoRedoHistory
Layer: 0
Undoes
EndUndoes
Redoes
EndRedoes
EndUndoRedoHistory
UndoRedoHistory
Layer: 1
Undoes
EndUndoes
Redoes
EndRedoes
EndUndoRedoHistory
Fore
SplineSet
344 0 m 1
 516 0 l 1
 804 956 l 1
 769 956 l 1
 1069 0 l 1
 1232 0 l 1
 1522 1060 l 1
 1355 1060 l 1
 1130 138 l 1
 1167 138 l 1
 881 1060 l 1
 691 1060 l 1
 417 138 l 1
 452 138 l 1
 218 1060 l 1
 46 1060 l 1
 344 0 l 1
EndSplineSet
EndChar

StartChar: x
Encoding: 120 120 571
Width: 1069
VWidth: 0
Flags: HW
LayerCount: 2
UndoRedoHistory
Layer: 0
Undoes
EndUndoes
Redoes
EndRedoes
EndUndoRedoHistory
UndoRedoHistory
Layer: 1
Undoes
EndUndoes
Redoes
EndRedoes
EndUndoRedoHistory
Fore
SplineSet
36 0 m 1
 237 0 l 1
 555 439 l 1
 624 496 l 1
 1026 1060 l 1
 825 1060 l 1
 522 626 l 1
 454 572 l 1
 36 0 l 1
830 0 m 1
 1032 0 l 1
 263 1060 l 1
 61 1060 l 1
 830 0 l 1
EndSplineSet
EndChar

StartChar: y
Encoding: 121 121 572
Width: 1078
VWidth: 0
Flags: HW
LayerCount: 2
UndoRedoHistory
Layer: 0
Undoes
EndUndoes
Redoes
EndRedoes
EndUndoRedoHistory
UndoRedoHistory
Layer: 1
Undoes
EndUndoes
Redoes
EndRedoes
EndUndoRedoHistory
Fore
SplineSet
486 -398 m 5
 1040 1060 l 5
 856 1060 l 5
 546 173 l 5
 588 173 l 5
 246 1060 l 5
 61 1060 l 5
 507 -38 l 5
 507 90 l 5
 328 -366 l 5
 486 -398 l 5
EndSplineSet
EndChar

StartChar: yen
Encoding: 659 165 576
Width: 1225
VWidth: 0
Flags: HW
LayerCount: 2
UndoRedoHistory
Layer: 0
Undoes
EndUndoes
Redoes
EndRedoes
EndUndoRedoHistory
UndoRedoHistory
Layer: 1
Undoes
EndUndoes
Redoes
EndRedoes
EndUndoRedoHistory
Fore
SplineSet
539 0 m 1
 731 0 l 1
 731 274 l 1
 1043 274 l 1
 1043 388 l 1
 731 388 l 1
 731 565 l 1
 1042 565 l 1
 1042 677 l 1
 782 677 l 1
 1198 1437 l 1
 1004 1437 l 1
 634 733 l 1
 245 1437 l 1
 50 1437 l 1
 485 677 l 1
 221 677 l 1
 221 565 l 1
 539 565 l 1
 539 388 l 1
 220 388 l 1
 220 274 l 1
 539 274 l 1
 539 0 l 1
EndSplineSet
EndChar

StartChar: z
Encoding: 122 122 578
Width: 919
VWidth: 0
Flags: HW
LayerCount: 2
UndoRedoHistory
Layer: 0
Undoes
EndUndoes
Redoes
EndRedoes
EndUndoRedoHistory
UndoRedoHistory
Layer: 1
Undoes
EndUndoes
Redoes
EndRedoes
EndUndoRedoHistory
Fore
SplineSet
101 0 m 1
 834 0 l 1
 834 132 l 1
 239 132 l 1
 261 68 l 1
 824 936 l 1
 824 1060 l 1
 123 1060 l 1
 123 928 l 1
 697 928 l 1
 673 989 l 1
 101 116 l 1
 101 0 l 1
EndSplineSet
EndChar

StartChar: zero
Encoding: 48 48 582
Width: 1187
VWidth: 0
Flags: HW
LayerCount: 2
UndoRedoHistory
Layer: 0
Undoes
EndUndoes
Redoes
EndRedoes
EndUndoRedoHistory
UndoRedoHistory
Layer: 1
Undoes
EndUndoes
Redoes
EndRedoes
EndUndoRedoHistory
Fore
SplineSet
609 119 m 0
 408 119 293 325 293 719 c 0
 293 1095 408 1307 609 1307 c 0
 810 1307 917 1119 917 719 c 0
 917 325 810 119 609 119 c 0
609 -27 m 0
 958 -27 1097 289 1097 713 c 0
 1097 1157 944 1454 609 1454 c 0
 274 1454 112 1157 112 713 c 0
 112 289 260 -27 609 -27 c 0
EndSplineSet
EndChar

StartChar: thorn
Encoding: 665 254 584
Width: 1205
VWidth: 0
Flags: HW
HStem: -19 92 982 92
VStem: 169 125 169 94 994 122
LayerCount: 2
UndoRedoHistory
Layer: 0
Undoes
EndUndoes
Redoes
EndRedoes
EndUndoRedoHistory
Back
SplineSet
146.599609375 -459.200195312 m 5
 327 -449.200195312 l 5
 327 -58.599609375 l 5
 316.799804688 285 l 5
 274.799804688 255.799804688 l 5
 322.799804688 129.799804688 447.799804688 -19 660 -19 c 4
 941.400390625 -19 1105 207.799804688 1105 527.599609375 c 4
 1105 852.400390625 951.599609375 1081.59960938 663.400390625 1081.59960938 c 4
 489.799804688 1081.59960938 351.200195312 981.599609375 282 821.400390625 c 5
 322.200195312 818.400390625 l 5
 297.599609375 1059.79980469 l 5
 146.599609375 1059.79980469 l 5
 146.599609375 -459.200195312 l 5
630.599609375 119 m 4
 436.400390625 119 323.799804688 271.400390625 323.799804688 546.400390625 c 4
 324.599609375 789 421.200195312 943.599609375 636.200195312 943.599609375 c 4
 838.200195312 943.599609375 924.200195312 778.599609375 924.200195312 529.599609375 c 4
 924.200195312 276.599609375 829.799804688 119 630.599609375 119 c 4
EndSplineSet
UndoRedoHistory
Layer: 1
Undoes
EndUndoes
Redoes
EndRedoes
EndUndoRedoHistory
Fore
SplineSet
657 -19 m 0
 948 -19 1110 201 1110 530 c 0
 1110 858 959 1082 664 1082 c 0
 494 1082 358 978 294 848 c 1
 326 841 l 1
 328 1086 l 1
 328 1468 l 1
 146 1455 l 1
 146 -462 l 1
 325 -450 l 1
 325 260 l 1
 271 251 l 1
 320 134 452 -19 657 -19 c 0
633 119 m 0
 444 119 324 259 324 546 c 0
 324 792 428 944 641 944 c 0
 844 944 929 781 929 530 c 0
 929 272 834 119 633 119 c 0
EndSplineSet
EndChar

StartChar: kgreenlandic
Encoding: 666 312 585
Width: 1087
VWidth: 0
Flags: HW
LayerCount: 2
UndoRedoHistory
Layer: 0
Undoes
EndUndoes
Redoes
EndRedoes
EndUndoRedoHistory
UndoRedoHistory
Layer: 1
Undoes
EndUndoes
Redoes
EndRedoes
EndUndoRedoHistory
Fore
SplineSet
146 0 m 1
 326 0 l 1
 326 429 l 1
 280 334 l 1
 479 517 l 1
 412 517 l 1
 851 0 l 1
 1064 0 l 1
 541 615 l 1
 541 533 l 1
 1050 1060 l 1
 829 1060 l 1
 282 501 l 1
 319 501 l 1
 326 751 l 1
 326 1060 l 1
 146 1060 l 1
 146 0 l 1
EndSplineSet
EndChar

StartChar: uni2015
Encoding: 668 8213 587
Width: 4065
VWidth: 0
Flags: HW
LayerCount: 2
UndoRedoHistory
Layer: 0
Undoes
EndUndoes
Redoes
EndRedoes
EndUndoRedoHistory
UndoRedoHistory
Layer: 1
Undoes
EndUndoes
Redoes
EndRedoes
EndUndoRedoHistory
Fore
SplineSet
89 480 m 1
 89 615 l 1
 3964 615 l 1
 3964 480 l 1
 89 480 l 1
EndSplineSet
EndChar

StartChar: lslash
Encoding: 669 322 588
Width: 666
VWidth: 0
Flags: HW
LayerCount: 2
UndoRedoHistory
Layer: 1
Undoes
EndUndoes
Redoes
EndRedoes
EndUndoRedoHistory
Fore
SplineSet
0 683 m 1
 557 973 l 1
 557 1063 l 1
 0 773 l 1
 0 683 l 1
EndSplineSet
Refer: 255 108 N 1 0 0 1 0 0 2
EndChar

StartChar: acutecomb
Encoding: 670 769 589
Width: 401
VWidth: 0
Flags: HW
HStem: 1178 375
LayerCount: 2
UndoRedoHistory
Layer: 1
Undoes
EndUndoes
Redoes
EndRedoes
EndUndoRedoHistory
Fore
SplineSet
0 1178 m 1
 106 1178 l 1
 401 1553 l 1
 180 1553 l 1
 0 1178 l 1
EndSplineSet
EndChar

StartChar: gravecomb
Encoding: 671 768 590
Width: 383
VWidth: 0
Flags: HW
HStem: 1209 375
LayerCount: 2
UndoRedoHistory
Layer: 1
Undoes
EndUndoes
Redoes
EndRedoes
EndUndoRedoHistory
Fore
SplineSet
278 1209 m 1
 383 1209 l 1
 205 1584 l 1
 0 1584 l 1
 278 1209 l 1
EndSplineSet
EndChar

StartChar: caroncomb
Encoding: 672 780 591
Width: 567
VWidth: 0
Flags: HW
LayerCount: 2
UndoRedoHistory
Layer: 1
Undoes
EndUndoes
Redoes
EndRedoes
EndUndoRedoHistory
Fore
SplineSet
185 1222 m 1
 372 1222 l 1
 567 1584 l 1
 435 1584 l 1
 275 1329 l 1
 131 1584 l 1
 0 1584 l 1
 185 1222 l 1
EndSplineSet
EndChar

StartChar: circumflexcomb
Encoding: 673 770 592
Width: 559
VWidth: 0
Flags: HW
LayerCount: 2
UndoRedoHistory
Layer: 1
Undoes
EndUndoes
Redoes
EndRedoes
EndUndoRedoHistory
Fore
SplineSet
0 1209 m 5
 123 1209 l 5
 279 1473 l 5
 435 1209 l 5
 559 1209 l 5
 379 1584 l 5
 189 1584 l 5
 0 1209 l 5
EndSplineSet
EndChar

StartChar: tildecomb
Encoding: 674 771 593
Width: 598
VWidth: 0
Flags: HW
HStem: 1245 122<321.546 495.203> 1342 110<105.151 283.52>
VStem: 0 91<1245 1334.3> 505 93<1373.35 1452>
LayerCount: 2
UndoRedoHistory
Layer: 1
Undoes
EndUndoes
Redoes
EndRedoes
EndUndoRedoHistory
Fore
SplineSet
91 1245 m 1xb0
 100 1314 124 1342 159 1342 c 0x70
 230 1342 346 1245 451 1245 c 0xb0
 541 1245 598 1319 598 1452 c 1
 505 1452 l 1x70
 496 1388 475 1367 445 1367 c 0xb0
 384 1367 283 1452 164 1452 c 0x70
 61 1452 0 1380 0 1245 c 1
 91 1245 l 1xb0
EndSplineSet
EndChar

StartChar: uni0404
Encoding: 164 1028 595
Width: 1278
VWidth: 0
Flags: HW
HStem: -19 155<614.994 1082.5> 1303 153<607.749 1059.51>
LayerCount: 2
UndoRedoHistory
Layer: 0
Undoes
EndUndoes
Redoes
EndRedoes
EndUndoRedoHistory
Back
SplineSet
812.099609375 -19 m 4
 996.099609375 -19 1137.09960938 36 1200.09960938 67 c 5
 1157.09960938 211 l 5
 1103.09960938 186 982.099609375 136 832.099609375 136 c 4
 533.146484375 136 335.829101562 330.435546875 313.265625 654.5 c 5
 958.099609375 654.5 l 5
 958.099609375 798.5 l 5
 314.583007812 798.5 l 5
 342.12890625 1108.91601562 531.31640625 1303 820.099609375 1303 c 4
 937.099609375 1303 1059.09960938 1270 1147.09960938 1216 c 5
 1208.09960938 1344 l 5
 1113.09960938 1411 971.099609375 1456 804.099609375 1456 c 4
 396.099609375 1456 116.099609375 1171 116.099609375 723 c 4
 116.099609375 256 409.099609375 -19 812.099609375 -19 c 4
EndSplineSet
UndoRedoHistory
Layer: 1
Undoes
EndUndoes
Redoes
EndRedoes
EndUndoRedoHistory
Fore
SplineSet
812 -19 m 0
 996 -19 1137 36 1200 67 c 1
 1157 211 l 1
 1103 186 982 136 832 136 c 0
 533 136 325 330 311 694 c 1
 268 654 l 1
 958 654 l 1
 958 798 l 1
 266 798 l 1
 311 758 l 1
 327 1099 531 1303 820 1303 c 0
 937 1303 1059 1270 1147 1216 c 1
 1208 1344 l 1
 1113 1411 971 1456 804 1456 c 0
 396 1456 116 1171 116 723 c 0
 116 256 409 -19 812 -19 c 0
EndSplineSet
EndChar

StartChar: uni0418
Encoding: 184 1048 596
Width: 1517
VWidth: 0
Flags: HW
HStem: 0 21G<172 388.514 1162 1345>
VStem: 172 182<169 1437> 1162 183<0 1157.42>
LayerCount: 2
UndoRedoHistory
Layer: 0
Undoes
EndUndoes
Redoes
EndRedoes
EndUndoRedoHistory
UndoRedoHistory
Layer: 1
Undoes
EndUndoes
Redoes
EndRedoes
EndUndoRedoHistory
Fore
SplineSet
1345 0 m 1
 1162 0 l 1
 1162 713 l 1
 1180 1271 l 1
 1225 1258 l 1
 375 0 l 1
 172 0 l 1
 172 1437 l 1
 354 1437 l 1
 354 660 l 1
 341 166 l 1
 296 169 l 1
 1149 1437 l 1
 1345 1437 l 1
 1345 0 l 1
EndSplineSet
EndChar

StartChar: uni0416
Encoding: 182 1046 597
Width: 2010
VWidth: 0
Flags: HW
LayerCount: 2
UndoRedoHistory
Layer: 0
Undoes
EndUndoes
Redoes
EndRedoes
EndUndoRedoHistory
UndoRedoHistory
Layer: 1
Undoes
EndUndoes
Redoes
EndRedoes
EndUndoRedoHistory
Fore
SplineSet
1102 0 m 1
 1102 647 l 1
 1053 534 l 1
 1282 742 l 1
 1197 748 l 1
 1772 0 l 1
 1998 0 l 1
 1337 853 l 1
 1337 752 l 1
 1967 1437 l 1
 1741 1437 l 1
 1050 701 l 1
 1102 691 l 1
 1102 1437 l 1
 907 1437 l 1
 908 691 l 1
 960 701 l 1
 269 1437 l 1
 43 1437 l 1
 673 752 l 1
 673 853 l 1
 12 0 l 1
 238 0 l 1
 813 748 l 1
 728 742 l 1
 957 534 l 1
 908 647 l 1
 908 0 l 1
 1102 0 l 1
EndSplineSet
EndChar

StartChar: uni042F
Encoding: 207 1071 598
Width: 1370
VWidth: 0
Flags: HW
HStem: 0 21G<94.6 323.971 1004.6 1198.6> 672 140<510.914 1004.6> 1293 144<435.384 1004.6>
VStem: 153 194<892.665 1213.47> 1005 194<0 672 812 1293>
LayerCount: 2
UndoRedoHistory
Layer: 0
Undoes
EndUndoes
Redoes
EndRedoes
EndUndoRedoHistory
UndoRedoHistory
Layer: 1
Undoes
EndUndoes
Redoes
EndRedoes
EndUndoRedoHistory
Fore
SplineSet
1199 0 m 1
 1005 0 l 1
 1005 718 l 1
 1066 672 l 1
 511 672 l 1
 619 728 l 1
 501 442 l 1
 316 0 l 1
 95 0 l 1
 318 498 l 1
 436 775 l 1
 448 687 l 1
 266 729 153 831 153 1061 c 4
 153 1327 309 1437 615 1437 c 2
 1199 1437 l 1
 1199 0 l 1
1005 755 m 1
 1005 1349 l 1
 1065 1293 l 1
 620 1293 l 2
 421 1293 347 1211 347 1060 c 4
 347 882 419 812 647 812 c 2
 1066 812 l 1
 1005 755 l 1
EndSplineSet
EndChar

StartChar: uni042D
Encoding: 205 1069 599
Width: 1278
VWidth: 0
Flags: HW
HStem: -19 155<241.704 709.206> 654 144<366.1 1012.93> 1303 153<264.689 716.451>
LayerCount: 2
UndoRedoHistory
Layer: 0
Undoes
EndUndoes
Redoes
EndRedoes
EndUndoRedoHistory
UndoRedoHistory
Layer: 1
Undoes
EndUndoes
Redoes
EndRedoes
EndUndoRedoHistory
Fore
SplineSet
512 -19 m 0
 328 -19 187 36 124 67 c 1
 167 211 l 1
 221 186 342 136 492 136 c 0
 791 136 999 330 1013 694 c 1
 1056 654 l 1
 366 654 l 1
 366 798 l 1
 1058 798 l 1
 1014 758 l 1
 998 1099 793 1303 504 1303 c 0
 387 1303 265 1270 177 1216 c 1
 116 1344 l 1
 211 1411 353 1456 520 1456 c 0
 928 1456 1208 1171 1208 723 c 0
 1208 256 915 -19 512 -19 c 0
EndSplineSet
EndChar

StartChar: uni0409
Encoding: 169 1033 600
Width: 2303
VWidth: 0
Flags: HW
HStem: -20 156<136.28 310.977> 0 148<1742.28 1956.26> 667 141<1744.28 1969.96>
VStem: 408 194<242.946 451> 2063 189<244.176 577.609>
LayerCount: 2
UndoRedoHistory
Layer: 0
Undoes
EndUndoes
Redoes
EndRedoes
EndUndoRedoHistory
UndoRedoHistory
Layer: 1
Undoes
EndUndoes
Redoes
EndRedoes
EndUndoRedoHistory
Fore
SplineSet
602 1347 m 1xb8
 535 1293 l 1
 1344 1293 l 1
 1274 1347 l 1
 1274 0 l 1
 1753 0 l 2x78
 2107 0 2252 155 2252 408 c 0
 2252 657 2114 808 1752 808 c 2
 1408 808 l 1
 1467 753 l 1
 1469 1436 l 1
 408 1436 l 1
 408 451 l 2
 408 271 362 136 136 136 c 2
 41 136 l 1
 53 -20 l 1
 167 -20 l 2
 477 -20 602 167 602 441 c 2
 602 1347 l 1xb8
1468 68 m 1
 1468 728 l 1
 1408 667 l 1
 1744 667 l 2
 1975 667 2063 601 2063 408 c 0
 2063 216 1962 148 1742 148 c 2
 1399 148 l 1
 1468 68 l 1
EndSplineSet
EndChar

StartChar: uni042E
Encoding: 206 1070 602
Width: 2116
VWidth: 0
Flags: HW
HStem: -19 153<1091.27 1525.06> 1302 154<1099.43 1522.31>
VStem: 172 642<373 759.742> 1806 194<442.891 986.482>
LayerCount: 2
UndoRedoHistory
Layer: 0
Undoes
EndUndoes
Redoes
EndRedoes
EndUndoRedoHistory
Back
SplineSet
1350 -19 m 4
 1788 -19 2038 274 2038 710 c 4
 2038 1162 1778 1456 1351 1456 c 4
 949.498046875 1456 696.9140625 1206.09277344 661.337890625 810 c 5
 727 810 l 5
 306 810 l 5
 366 760.299804688 l 5
 366 1437 l 5
 172 1437 l 5
 172 0 l 5
 366 0 l 5
 366 720.299804688 l 5
 306 667 l 5
 731 667 l 5
 657.842773438 667 l 5
 674.03515625 249.08984375 922.809570312 -19 1350 -19 c 4
1349 134 m 4
 1015 134 852 373 852 711 c 4
 852 1063 1024 1302 1350 1302 c 4
 1676 1302 1844 1061 1844 711 c 4
 1844 373 1683 134 1349 134 c 4
EndSplineSet
UndoRedoHistory
Layer: 1
Undoes
EndUndoes
Redoes
EndRedoes
EndUndoRedoHistory
Fore
SplineSet
1312 -19 m 0
 1750 -19 2000 274 2000 710 c 0
 2000 1162 1740 1456 1313 1456 c 0
 911 1456 646 1198 623 770 c 1
 689 810 l 1
 306 810 l 1
 366 760 l 1
 366 1437 l 1
 172 1437 l 1
 172 0 l 1
 366 0 l 1
 366 720 l 1
 306 667 l 1
 693 667 l 1
 620 707 l 1
 627 259 885 -19 1312 -19 c 0
1311 134 m 0
 977 134 814 373 814 711 c 0
 814 1063 986 1302 1312 1302 c 0
 1638 1302 1806 1061 1806 711 c 0
 1806 373 1645 134 1311 134 c 0
EndSplineSet
EndChar

StartChar: uni045B
Encoding: 251 1115 603
Width: 1170
VWidth: 0
Flags: HW
HStem: 615 144<383.701 781.537>
VStem: 855 180<333 533.982>
LayerCount: 2
UndoRedoHistory
Layer: 0
Undoes
EndUndoes
Redoes
EndRedoes
EndUndoRedoHistory
Back
SplineSet
520.959960938 -12 m 4
 600.959960938 -12 667.959960938 5 680.959960938 7 c 5
 680.959960938 130 l 5
 674.959960938 129 614.959960938 121 552.959960938 121 c 4
 434.959960938 121 378.959960938 157 378.959960938 300 c 6
 378.959960938 1468 l 5
 197.959960938 1455 l 5
 197.959960938 316 l 6
 197.959960938 62 325.959960938 -12 520.959960938 -12 c 4
EndSplineSet
UndoRedoHistory
Layer: 1
Undoes
EndUndoes
Redoes
EndRedoes
EndUndoRedoHistory
Fore
SplineSet
74 932 m 1
 854 932 l 1
 854 1060 l 1
 74 1060 l 1
 74 932 l 1
379 1468 m 1
 199 1455 l 1
 199 0 l 1
 379 0 l 1
 379 576 l 1
 479 598 567 615 638 615 c 0
 776 615 855 553 855 347 c 6
 855 0 l 5
 1035 0 l 1
 1035 333 l 2
 1035 651 884 759 664 759 c 0
 578 759 481 743 379 716 c 1
 379 1468 l 1
EndSplineSet
EndChar

StartChar: uni0459
Encoding: 249 1113 604
Width: 1565
VWidth: 0
Flags: HW
HStem: 0 132<1191.2 1328.26> 504 127<1191.2 1323.43>
VStem: 1384 150<188.799 449.303>
LayerCount: 2
UndoRedoHistory
Layer: 0
Undoes
EndUndoes
Redoes
EndRedoes
EndUndoRedoHistory
UndoRedoHistory
Layer: 1
Undoes
EndUndoes
Redoes
EndRedoes
EndUndoRedoHistory
Fore
SplineSet
146 0 m 1
 323 0 l 1
 323 923 l 1
 795 923 l 1
 795 0 l 1
 1196 0 l 2
 1423 0 1534 147 1534 317 c 0
 1534 498 1430 631 1197 631 c 2
 970 631 l 1
 970 1061 l 1
 146 1061 l 1
 146 0 l 1
970 132 m 1
 970 504 l 1
 1191 504 l 2
 1334 504 1384 419 1384 320 c 0
 1384 221 1332 132 1191 132 c 2
 970 132 l 1
EndSplineSet
EndChar

StartChar: uni0412
Encoding: 178 1042 605
Width: 1324
VWidth: 0
Flags: HW
HStem: 0 147<689 920.767> 688 135<642 858.569> 1293 144<631 896.356>
VStem: 990 186<907.363 1207.1> 1039 194<254.082 575.516>
LayerCount: 2
UndoRedoHistory
Layer: 0
Undoes
EndUndoes
Redoes
EndRedoes
EndUndoRedoHistory
UndoRedoHistory
Layer: 1
Undoes
EndUndoes
Redoes
EndRedoes
EndUndoRedoHistory
Fore
SplineSet
172 0 m 5xf0
 721 0 l 6
 1063 0 1233 155 1233 408 c 4xe8
 1233 627 1087 743 864 782 c 5
 864 734 l 5
 1102 797 1176 913 1176 1083 c 4
 1176 1331 1000 1437 637 1437 c 6
 172 1437 l 5
 172 0 l 5xf0
314 147 m 5
 366 93 l 5
 366 741 l 5
 313 688 l 5
 642 688 l 6
 912 688 1039 619 1039 415 c 4
 1039 224 932 147 689 147 c 6
 314 147 l 5
312 823 m 5
 366 778 l 5
 366 1345 l 5
 314 1293 l 5
 631 1293 l 6
 875 1293 990 1247 990 1059 c 4xf0
 990 871 873 823 687 823 c 6
 312 823 l 5
EndSplineSet
EndChar

StartChar: uni0413
Encoding: 179 1043 606
Width: 1128
VWidth: 0
Flags: HW
LayerCount: 2
UndoRedoHistory
Layer: 0
Undoes
EndUndoes
Redoes
EndRedoes
EndUndoRedoHistory
UndoRedoHistory
Layer: 1
Undoes
EndUndoes
Redoes
EndRedoes
EndUndoRedoHistory
Fore
SplineSet
172 0 m 5
 366 0 l 5
 366 1347 l 5
 299 1293 l 5
 1078 1293 l 5
 1092 1436 l 5
 172 1436 l 5
 172 0 l 5
EndSplineSet
EndChar

StartChar: uni0426
Encoding: 198 1062 607
Width: 1468
VWidth: 0
Flags: HW
LayerCount: 2
UndoRedoHistory
Layer: 0
Undoes
EndUndoes
Redoes
EndRedoes
EndUndoRedoHistory
UndoRedoHistory
Layer: 1
Undoes
EndUndoes
Redoes
EndRedoes
EndUndoRedoHistory
Fore
SplineSet
172 0 m 1
 366 0 l 1
 366 1347 l 1
 299 1293 l 1
 1172 1293 l 1
 1102 1347 l 1
 1102 0 l 1
 1296 0 l 1
 1296 1436 l 1
 172 1436 l 1
 172 0 l 1
EndSplineSet
EndChar

StartChar: uni0417
Encoding: 183 1047 608
Width: 1172
VWidth: 0
Flags: HW
HStem: -19 151<353.068 777.846> 673 156<574.56 743.858> 1302 154<333.632 749.777>
VStem: 849 180<928.442 1214.9> 898 179<248.492 540.83>
LayerCount: 2
UndoRedoHistory
Layer: 0
Undoes
EndUndoes
Redoes
EndRedoes
EndUndoRedoHistory
Back
SplineSet
448.559570312 792 m 5
 497.559570312 634 l 5
 736.559570312 722 l 6
 916.559570312 789 1029.55957031 879 1029.55957031 1078 c 4
 1029.55957031 1356 793.559570312 1456 548.559570312 1456 c 4
 383.559570312 1456 231.559570312 1398 142.559570312 1336 c 5
 210.559570312 1200 l 5
 266.559570312 1229 394.559570312 1302 551.559570312 1302 c 4
 706.559570312 1302 849.559570312 1250 849.559570312 1087 c 4
 849.559570312 971 805.559570312 928 677.559570312 879 c 5
 448.559570312 792 l 5
583.559570312 -19 m 4
 859.559570312 -19 1067.55957031 95 1077.55957031 380 c 4
 1085.55957031 625 938.559570312 713 723.559570312 792 c 5
 494.559570312 879 l 5
 435.559570312 722 l 5
 674.559570312 634 l 5
 844.559570312 569 902.559570312 514 898.559570312 379 c 4
 892.559570312 203 785.559570312 134 590.559570312 134 c 4
 415.559570312 134 281.559570312 194 190.559570312 259 c 5
 126.559570312 117 l 5
 205.559570312 63 344.559570312 -19 583.559570312 -19 c 4
EndSplineSet
UndoRedoHistory
Layer: 1
Undoes
EndUndoes
Redoes
EndRedoes
EndUndoRedoHistory
Fore
SplineSet
583 -19 m 4xe8
 865 -19 1077 101 1077 401 c 4xe8
 1077 595 983 682 825 752 c 5
 958 816 1029 910 1029 1078 c 4
 1029 1356 793 1456 548 1456 c 4
 383 1456 231 1398 142 1336 c 5
 210 1200 l 5
 266 1229 394 1302 551 1302 c 4
 706 1302 849 1250 849 1087 c 4xf0
 849 933 759 829 575 829 c 6
 384 829 l 5
 385 673 l 5
 575 674 l 6
 788 675 898 536 898 397 c 4
 898 208 755 132 587 132 c 4
 451 132 299 181 190 259 c 5
 126 117 l 5
 205 63 344 -19 583 -19 c 4xe8
EndSplineSet
EndChar

StartChar: uni0437
Encoding: 215 1079 609
Width: 1074
VWidth: 0
Flags: HW
HStem: -19 137<300.334 711.629> 492 123<544.6 700.463> 944 138<284.653 707.988>
VStem: 760 166<671.713 890.911> 791 176<189.793 420.54>
LayerCount: 2
UndoRedoHistory
Layer: 0
Undoes
EndUndoes
Redoes
EndRedoes
EndUndoRedoHistory
Back
SplineSet
508.1796875 119 m 4
 296.1796875 119 185.1796875 288 185.1796875 528 c 4
 185.1796875 773 297.1796875 944 508.1796875 944 c 4
 724.1796875 944 830.1796875 773 830.1796875 528 c 4
 830.1796875 288 725.1796875 119 508.1796875 119 c 4
508.1796875 -19 m 4
 809.1796875 -19 1010.1796875 209 1010.1796875 530 c 4
 1010.1796875 858 821.1796875 1082 508.1796875 1082 c 4
 196.1796875 1082 6.1796875 859 6.1796875 530 c 4
 6.1796875 209 201.1796875 -19 508.1796875 -19 c 4
EndSplineSet
UndoRedoHistory
Layer: 1
Undoes
EndUndoes
Redoes
EndRedoes
EndUndoRedoHistory
Fore
SplineSet
504 944 m 0xf0
 647 944 760 919 760 783 c 0xf0
 760 685 690 616 545 616 c 2
 361 615 l 1
 361 492 l 1
 546 492 l 2
 722 492 791 402 791 303 c 0
 791 170 671 118 532 118 c 0
 412 118 277 158 193 218 c 1
 138 82 l 1
 206 42 325 -19 531 -19 c 0
 772 -19 967 77 967 289 c 0xe8
 967 436 905 505 768 557 c 1
 876 602 926 674 926 785 c 0
 926 1011 734 1082 515 1082 c 0
 373 1082 229 1040 152 994 c 1
 210 869 l 1
 258 890 369 944 504 944 c 0xf0
EndSplineSet
EndChar

